G04*
G04 #@! TF.GenerationSoftware,Altium Limited,Altium Designer,20.0.10 (225)*
G04*
G04 Layer_Color=255*
%FSLAX25Y25*%
%MOIN*%
G70*
G01*
G75*
%ADD88C,0.23622*%
%ADD89C,0.07000*%
%ADD90R,0.07000X0.07000*%
%ADD91C,0.11900*%
%ADD92C,0.06000*%
%ADD93C,0.16535*%
%ADD94C,0.06437*%
D88*
X563000Y167500D02*
D03*
Y490500D02*
D03*
X130000Y167500D02*
D03*
Y490500D02*
D03*
D89*
X334800Y185400D02*
D03*
X324800Y185400D02*
D03*
X344800Y185400D02*
D03*
X354800Y185400D02*
D03*
X354800Y175400D02*
D03*
X344800Y175400D02*
D03*
X324800Y175400D02*
D03*
X334800Y175400D02*
D03*
X174300Y245200D02*
D03*
X164300Y245200D02*
D03*
X174300Y218200D02*
D03*
X164300Y218200D02*
D03*
D90*
X314800Y185400D02*
D03*
X314800Y175400D02*
D03*
D91*
X118500Y465000D02*
D03*
X118524Y445318D02*
D03*
X590240Y189000D02*
D03*
X590217Y208682D02*
D03*
X590240Y271900D02*
D03*
X590217Y291582D02*
D03*
X590240Y354800D02*
D03*
X590217Y374482D02*
D03*
X590240Y437700D02*
D03*
X590217Y457382D02*
D03*
D92*
X402000Y344349D02*
D03*
Y334349D02*
D03*
Y324349D02*
D03*
X343100Y344349D02*
D03*
Y334349D02*
D03*
Y324349D02*
D03*
Y395649D02*
D03*
Y405649D02*
D03*
Y415649D02*
D03*
X402000Y395649D02*
D03*
Y405649D02*
D03*
Y415649D02*
D03*
D93*
X139800Y298074D02*
D03*
Y199649D02*
D03*
D94*
X144800Y270672D02*
D03*
Y259767D02*
D03*
Y248861D02*
D03*
Y237956D02*
D03*
Y227050D02*
D03*
X134800Y232523D02*
D03*
Y243428D02*
D03*
Y254294D02*
D03*
Y265200D02*
D03*
M02*
