G04*
G04 #@! TF.GenerationSoftware,Altium Limited,Altium Designer,20.0.10 (225)*
G04*
G04 Layer_Physical_Order=3*
G04 Layer_Color=16440176*
%FSLAX25Y25*%
%MOIN*%
G70*
G01*
G75*
%ADD88C,0.23622*%
%ADD89C,0.07000*%
%ADD90R,0.07000X0.07000*%
%ADD91C,0.11900*%
%ADD94C,0.06437*%
%ADD95C,0.01772*%
%ADD96C,0.01968*%
%ADD97C,0.05000*%
G36*
X429000Y164000D02*
X278500D01*
Y328000D01*
X101039D01*
Y500000D01*
X121599D01*
X121772Y499531D01*
X121339Y499161D01*
X120090Y497700D01*
X119086Y496061D01*
X118351Y494285D01*
X117902Y492416D01*
X117767Y490700D01*
X142233D01*
X142098Y492416D01*
X141649Y494285D01*
X140914Y496061D01*
X139910Y497700D01*
X138661Y499161D01*
X138228Y499531D01*
X138401Y500000D01*
X429000D01*
Y164000D01*
D02*
G37*
G36*
X247000Y200000D02*
X165000D01*
X152500Y212500D01*
X122500D01*
Y277500D01*
X247000D01*
Y200000D01*
D02*
G37*
%LPC*%
G36*
X234965Y492100D02*
X234965Y492100D01*
X234965Y491600D01*
Y483900D01*
X270035D01*
X270035Y483900D01*
Y492100D01*
X235466Y492100D01*
X234965Y492100D01*
D02*
G37*
G36*
X142233Y490300D02*
X130200D01*
Y478267D01*
X131916Y478402D01*
X133785Y478851D01*
X135561Y479586D01*
X137200Y480590D01*
X138661Y481839D01*
X139910Y483300D01*
X140914Y484939D01*
X141649Y486715D01*
X142098Y488584D01*
X142233Y490300D01*
D02*
G37*
G36*
X129800D02*
X117767D01*
X117902Y488584D01*
X118351Y486715D01*
X119086Y484939D01*
X120090Y483300D01*
X121339Y481839D01*
X122800Y480590D01*
X124439Y479586D01*
X126215Y478851D01*
X128084Y478402D01*
X129800Y478267D01*
Y490300D01*
D02*
G37*
G36*
X118500Y472486D02*
X117040Y472342D01*
X115635Y471916D01*
X114341Y471224D01*
X113207Y470293D01*
X112276Y469159D01*
X111584Y467865D01*
X111158Y466461D01*
X111014Y465000D01*
X111158Y463540D01*
X111584Y462135D01*
X112276Y460841D01*
X113207Y459707D01*
X114341Y458776D01*
X115635Y458084D01*
X117040Y457658D01*
X118500Y457514D01*
X119960Y457658D01*
X121365Y458084D01*
X122659Y458776D01*
X123793Y459707D01*
X124724Y460841D01*
X125416Y462135D01*
X125842Y463540D01*
X125986Y465000D01*
X125842Y466461D01*
X125416Y467865D01*
X124724Y469159D01*
X123793Y470293D01*
X122659Y471224D01*
X121365Y471916D01*
X119960Y472342D01*
X118500Y472486D01*
D02*
G37*
G36*
X336429Y471000D02*
X321300D01*
Y463800D01*
X329307Y455793D01*
X336412D01*
X336429Y455810D01*
Y471000D01*
D02*
G37*
G36*
X249370Y481370D02*
X220630D01*
Y452630D01*
X249370D01*
Y481370D01*
D02*
G37*
G36*
X236100Y451233D02*
X235169Y451047D01*
X234850Y450834D01*
X234531Y451047D01*
X233600Y451233D01*
X232669Y451047D01*
X231880Y450520D01*
X231353Y449731D01*
X231167Y448800D01*
X231353Y447869D01*
X231880Y447080D01*
X232669Y446553D01*
X233600Y446367D01*
X234531Y446553D01*
X234850Y446766D01*
X235169Y446553D01*
X236100Y446367D01*
X237031Y446553D01*
X237820Y447080D01*
X238347Y447869D01*
X238533Y448800D01*
X238347Y449731D01*
X237820Y450520D01*
X237031Y451047D01*
X236100Y451233D01*
D02*
G37*
G36*
X118724Y451679D02*
Y445518D01*
X124885D01*
X124782Y446563D01*
X124419Y447760D01*
X123829Y448863D01*
X123036Y449830D01*
X122069Y450624D01*
X120965Y451213D01*
X119768Y451576D01*
X118724Y451679D01*
D02*
G37*
G36*
X118324D02*
X117279Y451576D01*
X116082Y451213D01*
X114979Y450624D01*
X114012Y449830D01*
X113218Y448863D01*
X112629Y447760D01*
X112266Y446563D01*
X112163Y445518D01*
X118324D01*
Y451679D01*
D02*
G37*
G36*
X124885Y445118D02*
X118724D01*
Y438957D01*
X119768Y439060D01*
X120965Y439423D01*
X122069Y440013D01*
X123036Y440806D01*
X123829Y441773D01*
X124419Y442876D01*
X124782Y444073D01*
X124885Y445118D01*
D02*
G37*
G36*
X118324D02*
X112163D01*
X112266Y444073D01*
X112629Y442876D01*
X113218Y441773D01*
X114012Y440806D01*
X114979Y440013D01*
X116082Y439423D01*
X117279Y439060D01*
X118324Y438957D01*
Y445118D01*
D02*
G37*
G36*
X295900Y434733D02*
X294969Y434547D01*
X294180Y434020D01*
X293653Y433231D01*
X293467Y432300D01*
X293653Y431369D01*
X294180Y430580D01*
X294969Y430053D01*
X295900Y429867D01*
X296831Y430053D01*
X297620Y430580D01*
X298147Y431369D01*
X298333Y432300D01*
X298147Y433231D01*
X297620Y434020D01*
X296831Y434547D01*
X295900Y434733D01*
D02*
G37*
G36*
X245800Y434733D02*
X244831Y434540D01*
X244009Y433991D01*
X243460Y433169D01*
X243267Y432200D01*
X243460Y431231D01*
X244009Y430409D01*
X244831Y429860D01*
X245800Y429667D01*
X246769Y429860D01*
X247591Y430409D01*
X248140Y431231D01*
X248333Y432200D01*
X248140Y433169D01*
X247591Y433991D01*
X246769Y434540D01*
X245800Y434733D01*
D02*
G37*
G36*
X236100Y427433D02*
X235169Y427247D01*
X234850Y427034D01*
X234531Y427247D01*
X233600Y427433D01*
X232669Y427247D01*
X231880Y426720D01*
X231353Y425931D01*
X231167Y425000D01*
X231353Y424069D01*
X231880Y423280D01*
X232669Y422753D01*
X233600Y422567D01*
X234531Y422753D01*
X234850Y422966D01*
X235169Y422753D01*
X236100Y422567D01*
X237031Y422753D01*
X237820Y423280D01*
X238347Y424069D01*
X238533Y425000D01*
X238347Y425931D01*
X237820Y426720D01*
X237031Y427247D01*
X236100Y427433D01*
D02*
G37*
G36*
X275634Y419167D02*
X274703Y418982D01*
X273914Y418454D01*
X273387Y417665D01*
X273202Y416734D01*
X273387Y415803D01*
X273914Y415014D01*
X274703Y414487D01*
X275634Y414302D01*
X276565Y414487D01*
X277354Y415014D01*
X277882Y415803D01*
X278067Y416734D01*
X277882Y417665D01*
X277354Y418454D01*
X276565Y418982D01*
X275634Y419167D01*
D02*
G37*
G36*
X251131Y416405D02*
X250200Y416220D01*
X249411Y415693D01*
X248883Y414903D01*
X248698Y413972D01*
X248883Y413041D01*
X249411Y412252D01*
X250200Y411725D01*
X251131Y411540D01*
X252062Y411725D01*
X252851Y412252D01*
X253378Y413041D01*
X253563Y413972D01*
X253378Y414903D01*
X252851Y415693D01*
X252062Y416220D01*
X251131Y416405D01*
D02*
G37*
G36*
X402000Y420188D02*
X400825Y420033D01*
X399731Y419580D01*
X398791Y418858D01*
X398069Y417918D01*
X397616Y416824D01*
X397461Y415649D01*
X397616Y414474D01*
X398069Y413379D01*
X398791Y412439D01*
X399731Y411718D01*
X400825Y411265D01*
X402000Y411110D01*
X403175Y411265D01*
X404269Y411718D01*
X405209Y412439D01*
X405931Y413379D01*
X406384Y414474D01*
X406539Y415649D01*
X406384Y416824D01*
X405931Y417918D01*
X405209Y418858D01*
X404269Y419580D01*
X403175Y420033D01*
X402000Y420188D01*
D02*
G37*
G36*
X343100D02*
X341925Y420033D01*
X340831Y419580D01*
X339891Y418858D01*
X339169Y417918D01*
X338716Y416824D01*
X338561Y415649D01*
X338716Y414474D01*
X339169Y413379D01*
X339891Y412439D01*
X340831Y411718D01*
X341925Y411265D01*
X343100Y411110D01*
X344275Y411265D01*
X345369Y411718D01*
X346309Y412439D01*
X347031Y413379D01*
X347484Y414474D01*
X347639Y415649D01*
X347484Y416824D01*
X347031Y417918D01*
X346309Y418858D01*
X345369Y419580D01*
X344275Y420033D01*
X343100Y420188D01*
D02*
G37*
G36*
X246000Y408133D02*
X245031Y407940D01*
X244209Y407391D01*
X243660Y406569D01*
X243467Y405600D01*
X243660Y404631D01*
X244209Y403809D01*
X245031Y403260D01*
X246000Y403067D01*
X246969Y403260D01*
X247791Y403809D01*
X248340Y404631D01*
X248533Y405600D01*
X248340Y406569D01*
X247791Y407391D01*
X246969Y407940D01*
X246000Y408133D01*
D02*
G37*
G36*
X402000Y410188D02*
X400825Y410033D01*
X399731Y409580D01*
X398791Y408858D01*
X398069Y407918D01*
X397616Y406824D01*
X397461Y405649D01*
X397616Y404474D01*
X398069Y403379D01*
X398791Y402439D01*
X399731Y401718D01*
X400825Y401265D01*
X402000Y401110D01*
X403175Y401265D01*
X404269Y401718D01*
X405209Y402439D01*
X405931Y403379D01*
X406384Y404474D01*
X406539Y405649D01*
X406384Y406824D01*
X405931Y407918D01*
X405209Y408858D01*
X404269Y409580D01*
X403175Y410033D01*
X402000Y410188D01*
D02*
G37*
G36*
X343100D02*
X341925Y410033D01*
X340831Y409580D01*
X339891Y408858D01*
X339169Y407918D01*
X338716Y406824D01*
X338561Y405649D01*
X338716Y404474D01*
X339169Y403379D01*
X339891Y402439D01*
X340831Y401718D01*
X341925Y401265D01*
X343100Y401110D01*
X344275Y401265D01*
X345369Y401718D01*
X346309Y402439D01*
X347031Y403379D01*
X347484Y404474D01*
X347639Y405649D01*
X347484Y406824D01*
X347031Y407918D01*
X346309Y408858D01*
X345369Y409580D01*
X344275Y410033D01*
X343100Y410188D01*
D02*
G37*
G36*
X375800Y396933D02*
X374869Y396747D01*
X374080Y396220D01*
X373553Y395431D01*
X373367Y394500D01*
X373553Y393569D01*
X374080Y392780D01*
X374869Y392253D01*
X375800Y392067D01*
X376731Y392253D01*
X377520Y392780D01*
X378047Y393569D01*
X378233Y394500D01*
X378047Y395431D01*
X377520Y396220D01*
X376731Y396747D01*
X375800Y396933D01*
D02*
G37*
G36*
X402000Y400188D02*
X400825Y400033D01*
X399731Y399580D01*
X398791Y398858D01*
X398069Y397918D01*
X397616Y396824D01*
X397461Y395649D01*
X397616Y394474D01*
X398069Y393379D01*
X398791Y392439D01*
X399731Y391718D01*
X400825Y391265D01*
X402000Y391110D01*
X403175Y391265D01*
X404269Y391718D01*
X405209Y392439D01*
X405931Y393379D01*
X406384Y394474D01*
X406539Y395649D01*
X406384Y396824D01*
X405931Y397918D01*
X405209Y398858D01*
X404269Y399580D01*
X403175Y400033D01*
X402000Y400188D01*
D02*
G37*
G36*
X343100D02*
X341925Y400033D01*
X340831Y399580D01*
X339891Y398858D01*
X339169Y397918D01*
X338716Y396824D01*
X338561Y395649D01*
X338716Y394474D01*
X339169Y393379D01*
X339891Y392439D01*
X340831Y391718D01*
X341925Y391265D01*
X343100Y391110D01*
X344275Y391265D01*
X345369Y391718D01*
X346309Y392439D01*
X347031Y393379D01*
X347484Y394474D01*
X347639Y395649D01*
X347484Y396824D01*
X347031Y397918D01*
X346309Y398858D01*
X345369Y399580D01*
X344275Y400033D01*
X343100Y400188D01*
D02*
G37*
G36*
X116300Y392733D02*
X115369Y392547D01*
X114580Y392020D01*
X114053Y391231D01*
X113867Y390300D01*
X114053Y389369D01*
X114580Y388580D01*
X115369Y388053D01*
X116300Y387867D01*
X117231Y388053D01*
X118020Y388580D01*
X118547Y389369D01*
X118733Y390300D01*
X118547Y391231D01*
X118020Y392020D01*
X117231Y392547D01*
X116300Y392733D01*
D02*
G37*
G36*
X296200Y389033D02*
X295269Y388847D01*
X294480Y388320D01*
X293953Y387531D01*
X293767Y386600D01*
X293953Y385669D01*
X294480Y384880D01*
X295269Y384353D01*
X296200Y384167D01*
X297131Y384353D01*
X297920Y384880D01*
X298447Y385669D01*
X298633Y386600D01*
X298447Y387531D01*
X297920Y388320D01*
X297131Y388847D01*
X296200Y389033D01*
D02*
G37*
G36*
X387600Y388233D02*
X386669Y388047D01*
X385880Y387520D01*
X385353Y386731D01*
X385167Y385800D01*
X385353Y384869D01*
X385880Y384080D01*
X386669Y383553D01*
X387600Y383367D01*
X388531Y383553D01*
X389320Y384080D01*
X389847Y384869D01*
X390033Y385800D01*
X389847Y386731D01*
X389320Y387520D01*
X388531Y388047D01*
X387600Y388233D01*
D02*
G37*
G36*
X357600D02*
X356669Y388047D01*
X355880Y387520D01*
X355353Y386731D01*
X355167Y385800D01*
X355353Y384869D01*
X355880Y384080D01*
X356669Y383553D01*
X357600Y383367D01*
X358531Y383553D01*
X359320Y384080D01*
X359847Y384869D01*
X360033Y385800D01*
X359847Y386731D01*
X359320Y387520D01*
X358531Y388047D01*
X357600Y388233D01*
D02*
G37*
G36*
X116300Y375133D02*
X115369Y374947D01*
X114580Y374420D01*
X114053Y373631D01*
X113867Y372700D01*
X114053Y371769D01*
X114580Y370980D01*
X115369Y370453D01*
X116300Y370267D01*
X117231Y370453D01*
X118020Y370980D01*
X118547Y371769D01*
X118733Y372700D01*
X118547Y373631D01*
X118020Y374420D01*
X117231Y374947D01*
X116300Y375133D01*
D02*
G37*
G36*
X357600Y357033D02*
X356669Y356847D01*
X355880Y356320D01*
X355353Y355531D01*
X355167Y354600D01*
X355353Y353669D01*
X355880Y352880D01*
X356669Y352353D01*
X357600Y352167D01*
X358531Y352353D01*
X359320Y352880D01*
X359847Y353669D01*
X360033Y354600D01*
X359847Y355531D01*
X359320Y356320D01*
X358531Y356847D01*
X357600Y357033D01*
D02*
G37*
G36*
X116300D02*
X115369Y356847D01*
X114580Y356320D01*
X114053Y355531D01*
X113867Y354600D01*
X114053Y353669D01*
X114580Y352880D01*
X115369Y352353D01*
X116300Y352167D01*
X117231Y352353D01*
X118020Y352880D01*
X118547Y353669D01*
X118733Y354600D01*
X118547Y355531D01*
X118020Y356320D01*
X117231Y356847D01*
X116300Y357033D01*
D02*
G37*
G36*
X387600Y355433D02*
X386669Y355247D01*
X385880Y354720D01*
X385353Y353931D01*
X385167Y353000D01*
X385353Y352069D01*
X385880Y351280D01*
X386669Y350753D01*
X387600Y350567D01*
X388531Y350753D01*
X389320Y351280D01*
X389847Y352069D01*
X390033Y353000D01*
X389847Y353931D01*
X389320Y354720D01*
X388531Y355247D01*
X387600Y355433D01*
D02*
G37*
G36*
X402000Y348888D02*
X400825Y348733D01*
X399731Y348280D01*
X398791Y347558D01*
X398069Y346618D01*
X397616Y345524D01*
X397461Y344349D01*
X397616Y343174D01*
X398069Y342079D01*
X398791Y341139D01*
X399731Y340418D01*
X400825Y339965D01*
X402000Y339810D01*
X403175Y339965D01*
X404269Y340418D01*
X405209Y341139D01*
X405931Y342079D01*
X406384Y343174D01*
X406539Y344349D01*
X406384Y345524D01*
X405931Y346618D01*
X405209Y347558D01*
X404269Y348280D01*
X403175Y348733D01*
X402000Y348888D01*
D02*
G37*
G36*
X343100D02*
X341925Y348733D01*
X340831Y348280D01*
X339891Y347558D01*
X339169Y346618D01*
X338716Y345524D01*
X338561Y344349D01*
X338716Y343174D01*
X339169Y342079D01*
X339891Y341139D01*
X340831Y340418D01*
X341925Y339965D01*
X343100Y339810D01*
X344275Y339965D01*
X345369Y340418D01*
X346309Y341139D01*
X347031Y342079D01*
X347484Y343174D01*
X347639Y344349D01*
X347484Y345524D01*
X347031Y346618D01*
X346309Y347558D01*
X345369Y348280D01*
X344275Y348733D01*
X343100Y348888D01*
D02*
G37*
G36*
X116300Y340033D02*
X115369Y339847D01*
X114580Y339320D01*
X114053Y338531D01*
X113867Y337600D01*
X114053Y336669D01*
X114580Y335880D01*
X115369Y335353D01*
X116300Y335167D01*
X117231Y335353D01*
X118020Y335880D01*
X118547Y336669D01*
X118733Y337600D01*
X118547Y338531D01*
X118020Y339320D01*
X117231Y339847D01*
X116300Y340033D01*
D02*
G37*
G36*
X269000Y339033D02*
X268069Y338847D01*
X267280Y338320D01*
X266753Y337531D01*
X266567Y336600D01*
X266753Y335669D01*
X267280Y334880D01*
X268069Y334353D01*
X269000Y334167D01*
X269931Y334353D01*
X270720Y334880D01*
X271247Y335669D01*
X271433Y336600D01*
X271247Y337531D01*
X270720Y338320D01*
X269931Y338847D01*
X269000Y339033D01*
D02*
G37*
G36*
X402000Y338888D02*
X400825Y338733D01*
X399731Y338280D01*
X398791Y337558D01*
X398069Y336618D01*
X397616Y335524D01*
X397461Y334349D01*
X397616Y333174D01*
X398069Y332079D01*
X398791Y331139D01*
X399731Y330418D01*
X400825Y329965D01*
X402000Y329810D01*
X403175Y329965D01*
X404269Y330418D01*
X405209Y331139D01*
X405931Y332079D01*
X406384Y333174D01*
X406539Y334349D01*
X406384Y335524D01*
X405931Y336618D01*
X405209Y337558D01*
X404269Y338280D01*
X403175Y338733D01*
X402000Y338888D01*
D02*
G37*
G36*
X343100D02*
X341925Y338733D01*
X340831Y338280D01*
X339891Y337558D01*
X339169Y336618D01*
X338716Y335524D01*
X338561Y334349D01*
X338716Y333174D01*
X339169Y332079D01*
X339891Y331139D01*
X340831Y330418D01*
X341925Y329965D01*
X343100Y329810D01*
X344275Y329965D01*
X345369Y330418D01*
X346309Y331139D01*
X347031Y332079D01*
X347484Y333174D01*
X347639Y334349D01*
X347484Y335524D01*
X347031Y336618D01*
X346309Y337558D01*
X345369Y338280D01*
X344275Y338733D01*
X343100Y338888D01*
D02*
G37*
G36*
X402000Y328888D02*
X400825Y328733D01*
X399731Y328280D01*
X398791Y327558D01*
X398069Y326618D01*
X397616Y325524D01*
X397461Y324349D01*
X397616Y323174D01*
X398069Y322079D01*
X398791Y321139D01*
X399731Y320418D01*
X400825Y319965D01*
X402000Y319810D01*
X403175Y319965D01*
X404269Y320418D01*
X405209Y321139D01*
X405931Y322079D01*
X406384Y323174D01*
X406539Y324349D01*
X406384Y325524D01*
X405931Y326618D01*
X405209Y327558D01*
X404269Y328280D01*
X403175Y328733D01*
X402000Y328888D01*
D02*
G37*
G36*
X343100D02*
X341925Y328733D01*
X340831Y328280D01*
X339891Y327558D01*
X339169Y326618D01*
X338716Y325524D01*
X338561Y324349D01*
X338716Y323174D01*
X339169Y322079D01*
X339891Y321139D01*
X340831Y320418D01*
X341925Y319965D01*
X343100Y319810D01*
X344275Y319965D01*
X345369Y320418D01*
X346309Y321139D01*
X347031Y322079D01*
X347484Y323174D01*
X347639Y324349D01*
X347484Y325524D01*
X347031Y326618D01*
X346309Y327558D01*
X345369Y328280D01*
X344275Y328733D01*
X343100Y328888D01*
D02*
G37*
G36*
X387700Y320833D02*
X386769Y320647D01*
X385980Y320120D01*
X385453Y319331D01*
X385267Y318400D01*
X385453Y317469D01*
X385980Y316680D01*
X386769Y316153D01*
X387700Y315967D01*
X388631Y316153D01*
X389420Y316680D01*
X389947Y317469D01*
X390133Y318400D01*
X389947Y319331D01*
X389420Y320120D01*
X388631Y320647D01*
X387700Y320833D01*
D02*
G37*
G36*
X382600Y298933D02*
X381669Y298747D01*
X380880Y298220D01*
X380353Y297431D01*
X380167Y296500D01*
X380353Y295569D01*
X380880Y294780D01*
X381669Y294253D01*
X382600Y294067D01*
X383531Y294253D01*
X384320Y294780D01*
X384847Y295569D01*
X385033Y296500D01*
X384847Y297431D01*
X384320Y298220D01*
X383531Y298747D01*
X382600Y298933D01*
D02*
G37*
G36*
X336668Y279733D02*
X335738Y279547D01*
X334948Y279020D01*
X334421Y278231D01*
X334236Y277300D01*
X334421Y276369D01*
X334948Y275580D01*
X335738Y275053D01*
X336668Y274867D01*
X337599Y275053D01*
X338389Y275580D01*
X338916Y276369D01*
X339101Y277300D01*
X338916Y278231D01*
X338389Y279020D01*
X337599Y279547D01*
X336668Y279733D01*
D02*
G37*
G36*
X359469Y279533D02*
X358538Y279347D01*
X357748Y278820D01*
X357221Y278031D01*
X357036Y277100D01*
X357221Y276169D01*
X357748Y275380D01*
X358538Y274853D01*
X359469Y274667D01*
X360399Y274853D01*
X361189Y275380D01*
X361716Y276169D01*
X361901Y277100D01*
X361716Y278031D01*
X361189Y278820D01*
X360399Y279347D01*
X359469Y279533D01*
D02*
G37*
G36*
X340979Y273433D02*
X340048Y273247D01*
X339259Y272720D01*
X338732Y271931D01*
X338547Y271000D01*
X338732Y270069D01*
X339259Y269280D01*
X340048Y268753D01*
X340979Y268567D01*
X341910Y268753D01*
X342699Y269280D01*
X343227Y270069D01*
X343412Y271000D01*
X343227Y271931D01*
X342699Y272720D01*
X341910Y273247D01*
X340979Y273433D01*
D02*
G37*
G36*
X356682Y263333D02*
X355751Y263147D01*
X355141Y262740D01*
X354531Y263147D01*
X353600Y263333D01*
X352669Y263147D01*
X352050Y262734D01*
X351431Y263147D01*
X350500Y263333D01*
X349569Y263147D01*
X348897Y262698D01*
X348225Y263147D01*
X347294Y263333D01*
X346363Y263147D01*
X345574Y262620D01*
X345046Y261831D01*
X344861Y260900D01*
X345046Y259969D01*
X345574Y259180D01*
X346363Y258653D01*
X347294Y258467D01*
X348225Y258653D01*
X348897Y259102D01*
X349569Y258653D01*
X350500Y258467D01*
X351431Y258653D01*
X352050Y259066D01*
X352669Y258653D01*
X353600Y258467D01*
X354531Y258653D01*
X355141Y259060D01*
X355751Y258653D01*
X356682Y258467D01*
X357613Y258653D01*
X358402Y259180D01*
X358929Y259969D01*
X359114Y260900D01*
X358929Y261831D01*
X358402Y262620D01*
X357613Y263147D01*
X356682Y263333D01*
D02*
G37*
G36*
X338300Y262533D02*
X337369Y262347D01*
X336580Y261820D01*
X336053Y261031D01*
X335867Y260100D01*
X336053Y259169D01*
X336580Y258380D01*
X337369Y257853D01*
X338300Y257667D01*
X339231Y257853D01*
X340020Y258380D01*
X340547Y259169D01*
X340733Y260100D01*
X340547Y261031D01*
X340020Y261820D01*
X339231Y262347D01*
X338300Y262533D01*
D02*
G37*
G36*
X371069Y265833D02*
X370138Y265647D01*
X369348Y265120D01*
X368821Y264331D01*
X368636Y263400D01*
X368821Y262469D01*
X369348Y261680D01*
X369393Y261650D01*
Y261150D01*
X369348Y261120D01*
X368821Y260331D01*
X368636Y259400D01*
X368821Y258469D01*
X369348Y257680D01*
X369393Y257650D01*
Y257150D01*
X369348Y257120D01*
X368821Y256331D01*
X368636Y255400D01*
X368821Y254469D01*
X369348Y253680D01*
X370138Y253153D01*
X371069Y252967D01*
X371999Y253153D01*
X372789Y253680D01*
X373316Y254469D01*
X373501Y255400D01*
X373316Y256331D01*
X372789Y257120D01*
X372744Y257150D01*
Y257650D01*
X372789Y257680D01*
X373316Y258469D01*
X373501Y259400D01*
X373316Y260331D01*
X372789Y261120D01*
X372744Y261150D01*
Y261650D01*
X372789Y261680D01*
X373316Y262469D01*
X373501Y263400D01*
X373316Y264331D01*
X372789Y265120D01*
X371999Y265647D01*
X371069Y265833D01*
D02*
G37*
G36*
X355900Y250433D02*
X354969Y250247D01*
X354180Y249720D01*
X353653Y248931D01*
X353467Y248000D01*
X353653Y247069D01*
X354180Y246280D01*
X354969Y245753D01*
X355900Y245567D01*
X356831Y245753D01*
X357620Y246280D01*
X358147Y247069D01*
X358333Y248000D01*
X358147Y248931D01*
X357620Y249720D01*
X356831Y250247D01*
X355900Y250433D01*
D02*
G37*
G36*
X324300D02*
X323369Y250247D01*
X322580Y249720D01*
X322053Y248931D01*
X321867Y248000D01*
X322053Y247069D01*
X322580Y246280D01*
X323369Y245753D01*
X324300Y245567D01*
X325231Y245753D01*
X326020Y246280D01*
X326547Y247069D01*
X326733Y248000D01*
X326547Y248931D01*
X326020Y249720D01*
X325231Y250247D01*
X324300Y250433D01*
D02*
G37*
G36*
X288000Y249333D02*
X287031Y249140D01*
X286209Y248591D01*
X285660Y247769D01*
X285467Y246800D01*
X285660Y245831D01*
X286209Y245009D01*
X287031Y244460D01*
X288000Y244267D01*
X288969Y244460D01*
X289791Y245009D01*
X290340Y245831D01*
X290533Y246800D01*
X290340Y247769D01*
X289791Y248591D01*
X288969Y249140D01*
X288000Y249333D01*
D02*
G37*
G36*
X327200Y241033D02*
X326269Y240847D01*
X325480Y240320D01*
X324953Y239531D01*
X324767Y238600D01*
X324953Y237669D01*
X325480Y236880D01*
X326269Y236353D01*
X327200Y236167D01*
X328131Y236353D01*
X328920Y236880D01*
X329447Y237669D01*
X329633Y238600D01*
X329447Y239531D01*
X328920Y240320D01*
X328131Y240847D01*
X327200Y241033D01*
D02*
G37*
G36*
X287800Y236733D02*
X286831Y236540D01*
X286009Y235991D01*
X285460Y235169D01*
X285267Y234200D01*
X285460Y233231D01*
X286009Y232409D01*
X286831Y231860D01*
X287800Y231667D01*
X288769Y231860D01*
X289591Y232409D01*
X290140Y233231D01*
X290333Y234200D01*
X290140Y235169D01*
X289591Y235991D01*
X288769Y236540D01*
X287800Y236733D01*
D02*
G37*
G36*
X373269Y235933D02*
X372299Y235740D01*
X371478Y235191D01*
X370928Y234369D01*
X370736Y233400D01*
X370928Y232431D01*
X371478Y231609D01*
X372299Y231060D01*
X373269Y230867D01*
X374238Y231060D01*
X375060Y231609D01*
X375609Y232431D01*
X375801Y233400D01*
X375609Y234369D01*
X375060Y235191D01*
X374238Y235740D01*
X373269Y235933D01*
D02*
G37*
G36*
X350500Y230433D02*
X349569Y230247D01*
X348780Y229720D01*
X348253Y228931D01*
X348067Y228000D01*
X348253Y227069D01*
X348780Y226280D01*
X349569Y225753D01*
X350500Y225567D01*
X351431Y225753D01*
X352220Y226280D01*
X352747Y227069D01*
X352933Y228000D01*
X352747Y228931D01*
X352220Y229720D01*
X351431Y230247D01*
X350500Y230433D01*
D02*
G37*
G36*
X308351Y226606D02*
X307420Y226421D01*
X306630Y225894D01*
X306103Y225105D01*
X305918Y224174D01*
X306103Y223243D01*
X306630Y222454D01*
X307420Y221926D01*
X308351Y221741D01*
X309281Y221926D01*
X310071Y222454D01*
X310598Y223243D01*
X310783Y224174D01*
X310598Y225105D01*
X310071Y225894D01*
X309281Y226421D01*
X308351Y226606D01*
D02*
G37*
G36*
X407799Y202459D02*
X406830Y202266D01*
X406008Y201717D01*
X405459Y200895D01*
X405266Y199926D01*
X405459Y198957D01*
X406008Y198135D01*
X406830Y197586D01*
X407799Y197393D01*
X408769Y197586D01*
X409590Y198135D01*
X410139Y198957D01*
X410332Y199926D01*
X410139Y200895D01*
X409590Y201717D01*
X408769Y202266D01*
X407799Y202459D01*
D02*
G37*
G36*
X344800Y190443D02*
X343495Y190271D01*
X342279Y189768D01*
X341234Y188966D01*
X340433Y187922D01*
X340071Y187048D01*
X339529D01*
X339167Y187922D01*
X338366Y188966D01*
X337322Y189768D01*
X336105Y190271D01*
X334800Y190443D01*
X333495Y190271D01*
X332278Y189768D01*
X331234Y188966D01*
X330433Y187922D01*
X330071Y187048D01*
X329529D01*
X329168Y187922D01*
X328366Y188966D01*
X327322Y189768D01*
X326105Y190271D01*
X324800Y190443D01*
X323495Y190271D01*
X322278Y189768D01*
X321234Y188966D01*
X320432Y187922D01*
X319929Y186705D01*
X319757Y185400D01*
X319929Y184095D01*
X320432Y182878D01*
X321234Y181834D01*
X322278Y181033D01*
X323152Y180671D01*
Y180129D01*
X322278Y179768D01*
X321234Y178966D01*
X320432Y177922D01*
X320300Y177602D01*
X319800Y177701D01*
Y180400D01*
X309800D01*
Y170400D01*
X319800D01*
Y173099D01*
X320300Y173198D01*
X320432Y172878D01*
X321234Y171834D01*
X322278Y171033D01*
X323495Y170529D01*
X324800Y170357D01*
X326105Y170529D01*
X327322Y171033D01*
X328366Y171834D01*
X329168Y172878D01*
X329671Y174095D01*
X329843Y175400D01*
X329671Y176705D01*
X329168Y177922D01*
X328366Y178966D01*
X327322Y179768D01*
X326448Y180129D01*
Y180671D01*
X327322Y181033D01*
X328366Y181834D01*
X329168Y182878D01*
X329529Y183752D01*
X330071D01*
X330433Y182878D01*
X331234Y181834D01*
X332278Y181033D01*
X333495Y180529D01*
X334800Y180357D01*
X336105Y180529D01*
X337322Y181033D01*
X338366Y181834D01*
X339167Y182878D01*
X339529Y183752D01*
X340071D01*
X340433Y182878D01*
X341234Y181834D01*
X342279Y181033D01*
X343152Y180671D01*
Y180129D01*
X342278Y179768D01*
X341234Y178966D01*
X340433Y177922D01*
X339929Y176705D01*
X339757Y175400D01*
X339929Y174095D01*
X340433Y172879D01*
X341234Y171834D01*
X342278Y171033D01*
X343495Y170529D01*
X344800Y170357D01*
X346105Y170529D01*
X347322Y171033D01*
X348366Y171834D01*
X349167Y172879D01*
X349529Y173752D01*
X350071D01*
X350432Y172879D01*
X351234Y171834D01*
X352278Y171033D01*
X353495Y170529D01*
X354800Y170357D01*
X356105Y170529D01*
X357322Y171033D01*
X358366Y171834D01*
X359168Y172879D01*
X359671Y174095D01*
X359843Y175400D01*
X359671Y176705D01*
X359168Y177922D01*
X358366Y178966D01*
X357322Y179768D01*
X356105Y180271D01*
X354800Y180443D01*
X353495Y180271D01*
X352278Y179768D01*
X351234Y178966D01*
X350432Y177922D01*
X350071Y177048D01*
X349529D01*
X349167Y177922D01*
X348366Y178966D01*
X347322Y179768D01*
X346448Y180129D01*
Y180671D01*
X347322Y181033D01*
X348366Y181834D01*
X349167Y182878D01*
X349671Y184095D01*
X349843Y185400D01*
X349671Y186705D01*
X349167Y187922D01*
X348366Y188966D01*
X347322Y189768D01*
X346105Y190271D01*
X344800Y190443D01*
D02*
G37*
G36*
X355000Y189307D02*
Y185600D01*
X358707D01*
X358600Y186418D01*
X358207Y187367D01*
X357581Y188182D01*
X356767Y188807D01*
X355818Y189200D01*
X355000Y189307D01*
D02*
G37*
G36*
X354600D02*
X353782Y189200D01*
X352833Y188807D01*
X352018Y188182D01*
X351393Y187367D01*
X351000Y186418D01*
X350893Y185600D01*
X354600D01*
Y189307D01*
D02*
G37*
G36*
X318700Y189300D02*
X315000D01*
Y185600D01*
X318700D01*
Y189300D01*
D02*
G37*
G36*
X314600D02*
X310900D01*
Y185600D01*
X314600D01*
Y189300D01*
D02*
G37*
G36*
X375800Y193433D02*
X374869Y193247D01*
X374080Y192720D01*
X373553Y191931D01*
X373367Y191000D01*
X373553Y190069D01*
X374080Y189280D01*
X374869Y188753D01*
X375160Y188695D01*
Y188185D01*
X374469Y188047D01*
X373680Y187520D01*
X373153Y186731D01*
X372967Y185800D01*
X373153Y184869D01*
X373680Y184080D01*
X374469Y183553D01*
X375400Y183367D01*
X376331Y183553D01*
X377120Y184080D01*
X377647Y184869D01*
X377833Y185800D01*
X377647Y186731D01*
X377120Y187520D01*
X376331Y188047D01*
X376040Y188105D01*
Y188615D01*
X376731Y188753D01*
X377520Y189280D01*
X378047Y190069D01*
X378233Y191000D01*
X378047Y191931D01*
X377520Y192720D01*
X376731Y193247D01*
X375800Y193433D01*
D02*
G37*
G36*
X318700Y185200D02*
X315000D01*
Y181500D01*
X318700D01*
Y185200D01*
D02*
G37*
G36*
X314600D02*
X310900D01*
Y181500D01*
X314600D01*
Y185200D01*
D02*
G37*
G36*
X358707Y185200D02*
X355000D01*
Y181493D01*
X355818Y181600D01*
X356767Y181993D01*
X357581Y182619D01*
X358207Y183433D01*
X358600Y184382D01*
X358707Y185200D01*
D02*
G37*
G36*
X354600D02*
X350893D01*
X351000Y184382D01*
X351393Y183433D01*
X352018Y182619D01*
X352833Y181993D01*
X353782Y181600D01*
X354600Y181493D01*
Y185200D01*
D02*
G37*
G36*
X335000Y179307D02*
Y175600D01*
X338707D01*
X338600Y176418D01*
X338207Y177367D01*
X337581Y178182D01*
X336767Y178807D01*
X335818Y179200D01*
X335000Y179307D01*
D02*
G37*
G36*
X334600D02*
X333782Y179200D01*
X332833Y178807D01*
X332018Y178182D01*
X331393Y177367D01*
X331000Y176418D01*
X330893Y175600D01*
X334600D01*
Y179307D01*
D02*
G37*
G36*
X396900Y183433D02*
X395969Y183247D01*
X395180Y182720D01*
X394653Y181931D01*
X394467Y181000D01*
X394653Y180069D01*
X395180Y179280D01*
X395598Y179001D01*
Y178399D01*
X395180Y178120D01*
X394653Y177331D01*
X394467Y176400D01*
X394653Y175469D01*
X395180Y174680D01*
X395969Y174153D01*
X396900Y173967D01*
X397831Y174153D01*
X398620Y174680D01*
X399147Y175469D01*
X399333Y176400D01*
X399147Y177331D01*
X398620Y178120D01*
X398202Y178399D01*
Y179001D01*
X398620Y179280D01*
X399147Y180069D01*
X399333Y181000D01*
X399147Y181931D01*
X398620Y182720D01*
X397831Y183247D01*
X396900Y183433D01*
D02*
G37*
G36*
X338707Y175200D02*
X335000D01*
Y171493D01*
X335818Y171600D01*
X336767Y171993D01*
X337581Y172618D01*
X338207Y173433D01*
X338600Y174382D01*
X338707Y175200D01*
D02*
G37*
G36*
X334600D02*
X330893D01*
X331000Y174382D01*
X331393Y173433D01*
X332018Y172618D01*
X332833Y171993D01*
X333782Y171600D01*
X334600Y171493D01*
Y175200D01*
D02*
G37*
G36*
X370400Y174733D02*
X369469Y174547D01*
X368680Y174020D01*
X368153Y173231D01*
X367967Y172300D01*
X368153Y171369D01*
X368680Y170580D01*
X369469Y170053D01*
X370400Y169867D01*
X371331Y170053D01*
X372120Y170580D01*
X372647Y171369D01*
X372833Y172300D01*
X372647Y173231D01*
X372120Y174020D01*
X371331Y174547D01*
X370400Y174733D01*
D02*
G37*
G36*
X144800Y275432D02*
X143568Y275270D01*
X142420Y274794D01*
X141435Y274038D01*
X140678Y273052D01*
X140203Y271904D01*
X140041Y270672D01*
X140203Y269441D01*
X140678Y268293D01*
X141435Y267307D01*
X142420Y266551D01*
X143568Y266075D01*
X144800Y265913D01*
X146032Y266075D01*
X147180Y266551D01*
X148165Y267307D01*
X148922Y268293D01*
X149397Y269441D01*
X149559Y270672D01*
X149397Y271904D01*
X148922Y273052D01*
X148165Y274038D01*
X147180Y274794D01*
X146032Y275270D01*
X144800Y275432D01*
D02*
G37*
G36*
X134800Y269959D02*
X133568Y269797D01*
X132420Y269322D01*
X131435Y268565D01*
X130678Y267580D01*
X130203Y266432D01*
X130041Y265200D01*
X130203Y263968D01*
X130678Y262820D01*
X131435Y261835D01*
X132420Y261078D01*
X133568Y260603D01*
X134800Y260441D01*
X136032Y260603D01*
X137180Y261078D01*
X138165Y261835D01*
X138922Y262820D01*
X139397Y263968D01*
X139559Y265200D01*
X139397Y266432D01*
X138922Y267580D01*
X138165Y268565D01*
X137180Y269322D01*
X136032Y269797D01*
X134800Y269959D01*
D02*
G37*
G36*
X144800Y264526D02*
X143568Y264364D01*
X142420Y263889D01*
X141435Y263132D01*
X140678Y262146D01*
X140203Y260999D01*
X140041Y259767D01*
X140203Y258535D01*
X140678Y257387D01*
X141435Y256402D01*
X142420Y255645D01*
X143568Y255170D01*
X144800Y255008D01*
X146032Y255170D01*
X147180Y255645D01*
X148165Y256402D01*
X148922Y257387D01*
X149397Y258535D01*
X149559Y259767D01*
X149397Y260999D01*
X148922Y262146D01*
X148165Y263132D01*
X147180Y263889D01*
X146032Y264364D01*
X144800Y264526D01*
D02*
G37*
G36*
X235300Y256633D02*
X234369Y256447D01*
X233580Y255920D01*
X233053Y255131D01*
X232867Y254200D01*
X233053Y253269D01*
X233580Y252480D01*
X234369Y251953D01*
X235300Y251767D01*
X236231Y251953D01*
X237020Y252480D01*
X237547Y253269D01*
X237733Y254200D01*
X237547Y255131D01*
X237020Y255920D01*
X236231Y256447D01*
X235300Y256633D01*
D02*
G37*
G36*
X134800Y259054D02*
X133568Y258892D01*
X132420Y258416D01*
X131435Y257660D01*
X130678Y256674D01*
X130203Y255526D01*
X130041Y254294D01*
X130203Y253063D01*
X130678Y251915D01*
X131435Y250929D01*
X132420Y250173D01*
X133568Y249697D01*
X134800Y249535D01*
X136032Y249697D01*
X137180Y250173D01*
X138165Y250929D01*
X138922Y251915D01*
X139397Y253063D01*
X139559Y254294D01*
X139397Y255526D01*
X138922Y256674D01*
X138165Y257660D01*
X137180Y258416D01*
X136032Y258892D01*
X134800Y259054D01*
D02*
G37*
G36*
X174300Y250243D02*
X172995Y250071D01*
X171778Y249568D01*
X170734Y248766D01*
X169932Y247722D01*
X169571Y246848D01*
X169029D01*
X168667Y247722D01*
X167866Y248766D01*
X166822Y249568D01*
X165605Y250071D01*
X164300Y250243D01*
X162995Y250071D01*
X161778Y249568D01*
X160734Y248766D01*
X159932Y247722D01*
X159429Y246505D01*
X159257Y245200D01*
X159429Y243895D01*
X159932Y242678D01*
X160734Y241634D01*
X161778Y240832D01*
X162995Y240329D01*
X164300Y240157D01*
X165605Y240329D01*
X166822Y240832D01*
X167866Y241634D01*
X168667Y242678D01*
X169029Y243552D01*
X169571D01*
X169932Y242678D01*
X170734Y241634D01*
X171778Y240832D01*
X172995Y240329D01*
X174300Y240157D01*
X175605Y240329D01*
X176822Y240832D01*
X177866Y241634D01*
X178667Y242678D01*
X179171Y243895D01*
X179343Y245200D01*
X179171Y246505D01*
X178667Y247722D01*
X177866Y248766D01*
X176822Y249568D01*
X175605Y250071D01*
X174300Y250243D01*
D02*
G37*
G36*
X212100Y251733D02*
X211131Y251540D01*
X210309Y250991D01*
X209760Y250169D01*
X209567Y249200D01*
X209760Y248231D01*
X210309Y247409D01*
X211131Y246860D01*
X212100Y246667D01*
X213069Y246860D01*
X213891Y247409D01*
X214440Y248231D01*
X214633Y249200D01*
X214440Y250169D01*
X213891Y250991D01*
X213069Y251540D01*
X212100Y251733D01*
D02*
G37*
G36*
X200300Y246633D02*
X199369Y246447D01*
X198580Y245920D01*
X198053Y245131D01*
X197867Y244200D01*
X198053Y243269D01*
X198580Y242480D01*
X199369Y241953D01*
X200300Y241767D01*
X201231Y241953D01*
X202020Y242480D01*
X202547Y243269D01*
X202733Y244200D01*
X202547Y245131D01*
X202020Y245920D01*
X201231Y246447D01*
X200300Y246633D01*
D02*
G37*
G36*
X134800Y248188D02*
X133568Y248025D01*
X132420Y247550D01*
X131435Y246794D01*
X130678Y245808D01*
X130203Y244660D01*
X130041Y243428D01*
X130203Y242197D01*
X130678Y241049D01*
X131435Y240063D01*
X132420Y239307D01*
X133568Y238831D01*
X134800Y238669D01*
X136032Y238831D01*
X137180Y239307D01*
X138165Y240063D01*
X138922Y241049D01*
X139397Y242197D01*
X139559Y243428D01*
X139397Y244660D01*
X138922Y245808D01*
X138165Y246794D01*
X137180Y247550D01*
X136032Y248025D01*
X134800Y248188D01*
D02*
G37*
G36*
X234300Y239633D02*
X233369Y239447D01*
X232580Y238920D01*
X232053Y238131D01*
X231867Y237200D01*
X232053Y236269D01*
X232580Y235480D01*
X233369Y234953D01*
X234300Y234767D01*
X235231Y234953D01*
X236020Y235480D01*
X236547Y236269D01*
X236733Y237200D01*
X236547Y238131D01*
X236020Y238920D01*
X235231Y239447D01*
X234300Y239633D01*
D02*
G37*
G36*
X144800Y242715D02*
X143568Y242553D01*
X142420Y242077D01*
X141435Y241321D01*
X140678Y240335D01*
X140203Y239188D01*
X140041Y237956D01*
X140203Y236724D01*
X140678Y235576D01*
X141435Y234591D01*
X142420Y233834D01*
X143568Y233359D01*
X144800Y233197D01*
X146032Y233359D01*
X147180Y233834D01*
X148165Y234591D01*
X148922Y235576D01*
X149397Y236724D01*
X149559Y237956D01*
X149397Y239188D01*
X148922Y240335D01*
X148165Y241321D01*
X147180Y242077D01*
X146032Y242553D01*
X144800Y242715D01*
D02*
G37*
G36*
Y231810D02*
X143568Y231647D01*
X142420Y231172D01*
X141435Y230416D01*
X140678Y229430D01*
X140203Y228282D01*
X140041Y227050D01*
X140203Y225819D01*
X140678Y224671D01*
X141435Y223685D01*
X142420Y222929D01*
X143568Y222453D01*
X144800Y222291D01*
X146032Y222453D01*
X147180Y222929D01*
X148165Y223685D01*
X148922Y224671D01*
X149397Y225819D01*
X149559Y227050D01*
X149397Y228282D01*
X148922Y229430D01*
X148165Y230416D01*
X147180Y231172D01*
X146032Y231647D01*
X144800Y231810D01*
D02*
G37*
G36*
X200300Y225633D02*
X199369Y225447D01*
X198580Y224920D01*
X198053Y224131D01*
X197867Y223200D01*
X198053Y222269D01*
X198580Y221480D01*
X199369Y220953D01*
X200300Y220767D01*
X201231Y220953D01*
X202020Y221480D01*
X202547Y222269D01*
X202733Y223200D01*
X202547Y224131D01*
X202020Y224920D01*
X201231Y225447D01*
X200300Y225633D01*
D02*
G37*
G36*
X174300Y223243D02*
X172995Y223071D01*
X171778Y222568D01*
X170734Y221766D01*
X169932Y220722D01*
X169571Y219848D01*
X169029D01*
X168667Y220722D01*
X167866Y221766D01*
X166822Y222568D01*
X165605Y223071D01*
X164300Y223243D01*
X162995Y223071D01*
X161778Y222568D01*
X160734Y221766D01*
X159932Y220722D01*
X159429Y219505D01*
X159257Y218200D01*
X159429Y216895D01*
X159932Y215678D01*
X160734Y214634D01*
X161778Y213832D01*
X162995Y213329D01*
X164300Y213157D01*
X165605Y213329D01*
X166822Y213832D01*
X167866Y214634D01*
X168667Y215678D01*
X169029Y216552D01*
X169571D01*
X169932Y215678D01*
X170734Y214634D01*
X171778Y213832D01*
X172995Y213329D01*
X174300Y213157D01*
X175605Y213329D01*
X176822Y213832D01*
X177866Y214634D01*
X178667Y215678D01*
X179171Y216895D01*
X179343Y218200D01*
X179171Y219505D01*
X178667Y220722D01*
X177866Y221766D01*
X176822Y222568D01*
X175605Y223071D01*
X174300Y223243D01*
D02*
G37*
G36*
X239500Y216733D02*
X238531Y216540D01*
X237709Y215991D01*
X237160Y215169D01*
X236967Y214200D01*
X237160Y213231D01*
X237709Y212409D01*
X238531Y211860D01*
X239500Y211667D01*
X240469Y211860D01*
X241291Y212409D01*
X241840Y213231D01*
X242033Y214200D01*
X241840Y215169D01*
X241291Y215991D01*
X240469Y216540D01*
X239500Y216733D01*
D02*
G37*
%LPD*%
D88*
X130000Y490500D02*
D03*
D89*
X354800Y185400D02*
D03*
X334800Y175400D02*
D03*
D90*
X314800Y185400D02*
D03*
D91*
X118524Y445318D02*
D03*
D94*
X144800Y248861D02*
D03*
X134800Y232523D02*
D03*
D95*
X347000Y203000D02*
D03*
Y213000D02*
D03*
Y223000D02*
D03*
X239500Y229200D02*
D03*
X395600Y262300D02*
D03*
X381100Y217600D02*
D03*
X313000Y413900D02*
D03*
X270600Y420600D02*
D03*
X253700Y412500D02*
D03*
X217900Y218200D02*
D03*
X239500Y219200D02*
D03*
X375500Y176000D02*
D03*
X390100Y207900D02*
D03*
X390150Y199968D02*
D03*
X418000Y463700D02*
D03*
Y380700D02*
D03*
X417970Y297902D02*
D03*
X418000Y214900D02*
D03*
X337769Y271000D02*
D03*
X361169Y296400D02*
D03*
X358368Y238500D02*
D03*
X246000Y388400D02*
D03*
X267900Y392000D02*
D03*
X302500Y417500D02*
D03*
X340469Y296200D02*
D03*
X375569Y296400D02*
D03*
X161600Y348700D02*
D03*
X161700Y369800D02*
D03*
X161800Y390000D02*
D03*
X161700Y411100D02*
D03*
X367800Y394500D02*
D03*
X379900Y395100D02*
D03*
D96*
X270900Y408000D02*
D03*
X212100Y241200D02*
D03*
X239500Y209000D02*
D03*
X264500Y429000D02*
D03*
Y437000D02*
D03*
Y445000D02*
D03*
X273000Y467500D02*
D03*
X263000D02*
D03*
X288000Y254200D02*
D03*
X287900Y239200D02*
D03*
X291600Y214100D02*
D03*
X365268Y209600D02*
D03*
X372600Y352400D02*
D03*
X259531Y418437D02*
D03*
X263469D02*
D03*
X259531Y414500D02*
D03*
X263469D02*
D03*
X259531Y410563D02*
D03*
X263469D02*
D03*
D97*
X307200Y484700D02*
D03*
X307277Y456323D02*
D03*
X327600Y476000D02*
D03*
M02*
