G04*
G04 #@! TF.GenerationSoftware,Altium Limited,Altium Designer,20.0.10 (225)*
G04*
G04 Layer_Color=65535*
%FSLAX25Y25*%
%MOIN*%
G70*
G01*
G75*
%ADD10C,0.00400*%
%ADD11C,0.00984*%
%ADD12C,0.02362*%
%ADD13C,0.00787*%
%ADD14C,0.01181*%
%ADD15C,0.00394*%
%ADD16C,0.00600*%
%ADD17C,0.00799*%
%ADD18C,0.00800*%
%ADD19C,0.00500*%
%ADD20C,0.00900*%
%ADD21C,0.01000*%
D10*
X131532Y466813D02*
X130618Y467119D01*
X129677Y466910D01*
X128978Y466247D01*
X128721Y465318D01*
X128978Y464390D01*
X129677Y463726D01*
X130618Y463518D01*
X131532Y463824D01*
X131532Y446813D02*
X130618Y447118D01*
X129677Y446910D01*
X128978Y446247D01*
X128721Y445318D01*
X128978Y444390D01*
X129677Y443726D01*
X130618Y443518D01*
X131532Y443823D01*
X577209Y187187D02*
X578123Y186881D01*
X579063Y187090D01*
X579762Y187753D01*
X580020Y188682D01*
X579762Y189610D01*
X579063Y190274D01*
X578123Y190482D01*
X577209Y190176D01*
X577209Y207187D02*
X578123Y206882D01*
X579063Y207090D01*
X579762Y207753D01*
X580020Y208682D01*
X579762Y209610D01*
X579063Y210274D01*
X578123Y210482D01*
X577209Y210176D01*
X577209Y270087D02*
X578123Y269781D01*
X579063Y269990D01*
X579762Y270653D01*
X580020Y271582D01*
X579762Y272510D01*
X579063Y273174D01*
X578123Y273382D01*
X577209Y273077D01*
X577209Y290087D02*
X578123Y289782D01*
X579063Y289990D01*
X579762Y290653D01*
X580020Y291582D01*
X579762Y292510D01*
X579063Y293174D01*
X578123Y293382D01*
X577209Y293076D01*
X577209Y352987D02*
X578123Y352681D01*
X579063Y352890D01*
X579762Y353553D01*
X580020Y354482D01*
X579762Y355410D01*
X579063Y356074D01*
X578123Y356282D01*
X577209Y355977D01*
X577209Y372987D02*
X578123Y372682D01*
X579063Y372890D01*
X579762Y373553D01*
X580020Y374482D01*
X579762Y375410D01*
X579063Y376074D01*
X578123Y376282D01*
X577209Y375976D01*
X577209Y435887D02*
X578123Y435581D01*
X579063Y435790D01*
X579762Y436453D01*
X580020Y437382D01*
X579762Y438310D01*
X579063Y438974D01*
X578123Y439182D01*
X577209Y438876D01*
X577209Y455887D02*
X578123Y455582D01*
X579063Y455790D01*
X579762Y456453D01*
X580020Y457382D01*
X579762Y458310D01*
X579063Y458974D01*
X578123Y459182D01*
X577209Y458877D01*
X398500Y347849D02*
X398310Y348805D01*
X397768Y349617D01*
X396957Y350159D01*
X396000Y350349D01*
X395043Y350159D01*
X394232Y349617D01*
X393690Y348805D01*
X393500Y347849D01*
X393690Y346892D01*
X394232Y346081D01*
X395043Y345539D01*
X396000Y345349D01*
X396957Y345539D01*
X397768Y346081D01*
X398310Y346892D01*
X398500Y347849D01*
X339600D02*
X339410Y348805D01*
X338868Y349617D01*
X338057Y350159D01*
X337100Y350349D01*
X336143Y350159D01*
X335332Y349617D01*
X334790Y348805D01*
X334600Y347849D01*
X334790Y346892D01*
X335332Y346081D01*
X336143Y345539D01*
X337100Y345349D01*
X338057Y345539D01*
X338868Y346081D01*
X339410Y346892D01*
X339600Y347849D01*
X351600Y392149D02*
X351410Y393106D01*
X350868Y393917D01*
X350057Y394459D01*
X349100Y394649D01*
X348143Y394459D01*
X347332Y393917D01*
X346790Y393106D01*
X346600Y392149D01*
X346790Y391192D01*
X347332Y390381D01*
X348143Y389839D01*
X349100Y389649D01*
X350057Y389839D01*
X350868Y390381D01*
X351410Y391192D01*
X351600Y392149D01*
X410500D02*
X410310Y393106D01*
X409768Y393917D01*
X408957Y394459D01*
X408000Y394649D01*
X407043Y394459D01*
X406232Y393917D01*
X405690Y393106D01*
X405500Y392149D01*
X405690Y391192D01*
X406232Y390381D01*
X407043Y389839D01*
X408000Y389649D01*
X408957Y389839D01*
X409768Y390381D01*
X410310Y391192D01*
X410500Y392149D01*
X109595Y474843D02*
X112594D01*
X114563D02*
X129063D01*
X109595Y435472D02*
X112594D01*
X113842D02*
X128342D01*
X114563Y474843D02*
Y475843D01*
X112594Y474843D02*
X115094D01*
X112594D02*
Y475843D01*
X108658Y435472D02*
Y474843D01*
X128342Y435472D02*
Y474843D01*
X124406Y435472D02*
X128342Y439409D01*
X104720Y435472D02*
X110626D01*
X104720D02*
Y474843D01*
X109221D01*
X128342D02*
X132343D01*
X132280Y435472D02*
Y474843D01*
X128342Y435472D02*
X132343D01*
X128524Y467318D02*
X131524D01*
Y466818D02*
Y467318D01*
X128524Y462818D02*
X131524D01*
Y463818D01*
Y446818D02*
Y447318D01*
X128524D02*
X131524D01*
Y443318D02*
Y443818D01*
X128524Y443318D02*
X131524D01*
X128524D02*
Y447318D01*
Y462818D02*
Y467318D01*
X596146Y179157D02*
X599146D01*
X579677D02*
X594177D01*
X596146Y218528D02*
X599146D01*
X580398D02*
X594898D01*
X594177Y178157D02*
Y179157D01*
X593646D02*
X596146D01*
Y178157D02*
Y179157D01*
X600083D02*
Y218528D01*
X580398Y179157D02*
Y218528D01*
Y214591D02*
X584335Y218528D01*
X598115D02*
X604020D01*
Y179157D02*
Y218528D01*
X599520Y179157D02*
X604020D01*
X576398D02*
X580398D01*
X576461D02*
Y218528D01*
X576398D02*
X580398D01*
X577217Y186682D02*
X580217D01*
X577217D02*
Y187182D01*
Y191182D02*
X580217D01*
X577217Y190182D02*
Y191182D01*
Y206682D02*
Y207182D01*
Y206682D02*
X580217D01*
X577217Y210182D02*
Y210682D01*
X580217D01*
Y206682D02*
Y210682D01*
Y186682D02*
Y191182D01*
X596146Y262057D02*
X599146D01*
X579677D02*
X594177D01*
X596146Y301428D02*
X599146D01*
X580398D02*
X594898D01*
X594177Y261057D02*
Y262057D01*
X593646D02*
X596146D01*
Y261057D02*
Y262057D01*
X600083D02*
Y301428D01*
X580398Y262057D02*
Y301428D01*
Y297491D02*
X584335Y301428D01*
X598115D02*
X604020D01*
Y262057D02*
Y301428D01*
X599520Y262057D02*
X604020D01*
X576398D02*
X580398D01*
X576461D02*
Y301428D01*
X576398D02*
X580398D01*
X577217Y269582D02*
X580217D01*
X577217D02*
Y270082D01*
Y274082D02*
X580217D01*
X577217Y273082D02*
Y274082D01*
Y289582D02*
Y290082D01*
Y289582D02*
X580217D01*
X577217Y293082D02*
Y293582D01*
X580217D01*
Y289582D02*
Y293582D01*
Y269582D02*
Y274082D01*
X596146Y344957D02*
X599146D01*
X579677D02*
X594177D01*
X596146Y384328D02*
X599146D01*
X580398D02*
X594898D01*
X594177Y343957D02*
Y344957D01*
X593646D02*
X596146D01*
Y343957D02*
Y344957D01*
X600083D02*
Y384328D01*
X580398Y344957D02*
Y384328D01*
Y380391D02*
X584335Y384328D01*
X598115D02*
X604020D01*
Y344957D02*
Y384328D01*
X599520Y344957D02*
X604020D01*
X576398D02*
X580398D01*
X576461D02*
Y384328D01*
X576398D02*
X580398D01*
X577217Y352482D02*
X580217D01*
X577217D02*
Y352982D01*
Y356982D02*
X580217D01*
X577217Y355982D02*
Y356982D01*
Y372482D02*
Y372982D01*
Y372482D02*
X580217D01*
X577217Y375982D02*
Y376482D01*
X580217D01*
Y372482D02*
Y376482D01*
Y352482D02*
Y356982D01*
X596146Y427857D02*
X599146D01*
X579677D02*
X594177D01*
X596146Y467228D02*
X599146D01*
X580398D02*
X594898D01*
X594177Y426858D02*
Y427857D01*
X593646D02*
X596146D01*
Y426858D02*
Y427857D01*
X600083D02*
Y467228D01*
X580398Y427857D02*
Y467228D01*
Y463291D02*
X584335Y467228D01*
X598115D02*
X604020D01*
Y427857D02*
Y467228D01*
X599520Y427857D02*
X604020D01*
X576398D02*
X580398D01*
X576461D02*
Y467228D01*
X576398D02*
X580398D01*
X577217Y435382D02*
X580217D01*
X577217D02*
Y435882D01*
Y439882D02*
X580217D01*
X577217Y438882D02*
Y439882D01*
Y455382D02*
Y455882D01*
Y455382D02*
X580217D01*
X577217Y458882D02*
Y459382D01*
X580217D01*
Y455382D02*
Y459382D01*
Y435382D02*
Y439882D01*
X517800Y218640D02*
Y232540D01*
X505100D02*
X517800D01*
X505100Y218640D02*
X517800D01*
X505100D02*
Y232540D01*
X517800Y301540D02*
Y315441D01*
X505100D02*
X517800D01*
X505100Y301540D02*
X517800D01*
X505100D02*
Y315441D01*
X517800Y384440D02*
Y398341D01*
X505100D02*
X517800D01*
X505100Y384440D02*
X517800D01*
X505100D02*
Y398341D01*
X517800Y467341D02*
Y481241D01*
X505100D02*
X517800D01*
X505100Y467341D02*
X517800D01*
X505100D02*
Y481241D01*
X175300Y375300D02*
Y389200D01*
X162600D02*
X175300D01*
X162600Y375300D02*
X175300D01*
X162600D02*
Y389200D01*
X175300Y354800D02*
Y368700D01*
X162600D02*
X175300D01*
X162600Y354800D02*
X175300D01*
X162600D02*
Y368700D01*
X175300Y333800D02*
Y347700D01*
X162600D02*
X175300D01*
X162600Y333800D02*
X175300D01*
X162600D02*
Y347700D01*
X175300Y396300D02*
Y410200D01*
X162600D02*
X175300D01*
X162600Y396300D02*
X175300D01*
X162600D02*
Y410200D01*
X509740Y186100D02*
Y199500D01*
Y186100D02*
X515140D01*
Y199500D01*
X509740D02*
X515140D01*
X509740Y269000D02*
Y282400D01*
Y269000D02*
X515140D01*
Y282400D01*
X509740D02*
X515140D01*
X509740Y365300D02*
X515140D01*
Y351900D02*
Y365300D01*
X509740Y351900D02*
X515140D01*
X509740D02*
Y365300D01*
X503741Y464026D02*
X509140D01*
Y450626D02*
Y464026D01*
X503741Y450626D02*
X509140D01*
X503741D02*
Y464026D01*
X509740Y448200D02*
X515140D01*
Y434800D02*
Y448200D01*
X509740Y434800D02*
X515140D01*
X509740D02*
Y448200D01*
X563141Y432877D02*
Y456499D01*
X550838Y432877D02*
X563141D01*
X550838D02*
Y456499D01*
X563141D01*
X556941Y443621D02*
X559441Y446121D01*
X556941D02*
X559441D01*
X554440D02*
X556941Y443621D01*
X554440Y446121D02*
X556941D01*
X503741Y284826D02*
Y298226D01*
Y284826D02*
X509140D01*
Y298226D01*
X503741D02*
X509140D01*
X503741Y381126D02*
X509140D01*
Y367726D02*
Y381126D01*
X503741Y367726D02*
X509140D01*
X503741D02*
Y381126D01*
X554440Y280321D02*
X556941D01*
X554440D02*
X556941Y277821D01*
Y280321D02*
X559441D01*
X556941Y277821D02*
X559441Y280321D01*
X550838Y290699D02*
X563141D01*
X550838Y267077D02*
Y290699D01*
Y267077D02*
X563141D01*
Y290699D01*
Y349977D02*
Y373599D01*
X550838Y349977D02*
X563141D01*
X550838D02*
Y373599D01*
X563141D01*
X556941Y360721D02*
X559441Y363221D01*
X556941D02*
X559441D01*
X554440D02*
X556941Y360721D01*
X554440Y363221D02*
X556941D01*
X503741Y201926D02*
Y215326D01*
Y201926D02*
X509140D01*
Y215326D01*
X503741D02*
X509140D01*
X554440Y197421D02*
X556941D01*
X554440D02*
X556941Y194921D01*
Y197421D02*
X559441D01*
X556941Y194921D02*
X559441Y197421D01*
X550838Y207799D02*
X563141D01*
X550838Y184177D02*
Y207799D01*
Y184177D02*
X563141D01*
Y207799D01*
D11*
X381762Y194346D02*
X381024Y194773D01*
Y193920D01*
X381762Y194346D01*
X471938Y180216D02*
X471200Y180642D01*
Y179790D01*
X471938Y180216D01*
Y263116D02*
X471200Y263542D01*
Y262690D01*
X471938Y263116D01*
Y346016D02*
X471200Y346442D01*
Y345590D01*
X471938Y346016D01*
X525568Y227927D02*
X524829Y228353D01*
Y227501D01*
X525568Y227927D01*
Y310827D02*
X524829Y311253D01*
Y310401D01*
X525568Y310827D01*
X391439Y379449D02*
X390700Y379875D01*
Y379023D01*
X391439Y379449D01*
X525568Y393727D02*
X524829Y394153D01*
Y393301D01*
X525568Y393727D01*
X282694Y205854D02*
X281956Y206280D01*
Y205427D01*
X282694Y205854D01*
X317441Y460653D02*
X316703Y461080D01*
Y460227D01*
X317441Y460653D01*
X471938Y428916D02*
X471200Y429342D01*
Y428490D01*
X471938Y428916D01*
X365995Y235328D02*
X365256Y235754D01*
Y234902D01*
X365995Y235328D01*
X525568Y476627D02*
X524829Y477053D01*
Y476201D01*
X525568Y476627D01*
X556941Y443621D02*
X559441D01*
X554440D02*
X556941D01*
X554440Y277821D02*
X556941D01*
X559441D01*
X556941Y360721D02*
X559441D01*
X554440D02*
X556941D01*
X554440Y194921D02*
X556941D01*
X559441D01*
D12*
X390916Y189209D02*
X390471Y190132D01*
X389472Y190360D01*
X388670Y189721D01*
Y188696D01*
X389472Y188057D01*
X390471Y188285D01*
X390916Y189209D01*
X463080Y181633D02*
X462635Y182557D01*
X461636Y182785D01*
X460834Y182146D01*
Y181121D01*
X461636Y180482D01*
X462635Y180710D01*
X463080Y181633D01*
Y264533D02*
X462635Y265457D01*
X461636Y265685D01*
X460834Y265046D01*
Y264021D01*
X461636Y263382D01*
X462635Y263610D01*
X463080Y264533D01*
Y347433D02*
X462635Y348357D01*
X461636Y348585D01*
X460834Y347946D01*
Y346921D01*
X461636Y346282D01*
X462635Y346510D01*
X463080Y347433D01*
X274131Y210047D02*
X273686Y210970D01*
X272687Y211198D01*
X271885Y210559D01*
Y209534D01*
X272687Y208895D01*
X273686Y209123D01*
X274131Y210047D01*
X463080Y430333D02*
X462635Y431257D01*
X461636Y431485D01*
X460834Y430846D01*
Y429821D01*
X461636Y429182D01*
X462635Y429410D01*
X463080Y430333D01*
X358317Y241332D02*
X357873Y242256D01*
X356873Y242484D01*
X356072Y241845D01*
Y240820D01*
X356873Y240181D01*
X357873Y240409D01*
X358317Y241332D01*
D13*
X394711Y232664D02*
X393924D01*
X394711D01*
X136409Y343731D02*
X137591D01*
X136409Y347669D02*
X137591D01*
Y343731D02*
Y347669D01*
X136409Y361332D02*
X137591D01*
X136409Y365268D02*
X137591D01*
Y361332D02*
Y365268D01*
X136409Y396332D02*
X137591D01*
X136409Y400269D02*
X137591D01*
Y396332D02*
Y400269D01*
X136409Y378832D02*
X137591D01*
X136409Y382769D02*
X137591D01*
Y378832D02*
Y382769D01*
X385798Y173854D02*
Y193146D01*
X398002Y173854D02*
Y193146D01*
X385798D02*
X398002D01*
X385798Y173854D02*
X398002D01*
X510891Y193700D02*
X514041Y193700D01*
X510866Y191856D02*
X512440Y193431D01*
X510866Y191856D02*
X514015Y191856D01*
X512440Y193431D02*
X514015Y191856D01*
X511653Y192643D02*
X513228D01*
X465835Y177697D02*
Y222185D01*
X432765Y177697D02*
Y222185D01*
Y177697D02*
X465835D01*
X432765Y222185D02*
X465835D01*
X510891Y276600D02*
X514041Y276600D01*
X510866Y274756D02*
X512440Y276331D01*
X510866Y274756D02*
X514015Y274756D01*
X512440Y276331D02*
X514015Y274756D01*
X511653Y275543D02*
X513228D01*
X465835Y260596D02*
Y305085D01*
X432765Y260596D02*
Y305085D01*
Y260596D02*
X465835D01*
X432765Y305085D02*
X465835D01*
X511653Y358443D02*
X513228D01*
X512440Y359231D02*
X514015Y357656D01*
X510866Y357656D02*
X514015Y357656D01*
X510866Y357656D02*
X512440Y359231D01*
X510891Y359500D02*
X514041Y359500D01*
X465835Y343496D02*
Y387985D01*
X432765Y343496D02*
Y387985D01*
Y343496D02*
X465835D01*
X432765Y387985D02*
X465835D01*
X505653Y457169D02*
X507228D01*
X506440Y457957D02*
X508015Y456382D01*
X504866Y456382D02*
X508015Y456382D01*
X504866Y456382D02*
X506440Y457957D01*
X504891Y458226D02*
X508041Y458226D01*
X511653Y441343D02*
X513228D01*
X512440Y442131D02*
X514015Y440556D01*
X510866Y440556D02*
X514015Y440556D01*
X510866Y440556D02*
X512440Y442131D01*
X510891Y442400D02*
X514041Y442400D01*
X220630Y452630D02*
Y481370D01*
X249370Y452630D02*
Y481370D01*
X220630Y452630D02*
X228701D01*
X220630Y481370D02*
X228701D01*
X241299Y452630D02*
X249370D01*
X241299Y481370D02*
X249370D01*
X504891Y292426D02*
X508041Y292426D01*
X504866Y290582D02*
X506440Y292157D01*
X504866Y290582D02*
X508015Y290582D01*
X506440Y292157D02*
X508015Y290582D01*
X505653Y291369D02*
X507228D01*
X505653Y374269D02*
X507228D01*
X506440Y375057D02*
X508015Y373482D01*
X504866Y373482D02*
X508015Y373482D01*
X504866Y373482D02*
X506440Y375057D01*
X504891Y375326D02*
X508041Y375326D01*
X528816Y226943D02*
X530784D01*
X528816Y214738D02*
X530784D01*
X528816D02*
Y226943D01*
X530784Y214738D02*
Y226943D01*
X528816Y309843D02*
X530784D01*
X528816Y297638D02*
X530784D01*
X528816D02*
Y309843D01*
X530784Y297638D02*
Y309843D01*
X504891Y209526D02*
X508041Y209526D01*
X504866Y207682D02*
X506440Y209257D01*
X504866Y207682D02*
X508015Y207682D01*
X506440Y209257D02*
X508015Y207682D01*
X505653Y208469D02*
X507228D01*
X355277Y366457D02*
Y373543D01*
X389923Y366457D02*
Y373543D01*
X355277Y366457D02*
X389923D01*
X355277Y373543D02*
X389923D01*
X530784Y380538D02*
Y392743D01*
X528816Y380538D02*
Y392743D01*
Y380538D02*
X530784D01*
X528816Y392743D02*
X530784D01*
X255398Y422571D02*
X256776D01*
X266224D02*
X267602D01*
X255398Y406429D02*
X256776D01*
X266224D02*
X267602D01*
X255398Y422472D02*
Y422571D01*
Y406429D02*
Y406528D01*
X267602Y422472D02*
Y422571D01*
Y406429D02*
Y406528D01*
X276887Y206109D02*
Y257291D01*
X250115Y206109D02*
Y257291D01*
Y206109D02*
X276887D01*
X250115Y257291D02*
X276887D01*
X311043Y461657D02*
Y481343D01*
X303957Y461657D02*
Y481343D01*
Y461657D02*
X311043D01*
X303957Y481343D02*
X311043D01*
X465835Y426397D02*
Y470885D01*
X432765Y426397D02*
Y470885D01*
Y426397D02*
X465835D01*
X432765Y470885D02*
X465835D01*
X361073Y237395D02*
Y261805D01*
X336664Y237395D02*
Y261805D01*
Y237395D02*
X361073D01*
X336664Y261805D02*
X361073D01*
X530784Y463438D02*
Y475643D01*
X528816Y463438D02*
Y475643D01*
Y463438D02*
X530784D01*
X528816Y475643D02*
X530784D01*
D14*
X152686Y226515D02*
X151898D01*
X152686D01*
D15*
X269374Y406429D02*
D03*
D16*
X552938Y474409D02*
X557662D01*
Y463779D02*
Y474409D01*
X552938Y463779D02*
X557662D01*
X552938D02*
Y474409D01*
X555300Y469491D02*
X556875Y467916D01*
X553725Y467916D02*
X556875Y467916D01*
X553725Y467916D02*
X555300Y469491D01*
X553750Y470154D02*
X556900D01*
X392000Y334349D02*
Y351849D01*
X402000D01*
X412000Y334349D02*
Y351849D01*
X402000D02*
X412000D01*
Y316849D02*
Y334349D01*
X402000Y316849D02*
X412000D01*
Y334349D01*
X402000Y316849D02*
X412000D01*
X392000D02*
Y334349D01*
Y316849D02*
X402000D01*
X394000Y348849D02*
X397000Y345849D01*
X395000Y349849D02*
X398000Y346849D01*
X333100Y334349D02*
Y351849D01*
X343100D01*
X353100Y334349D02*
Y351849D01*
X343100D02*
X353100D01*
Y316849D02*
Y334349D01*
X343100Y316849D02*
X353100D01*
Y334349D01*
X343100Y316849D02*
X353100D01*
X333100D02*
Y334349D01*
Y316849D02*
X343100D01*
X335100Y348849D02*
X338100Y345849D01*
X336100Y349849D02*
X339100Y346849D01*
X353100Y388149D02*
Y405649D01*
X343100Y388149D02*
X353100D01*
X333100D02*
Y405649D01*
Y388149D02*
X343100D01*
X333100Y405649D02*
Y423149D01*
X343100D01*
X333100Y405649D02*
Y423149D01*
X343100D01*
X353100Y405649D02*
Y423149D01*
X343100D02*
X353100D01*
X348100Y394149D02*
X351100Y391149D01*
X347100Y393149D02*
X350100Y390149D01*
X412000Y388149D02*
Y405649D01*
X402000Y388149D02*
X412000D01*
X392000D02*
Y405649D01*
Y388149D02*
X402000D01*
X392000Y405649D02*
Y423149D01*
X402000D01*
X392000Y405649D02*
Y423149D01*
X402000D01*
X412000Y405649D02*
Y423149D01*
X402000D02*
X412000D01*
X407000Y394149D02*
X410000Y391149D01*
X406000Y393149D02*
X409000Y390149D01*
X504078Y186939D02*
X508803D01*
X504078D02*
Y197569D01*
X508803D01*
Y186939D02*
Y197569D01*
X504866Y193431D02*
X506440Y191857D01*
X504866Y193431D02*
X508015Y193431D01*
X506440Y191857D02*
X508015Y193431D01*
X504841Y191194D02*
X507990D01*
X504078Y269839D02*
X508803D01*
X504078D02*
Y280469D01*
X508803D01*
Y269839D02*
Y280469D01*
X504866Y276331D02*
X506440Y274757D01*
X504866Y276331D02*
X508015Y276331D01*
X506440Y274757D02*
X508015Y276331D01*
X504841Y274094D02*
X507990D01*
X504841Y356994D02*
X507990D01*
X506440Y357657D02*
X508015Y359231D01*
X504866Y359231D02*
X508015Y359231D01*
X504866Y359231D02*
X506440Y357657D01*
X508803Y352739D02*
Y363369D01*
X504078D02*
X508803D01*
X504078Y352739D02*
Y363369D01*
Y352739D02*
X508803D01*
X510841Y456894D02*
X513990D01*
X512440Y457557D02*
X514015Y459131D01*
X510866Y459131D02*
X514015Y459131D01*
X510866Y459131D02*
X512440Y457557D01*
X514803Y452639D02*
Y463269D01*
X510078D02*
X514803D01*
X510078Y452639D02*
Y463269D01*
Y452639D02*
X514803D01*
X504841Y439894D02*
X507990D01*
X506440Y440557D02*
X508015Y442132D01*
X504866Y442132D02*
X508015Y442132D01*
X504866Y442132D02*
X506440Y440557D01*
X508803Y435639D02*
Y446269D01*
X504078D02*
X508803D01*
X504078Y435639D02*
Y446269D01*
Y435639D02*
X508803D01*
X192968Y426438D02*
Y431162D01*
X182339Y426438D02*
X192968D01*
X182339D02*
Y431162D01*
X192968D01*
X186476Y427225D02*
X188050Y428800D01*
X186476Y427225D02*
X186476Y430375D01*
X188050Y428800D01*
X188713Y427200D02*
Y430350D01*
X510078Y286839D02*
X514803D01*
X510078D02*
Y297468D01*
X514803D01*
Y286839D02*
Y297468D01*
X510866Y293332D02*
X512440Y291757D01*
X510866Y293332D02*
X514015Y293332D01*
X512440Y291757D02*
X514015Y293332D01*
X510841Y291094D02*
X513990D01*
X510841Y373994D02*
X513990D01*
X512440Y374657D02*
X514015Y376232D01*
X510866Y376232D02*
X514015Y376232D01*
X510866Y376232D02*
X512440Y374657D01*
X514803Y369739D02*
Y380368D01*
X510078D02*
X514803D01*
X510078Y369739D02*
Y380368D01*
Y369739D02*
X514803D01*
X553750Y387254D02*
X556900D01*
X553725Y385016D02*
X555300Y386591D01*
X553725Y385016D02*
X556875Y385016D01*
X555300Y386591D02*
X556875Y385016D01*
X552938Y380879D02*
Y391509D01*
Y380879D02*
X557662D01*
Y391509D01*
X552938D02*
X557662D01*
X552938Y225709D02*
X557662D01*
Y215079D02*
Y225709D01*
X552938Y215079D02*
X557662D01*
X552938D02*
Y225709D01*
X555300Y220791D02*
X556875Y219216D01*
X553725Y219216D02*
X556875Y219216D01*
X553725Y219216D02*
X555300Y220791D01*
X553750Y221454D02*
X556900D01*
X552938Y308609D02*
X557662D01*
Y297979D02*
Y308609D01*
X552938Y297979D02*
X557662D01*
X552938D02*
Y308609D01*
X555300Y303691D02*
X556875Y302116D01*
X553725Y302116D02*
X556875Y302116D01*
X553725Y302116D02*
X555300Y303691D01*
X553750Y304354D02*
X556900D01*
X510078Y203939D02*
X514803D01*
X510078D02*
Y214568D01*
X514803D01*
Y203939D02*
Y214568D01*
X510866Y210432D02*
X512440Y208857D01*
X510866Y210432D02*
X514015Y210432D01*
X512440Y208857D02*
X514015Y210432D01*
X510841Y208194D02*
X513990D01*
D17*
X309800Y170400D02*
X310550Y171150D01*
X309800Y170400D02*
Y171900D01*
X311300Y170400D01*
X312100D01*
D18*
X309800Y190400D02*
X309800Y180400D01*
X309800Y190400D02*
X359800Y190400D01*
X339800Y180400D02*
Y190400D01*
X349800Y180400D02*
Y190400D01*
Y180400D02*
Y190400D01*
X359800Y180400D02*
Y190400D01*
Y180400D02*
Y190400D01*
X329800Y180400D02*
Y190400D01*
X319800Y180400D02*
Y190400D01*
X319800Y170400D02*
Y180400D01*
X329800Y170400D02*
Y180400D01*
X359800Y170400D02*
Y180400D01*
Y170400D02*
Y180400D01*
X349800Y170400D02*
Y180400D01*
Y170400D02*
Y180400D01*
X309800Y170400D02*
X359800Y170400D01*
X339800Y170400D02*
Y180400D01*
X309800Y180400D02*
X309800Y171350D01*
X161800Y240200D02*
X179300Y240200D01*
Y250200D01*
X159300Y250200D02*
X179300Y250200D01*
X159300Y250200D02*
X159300Y242700D01*
X161800Y240200D01*
Y213200D02*
X179300Y213200D01*
Y223200D01*
X159300Y223200D02*
X179300Y223200D01*
X159300Y223200D02*
X159300Y215700D01*
X161800Y213200D01*
D19*
X335467Y278812D02*
X335567D01*
X334167Y280212D02*
Y280412D01*
Y278812D02*
Y280312D01*
Y278812D02*
X335167D01*
X334167Y292500D02*
X346667D01*
X334167Y278812D02*
Y292500D01*
Y278812D02*
X346667D01*
Y292500D01*
X354068Y212700D02*
Y226700D01*
X361069D02*
X361069Y212700D01*
X354068Y226700D02*
X361069D01*
X354068Y212700D02*
X361069Y212700D01*
X361700Y169900D02*
Y183900D01*
X368700D02*
X368700Y169900D01*
X361700Y183900D02*
X368700D01*
X361700Y169900D02*
X368700Y169900D01*
X391568Y204400D02*
X405569D01*
X391568Y211400D02*
X405569Y211400D01*
X391568Y204400D02*
Y211400D01*
X405569Y204400D02*
X405569Y211400D01*
X517441Y185900D02*
X524440Y185900D01*
X517441Y199900D02*
X524440D01*
X524440Y185900D01*
X517441Y185900D02*
Y199900D01*
Y268800D02*
X524440Y268800D01*
X517441Y282800D02*
X524440D01*
X524440Y268800D01*
X517441Y268800D02*
Y282800D01*
Y351700D02*
Y365700D01*
X524440D02*
X524440Y351700D01*
X517441Y365700D02*
X524440D01*
X517441Y351700D02*
X524440Y351700D01*
X483300Y437141D02*
X497300D01*
X483300Y430140D02*
X497300Y430140D01*
Y437141D01*
X483300Y430140D02*
X483300Y437141D01*
X481941Y377240D02*
X495940D01*
X481941Y384241D02*
X495940Y384241D01*
X481941Y377240D02*
Y384241D01*
X495940Y377240D02*
X495940Y384241D01*
X224300Y203700D02*
Y217700D01*
X231300D02*
X231300Y203700D01*
X224300Y217700D02*
X231300D01*
X224300Y203700D02*
X231300Y203700D01*
X237600Y206400D02*
Y216500D01*
X233000Y206400D02*
Y216500D01*
Y206400D02*
X237600D01*
X233000Y216500D02*
X237600D01*
X300500Y412500D02*
X314500D01*
X300500Y405500D02*
X314500Y405500D01*
Y412500D01*
X300500Y405500D02*
X300500Y412500D01*
X149643Y188035D02*
Y309688D01*
X102398Y188035D02*
X149643D01*
X102398D02*
Y309688D01*
X149643D01*
X237800Y238200D02*
Y252200D01*
X230800Y252200D02*
X230800Y238200D01*
X237800D01*
X230800Y252200D02*
X237800Y252200D01*
X210500Y238200D02*
Y252200D01*
X203500Y252200D02*
X203500Y238200D01*
X210500D01*
X203500Y252200D02*
X210500Y252200D01*
X290000Y243800D02*
Y257800D01*
X297000D02*
X297000Y243800D01*
X290000Y257800D02*
X297000D01*
X290000Y243800D02*
X297000Y243800D01*
X379969Y278800D02*
Y292800D01*
X386968D02*
X386968Y278800D01*
X379969Y292800D02*
X386968D01*
X379969Y278800D02*
X386968Y278800D01*
X294800Y231500D02*
Y241600D01*
X290200Y231500D02*
Y241600D01*
Y231500D02*
X294800D01*
X290200Y241600D02*
X294800D01*
X298500Y227800D02*
Y241800D01*
X305500D02*
X305500Y227800D01*
X298500Y241800D02*
X305500D01*
X298500Y227800D02*
X305500Y227800D01*
X285000Y397000D02*
X299000D01*
X285000Y404000D02*
X299000Y404000D01*
X285000Y397000D02*
Y404000D01*
X299000Y397000D02*
X299000Y404000D01*
X259500Y483000D02*
X266500Y483000D01*
X259500Y469000D02*
X266500D01*
X259500Y483000D02*
X259500Y469000D01*
X266500D02*
Y483000D01*
X243000Y389500D02*
X257000D01*
X243000Y396500D02*
X257000Y396500D01*
X243000Y389500D02*
Y396500D01*
X257000Y389500D02*
X257000Y396500D01*
X201800Y221700D02*
X215800D01*
X201800Y214700D02*
X215800Y214700D01*
Y221700D01*
X201800Y214700D02*
X201800Y221700D01*
X325969Y278800D02*
X332968Y278800D01*
X325969Y292800D02*
X332968D01*
X332968Y278800D01*
X325969Y278800D02*
Y292800D01*
X173500Y435500D02*
X173600D01*
X172900Y436100D02*
X173500Y435500D01*
X172900Y436100D02*
Y436600D01*
X174000Y435500D01*
X174100D01*
X174500D01*
X172900Y437100D02*
X174500Y435500D01*
X187100Y435300D02*
Y435400D01*
X172900D02*
X187100D01*
X172900Y471400D02*
X187200D01*
X172900Y435400D02*
Y471400D01*
X187100Y435300D02*
Y435400D01*
X201300D01*
X187000Y471400D02*
X201300D01*
Y435400D02*
Y471400D01*
X140500Y460000D02*
Y470000D01*
Y460000D02*
X164000D01*
Y470000D01*
X140500D02*
X164000D01*
X269500Y483000D02*
X276500Y483000D01*
X269500Y469000D02*
X276500D01*
X269500Y483000D02*
X269500Y469000D01*
X276500D02*
Y483000D01*
X327400Y452400D02*
X327400Y459400D01*
X313400Y452400D02*
Y459400D01*
X327400Y459400D01*
X313400Y452400D02*
X327400D01*
X527841Y449200D02*
X541841D01*
X527841Y442200D02*
X541841Y442200D01*
Y449200D01*
X527841Y442200D02*
X527841Y449200D01*
Y441200D02*
X541841D01*
X527841Y434200D02*
X541841Y434200D01*
Y441200D01*
X527841Y434200D02*
X527841Y441200D01*
X371969Y278800D02*
X378969Y278800D01*
X371969Y292800D02*
X378969D01*
X378969Y278800D01*
X371969Y278800D02*
Y292800D01*
X298500Y243800D02*
Y257800D01*
X305500D02*
X305500Y243800D01*
X298500Y257800D02*
X305500D01*
X298500Y243800D02*
X305500Y243800D01*
X214300Y237200D02*
X214300Y244200D01*
X228300Y237200D02*
Y244200D01*
X214300Y237200D02*
X228300Y237200D01*
X214300Y244200D02*
X228300D01*
X214300Y246200D02*
X214300Y253200D01*
X228300Y246200D02*
Y253200D01*
X214300Y246200D02*
X228300Y246200D01*
X214300Y253200D02*
X228300D01*
X527841Y366300D02*
X541841D01*
X527841Y359300D02*
X541841Y359300D01*
Y366300D01*
X527841Y359300D02*
X527841Y366300D01*
X495940Y284341D02*
X495940Y291340D01*
X481941Y284341D02*
Y291340D01*
X495940Y291340D01*
X481941Y284341D02*
X495940D01*
X550500Y379341D02*
Y393340D01*
X543500Y393340D02*
X543500Y379341D01*
X550500D01*
X543500Y393340D02*
X550500Y393340D01*
X527841Y193500D02*
X527841Y200500D01*
X541841Y193500D02*
Y200500D01*
X527841Y193500D02*
X541841Y193500D01*
X527841Y200500D02*
X541841D01*
X527841Y185500D02*
X527841Y192500D01*
X541841Y185500D02*
Y192500D01*
X527841Y185500D02*
X541841Y185500D01*
X527841Y192500D02*
X541841D01*
X495940Y304341D02*
X495940Y311340D01*
X481941Y304341D02*
Y311340D01*
X495940Y311340D01*
X481941Y304341D02*
X495940D01*
Y221441D02*
X495940Y228440D01*
X481941Y221441D02*
Y228440D01*
X495940Y228440D01*
X481941Y221441D02*
X495940D01*
X527841Y276400D02*
X527841Y283400D01*
X541841Y276400D02*
Y283400D01*
X527841Y276400D02*
X541841Y276400D01*
X527841Y283400D02*
X541841D01*
X495940Y294340D02*
X495940Y301341D01*
X481941Y294340D02*
Y301341D01*
X495940Y301341D01*
X481941Y294340D02*
X495940D01*
X527841Y268400D02*
X527841Y275400D01*
X541841Y268400D02*
Y275400D01*
X527841Y268400D02*
X541841Y268400D01*
X527841Y275400D02*
X541841D01*
X543500Y310440D02*
X550500Y310440D01*
X543500Y296441D02*
X550500D01*
X543500Y310440D02*
X543500Y296441D01*
X550500D02*
Y310440D01*
X522700Y314440D02*
X522700Y321441D01*
X536700Y314440D02*
Y321441D01*
X522700Y314440D02*
X536700Y314440D01*
X522700Y321441D02*
X536700D01*
X527841Y358300D02*
X541841D01*
X527841Y351300D02*
X541841Y351300D01*
Y358300D01*
X527841Y351300D02*
X527841Y358300D01*
X495940Y201441D02*
X495940Y208440D01*
X481941Y201441D02*
Y208440D01*
X495940Y208440D01*
X481941Y201441D02*
X495940D01*
X522700Y404341D02*
X536700D01*
X522700Y397340D02*
X536700Y397340D01*
Y404341D01*
X522700Y397340D02*
X522700Y404341D01*
X495940Y211440D02*
X495940Y218441D01*
X481941Y211440D02*
Y218441D01*
X495940Y218441D01*
X481941Y211440D02*
X495940D01*
X483300Y264340D02*
X483300Y271340D01*
X497300Y264340D02*
Y271340D01*
X483300Y264340D02*
X497300Y264340D01*
X483300Y271340D02*
X497300D01*
X483300Y181440D02*
X483300Y188441D01*
X497300Y181440D02*
Y188441D01*
X483300Y181440D02*
X497300Y181440D01*
X483300Y188441D02*
X497300D01*
X522700Y487241D02*
X536700D01*
X522700Y480240D02*
X536700Y480240D01*
Y487241D01*
X522700Y480240D02*
X522700Y487241D01*
X347969Y278800D02*
X354969Y278800D01*
X347969Y292800D02*
X354969D01*
X354969Y278800D01*
X347969Y278800D02*
Y292800D01*
X363968Y278800D02*
X370969Y278800D01*
X363968Y292800D02*
X370969D01*
X370969Y278800D01*
X363968Y278800D02*
Y292800D01*
X392093Y220200D02*
X392093Y227200D01*
X378093Y220200D02*
Y227200D01*
X392093Y227200D01*
X378093Y220200D02*
X392093D01*
X517441Y434600D02*
Y448600D01*
X524440D02*
X524440Y434600D01*
X517441Y448600D02*
X524440D01*
X517441Y434600D02*
X524440Y434600D01*
X355968Y278800D02*
X362968Y278800D01*
X355968Y292800D02*
X362968D01*
X362968Y278800D01*
X355968Y278800D02*
Y292800D01*
X550500Y462241D02*
Y476240D01*
X543500Y476240D02*
X543500Y462241D01*
X550500D01*
X543500Y476240D02*
X550500Y476240D01*
X377668Y258600D02*
X377668Y265600D01*
X391669Y258600D02*
Y265600D01*
X377668Y258600D02*
X391669Y258600D01*
X377668Y265600D02*
X391669D01*
X405469Y196500D02*
X405469Y203500D01*
X391469Y196500D02*
Y203500D01*
X405469Y203500D01*
X391469Y196500D02*
X405469D01*
X248000Y448500D02*
X262000D01*
X248000Y441500D02*
X262000Y441500D01*
Y448500D01*
X248000Y441500D02*
X248000Y448500D01*
X361769Y226700D02*
X368769Y226700D01*
X361769Y212700D02*
X368769D01*
X361769Y226700D02*
X361769Y212700D01*
X368769D02*
Y226700D01*
X248000Y432500D02*
X262000D01*
X248000Y425500D02*
X262000Y425500D01*
Y432500D01*
X248000Y425500D02*
X248000Y432500D01*
X369468Y226700D02*
X376468Y226700D01*
X369468Y212700D02*
X376468D01*
X369468Y226700D02*
X369468Y212700D01*
X376468D02*
Y226700D01*
X237000Y412000D02*
X244000Y412000D01*
X237000Y426000D02*
X244000D01*
X244000Y412000D01*
X237000Y412000D02*
Y426000D01*
X248000Y440500D02*
X262000D01*
X248000Y433500D02*
X262000Y433500D01*
Y440500D01*
X248000Y433500D02*
X248000Y440500D01*
X369000Y403149D02*
X369000Y410149D01*
X355000Y403149D02*
Y410149D01*
X369000Y410149D01*
X355000Y403149D02*
X369000D01*
Y320849D02*
X369000Y327849D01*
X355000Y320849D02*
Y327849D01*
X369000Y327849D01*
X355000Y320849D02*
X369000D01*
Y329849D02*
X369000Y336849D01*
X355000Y329849D02*
Y336849D01*
X369000Y336849D01*
X355000Y329849D02*
X369000D01*
X522700Y231540D02*
X522700Y238541D01*
X536700Y231540D02*
Y238541D01*
X522700Y231540D02*
X536700Y231540D01*
X522700Y238541D02*
X536700D01*
X376100Y403149D02*
X376100Y410149D01*
X390100Y403149D02*
Y410149D01*
X376100Y403149D02*
X390100Y403149D01*
X376100Y410149D02*
X390100D01*
X376100Y320849D02*
X376100Y327849D01*
X390100Y320849D02*
Y327849D01*
X376100Y320849D02*
X390100Y320849D01*
X376100Y327849D02*
X390100D01*
X364800Y386249D02*
X364800Y393249D01*
X378800Y386249D02*
Y393249D01*
X364800Y386249D02*
X378800Y386249D01*
X364800Y393249D02*
X378800D01*
X543500Y227540D02*
X550500Y227540D01*
X543500Y213541D02*
X550500D01*
X543500Y227540D02*
X543500Y213541D01*
X550500D02*
Y227540D01*
X376100Y329849D02*
X376100Y336849D01*
X390100Y329849D02*
Y336849D01*
X376100Y329849D02*
X390100Y329849D01*
X376100Y336849D02*
X390100D01*
X257000Y397500D02*
X257000Y404500D01*
X243000Y397500D02*
Y404500D01*
X257000Y404500D01*
X243000Y397500D02*
X257000D01*
X481941Y470141D02*
X495940D01*
X481941Y477141D02*
X495940Y477141D01*
X481941Y470141D02*
Y477141D01*
X495940Y470141D02*
X495940Y477141D01*
X481941Y450140D02*
X495940D01*
X481941Y457140D02*
X495940Y457140D01*
X481941Y450140D02*
Y457140D01*
X495940Y450140D02*
X495940Y457140D01*
X483300Y354240D02*
X497300D01*
X483300Y347240D02*
X497300Y347240D01*
Y354240D01*
X483300Y347240D02*
X483300Y354240D01*
X481941Y387241D02*
X495940D01*
X481941Y394240D02*
X495940Y394240D01*
X481941Y387241D02*
Y394240D01*
X495940Y387241D02*
X495940Y394240D01*
X481941Y367241D02*
X495940D01*
X481941Y374240D02*
X495940Y374240D01*
X481941Y367241D02*
Y374240D01*
X495940Y367241D02*
X495940Y374240D01*
X176200Y410300D02*
X183200Y410300D01*
X176200Y396300D02*
X183200D01*
X176200Y410300D02*
X176200Y396300D01*
X183200D02*
Y410300D01*
X176200Y389300D02*
X183200Y389300D01*
X176200Y375300D02*
X183200D01*
X176200Y389300D02*
X176200Y375300D01*
X183200D02*
Y389300D01*
X176200Y368900D02*
X183200Y368900D01*
X176200Y354900D02*
X183200D01*
X176200Y368900D02*
X176200Y354900D01*
X183200D02*
Y368900D01*
X176200Y347800D02*
X183200Y347800D01*
X176200Y333800D02*
X183200D01*
X176200Y347800D02*
X176200Y333800D01*
X183200D02*
Y347800D01*
X183800Y241700D02*
X183800Y248700D01*
X197800Y241700D02*
Y248700D01*
X183800Y241700D02*
X197800Y241700D01*
X183800Y248700D02*
X197800D01*
X183800Y221700D02*
X197800D01*
X183800Y214700D02*
X197800Y214700D01*
Y221700D01*
X183800Y214700D02*
X183800Y221700D01*
X269500Y388500D02*
X283500D01*
X269500Y395500D02*
X283500Y395500D01*
X269500Y388500D02*
Y395500D01*
X283500Y388500D02*
X283500Y395500D01*
X285000Y421000D02*
X299000D01*
X285000Y414000D02*
X299000Y414000D01*
Y421000D01*
X285000Y414000D02*
X285000Y421000D01*
Y412500D02*
X299000D01*
X285000Y405500D02*
X299000Y405500D01*
Y412500D01*
X285000Y405500D02*
X285000Y412500D01*
X285000Y388500D02*
X299000D01*
X285000Y395500D02*
X299000Y395500D01*
X285000Y388500D02*
Y395500D01*
X299000Y388500D02*
X299000Y395500D01*
X145500Y437000D02*
X145500Y444000D01*
X159500Y437000D02*
Y444000D01*
X145500Y437000D02*
X159500Y437000D01*
X145500Y444000D02*
X159500D01*
X285000Y429500D02*
X299000D01*
X285000Y422500D02*
X299000Y422500D01*
Y429500D01*
X285000Y422500D02*
X285000Y429500D01*
X112800Y405300D02*
X119800Y405300D01*
X112800Y391300D02*
X119800D01*
X112800Y405300D02*
X112800Y391300D01*
X119800D02*
Y405300D01*
X369000Y412149D02*
X369000Y419149D01*
X355000Y412149D02*
Y419149D01*
X369000Y419149D01*
X355000Y412149D02*
X369000D01*
X376100Y412149D02*
X376100Y419149D01*
X390100Y412149D02*
Y419149D01*
X376100Y412149D02*
X390100Y412149D01*
X376100Y419149D02*
X390100D01*
X481941Y460141D02*
X495940D01*
X481941Y467140D02*
X495940Y467140D01*
X481941Y460141D02*
Y467140D01*
X495940Y460141D02*
X495940Y467140D01*
X112800Y387800D02*
X119800Y387800D01*
X112800Y373800D02*
X119800D01*
X112800Y387800D02*
X112800Y373800D01*
X119800D02*
Y387800D01*
X112800Y370300D02*
X119800Y370300D01*
X112800Y356300D02*
X119800D01*
X112800Y370300D02*
X112800Y356300D01*
X119800D02*
Y370300D01*
X112800Y352700D02*
X119800Y352700D01*
X112800Y338700D02*
X119800D01*
X112800Y352700D02*
X112800Y338700D01*
X119800D02*
Y352700D01*
D20*
X145900Y168400D02*
Y171599D01*
X147500Y173198D01*
X149099Y171599D01*
Y168400D01*
Y170799D01*
X145900D01*
X150698Y173198D02*
X152298D01*
X151498D01*
Y168400D01*
X150698D01*
X152298D01*
X157896Y172399D02*
X157096Y173198D01*
X155497D01*
X154697Y172399D01*
Y169200D01*
X155497Y168400D01*
X157096D01*
X157896Y169200D01*
X159496Y170799D02*
X162695D01*
X164294Y173198D02*
X165893D01*
X165094D01*
Y168400D01*
X164294D01*
X165893D01*
X171492Y172399D02*
X170692Y173198D01*
X169093D01*
X168293Y172399D01*
Y171599D01*
X169093Y170799D01*
X170692D01*
X171492Y170000D01*
Y169200D01*
X170692Y168400D01*
X169093D01*
X168293Y169200D01*
X175490Y173198D02*
X173891D01*
X173091Y172399D01*
Y169200D01*
X173891Y168400D01*
X175490D01*
X176290Y169200D01*
Y172399D01*
X175490Y173198D01*
X177890Y170799D02*
X181089D01*
X185887Y172399D02*
X185087Y173198D01*
X183488D01*
X182688Y172399D01*
Y169200D01*
X183488Y168400D01*
X185087D01*
X185887Y169200D01*
X192285Y168400D02*
Y173198D01*
X194684D01*
X195484Y172399D01*
Y170799D01*
X194684Y170000D01*
X192285D01*
X193885D02*
X195484Y168400D01*
X199483D02*
X197883D01*
X197083Y169200D01*
Y170799D01*
X197883Y171599D01*
X199483D01*
X200282Y170799D01*
Y170000D01*
X197083D01*
X201882Y171599D02*
X203481Y168400D01*
X205081Y171599D01*
X206680D02*
X207480D01*
Y170799D01*
X206680D01*
Y171599D01*
Y169200D02*
X207480D01*
Y168400D01*
X206680D01*
Y169200D01*
X215477Y172399D02*
X216277Y173198D01*
X217877D01*
X218676Y172399D01*
Y169200D01*
X217877Y168400D01*
X216277D01*
X215477Y169200D01*
Y172399D01*
X145900Y160900D02*
Y165699D01*
X148299D01*
X149099Y164899D01*
Y163299D01*
X148299Y162499D01*
X145900D01*
X150698Y160900D02*
Y164099D01*
X152298Y165699D01*
X153897Y164099D01*
Y160900D01*
Y163299D01*
X150698D01*
X155497Y165699D02*
Y160900D01*
X157896D01*
X158696Y161700D01*
Y162499D01*
X157896Y163299D01*
X155497D01*
X157896D01*
X158696Y164099D01*
Y164899D01*
X157896Y165699D01*
X155497D01*
X160295D02*
Y160900D01*
X163494D01*
X165094Y165699D02*
X166693D01*
X165893D01*
Y160900D01*
X165094D01*
X166693D01*
X169093D02*
Y165699D01*
X172292Y160900D01*
Y165699D01*
X173891D02*
X177090D01*
X175490D01*
Y160900D01*
X178689Y165699D02*
X180289D01*
X179489D01*
Y160900D01*
X178689D01*
X180289D01*
X182688D02*
Y165699D01*
X185887Y160900D01*
Y165699D01*
X189886D02*
X188286D01*
X187487Y164899D01*
Y161700D01*
X188286Y160900D01*
X189886D01*
X190685Y161700D01*
Y164899D01*
X189886Y165699D01*
X379350Y203748D02*
Y199750D01*
X380149Y198950D01*
X381749D01*
X382549Y199750D01*
Y203748D01*
X386547Y198950D02*
Y203748D01*
X384148Y201349D01*
X387347D01*
X370369Y229701D02*
X371169D01*
X372768Y231300D01*
X371169Y232900D01*
X370369D01*
X372768Y231300D02*
X375168D01*
Y234500D02*
Y236099D01*
Y235299D01*
X370369D01*
X371169Y234500D01*
X229902Y398201D02*
Y402999D01*
X232301D01*
X233101Y402200D01*
Y400600D01*
X232301Y399800D01*
X229902D01*
X231501D02*
X233101Y398201D01*
X234700D02*
X236300D01*
X235500D01*
Y402999D01*
X234700Y402200D01*
X241098Y398201D02*
Y402999D01*
X238699Y400600D01*
X241898D01*
X242101Y266798D02*
Y262800D01*
X242900Y262000D01*
X244500D01*
X245299Y262800D01*
Y266798D01*
X246899Y262800D02*
X247699Y262000D01*
X249298D01*
X250098Y262800D01*
Y265999D01*
X249298Y266798D01*
X247699D01*
X246899Y265999D01*
Y265199D01*
X247699Y264399D01*
X250098D01*
X294649Y490998D02*
Y487000D01*
X295448Y486200D01*
X297048D01*
X297848Y487000D01*
Y490998D01*
X299447Y490199D02*
X300247Y490998D01*
X301846D01*
X302646Y490199D01*
Y489399D01*
X301846Y488599D01*
X302646Y487799D01*
Y487000D01*
X301846Y486200D01*
X300247D01*
X299447Y487000D01*
Y487799D01*
X300247Y488599D01*
X299447Y489399D01*
Y490199D01*
X300247Y488599D02*
X301846D01*
X259001Y404399D02*
Y400400D01*
X259801Y399601D01*
X261401D01*
X262200Y400400D01*
Y404399D01*
X263800D02*
X266999D01*
Y403600D01*
X263800Y400400D01*
Y399601D01*
X341169Y293501D02*
X345168D01*
X345968Y294301D01*
Y295901D01*
X345168Y296700D01*
X341169D01*
Y301499D02*
X341969Y299899D01*
X343568Y298300D01*
X345168D01*
X345968Y299099D01*
Y300699D01*
X345168Y301499D01*
X344368D01*
X343568Y300699D01*
Y298300D01*
X322769Y261001D02*
X326768D01*
X327568Y261801D01*
Y263401D01*
X326768Y264200D01*
X322769D01*
Y268999D02*
Y265800D01*
X325168D01*
X324369Y267399D01*
Y268199D01*
X325168Y268999D01*
X326768D01*
X327568Y268199D01*
Y266599D01*
X326768Y265800D01*
X347301Y366050D02*
X351300D01*
X352099Y366850D01*
Y368449D01*
X351300Y369249D01*
X347301D01*
X348100Y370849D02*
X347301Y371648D01*
Y373248D01*
X348100Y374047D01*
X348900D01*
X349700Y373248D01*
Y372448D01*
Y373248D01*
X350500Y374047D01*
X351300D01*
X352099Y373248D01*
Y371648D01*
X351300Y370849D01*
X522243Y212899D02*
Y208900D01*
X523043Y208101D01*
X524642D01*
X525442Y208900D01*
Y212899D01*
X530240Y208101D02*
X527042D01*
X530240Y211300D01*
Y212100D01*
X529441Y212899D01*
X527841D01*
X527042Y212100D01*
X535039D02*
X534239Y212899D01*
X532640D01*
X531840Y212100D01*
Y208900D01*
X532640Y208101D01*
X534239D01*
X535039Y208900D01*
X539038Y208101D02*
Y212899D01*
X536638Y210500D01*
X539837D01*
X522243Y295799D02*
Y291800D01*
X523043Y291001D01*
X524642D01*
X525442Y291800D01*
Y295799D01*
X530240Y291001D02*
X527042D01*
X530240Y294200D01*
Y295000D01*
X529441Y295799D01*
X527841D01*
X527042Y295000D01*
X535039D02*
X534239Y295799D01*
X532640D01*
X531840Y295000D01*
Y291800D01*
X532640Y291001D01*
X534239D01*
X535039Y291800D01*
X536638Y295000D02*
X537438Y295799D01*
X539038D01*
X539837Y295000D01*
Y294200D01*
X539038Y293400D01*
X538238D01*
X539038D01*
X539837Y292600D01*
Y291800D01*
X539038Y291001D01*
X537438D01*
X536638Y291800D01*
X522243Y378699D02*
Y374700D01*
X523043Y373901D01*
X524642D01*
X525442Y374700D01*
Y378699D01*
X530240Y373901D02*
X527042D01*
X530240Y377100D01*
Y377900D01*
X529441Y378699D01*
X527841D01*
X527042Y377900D01*
X535039D02*
X534239Y378699D01*
X532640D01*
X531840Y377900D01*
Y374700D01*
X532640Y373901D01*
X534239D01*
X535039Y374700D01*
X539837Y373901D02*
X536638D01*
X539837Y377100D01*
Y377900D01*
X539038Y378699D01*
X537438D01*
X536638Y377900D01*
X522243Y461599D02*
Y457600D01*
X523043Y456801D01*
X524642D01*
X525442Y457600D01*
Y461599D01*
X530240Y456801D02*
X527042D01*
X530240Y460000D01*
Y460800D01*
X529441Y461599D01*
X527841D01*
X527042Y460800D01*
X535039D02*
X534239Y461599D01*
X532640D01*
X531840Y460800D01*
Y457600D01*
X532640Y456801D01*
X534239D01*
X535039Y457600D01*
X536638Y456801D02*
X538238D01*
X537438D01*
Y461599D01*
X536638Y460800D01*
X422940Y230998D02*
Y227000D01*
X423740Y226200D01*
X425340D01*
X426139Y227000D01*
Y230998D01*
X427739Y226200D02*
X429339D01*
X428539D01*
Y230998D01*
X427739Y230199D01*
X434937D02*
X434137Y230998D01*
X432537D01*
X431738Y230199D01*
Y227000D01*
X432537Y226200D01*
X434137D01*
X434937Y227000D01*
X438935Y226200D02*
Y230998D01*
X436536Y228599D01*
X439735D01*
X422940Y313898D02*
Y309900D01*
X423740Y309100D01*
X425340D01*
X426139Y309900D01*
Y313898D01*
X427739Y309100D02*
X429339D01*
X428539D01*
Y313898D01*
X427739Y313099D01*
X434937D02*
X434137Y313898D01*
X432537D01*
X431738Y313099D01*
Y309900D01*
X432537Y309100D01*
X434137D01*
X434937Y309900D01*
X436536Y313099D02*
X437336Y313898D01*
X438935D01*
X439735Y313099D01*
Y312299D01*
X438935Y311499D01*
X438136D01*
X438935D01*
X439735Y310700D01*
Y309900D01*
X438935Y309100D01*
X437336D01*
X436536Y309900D01*
X422940Y396798D02*
Y392800D01*
X423740Y392000D01*
X425340D01*
X426139Y392800D01*
Y396798D01*
X427739Y392000D02*
X429339D01*
X428539D01*
Y396798D01*
X427739Y395999D01*
X434937D02*
X434137Y396798D01*
X432537D01*
X431738Y395999D01*
Y392800D01*
X432537Y392000D01*
X434137D01*
X434937Y392800D01*
X439735Y392000D02*
X436536D01*
X439735Y395199D01*
Y395999D01*
X438935Y396798D01*
X437336D01*
X436536Y395999D01*
X422940Y479698D02*
Y475700D01*
X423740Y474900D01*
X425340D01*
X426139Y475700D01*
Y479698D01*
X427739Y474900D02*
X429339D01*
X428539D01*
Y479698D01*
X427739Y478899D01*
X434937D02*
X434137Y479698D01*
X432537D01*
X431738Y478899D01*
Y475700D01*
X432537Y474900D01*
X434137D01*
X434937Y475700D01*
X436536Y474900D02*
X438136D01*
X437336D01*
Y479698D01*
X436536Y478899D01*
X394300Y360547D02*
X397498D01*
X395899D01*
Y355749D01*
X399098D02*
Y360547D01*
X401497D01*
X402297Y359747D01*
Y358148D01*
X401497Y357348D01*
X399098D01*
X400697D02*
X402297Y355749D01*
X406296D02*
Y360547D01*
X403896Y358148D01*
X407095D01*
X335400Y360547D02*
X338598D01*
X336999D01*
Y355749D01*
X340198D02*
Y360547D01*
X342597D01*
X343397Y359747D01*
Y358148D01*
X342597Y357348D01*
X340198D01*
X341797D02*
X343397Y355749D01*
X344996Y359747D02*
X345796Y360547D01*
X347396D01*
X348195Y359747D01*
Y358948D01*
X347396Y358148D01*
X346596D01*
X347396D01*
X348195Y357348D01*
Y356548D01*
X347396Y355749D01*
X345796D01*
X344996Y356548D01*
X335400Y431847D02*
X338598D01*
X336999D01*
Y427049D01*
X340198D02*
Y431847D01*
X342597D01*
X343397Y431047D01*
Y429448D01*
X342597Y428648D01*
X340198D01*
X341797D02*
X343397Y427049D01*
X348195D02*
X344996D01*
X348195Y430248D01*
Y431047D01*
X347396Y431847D01*
X345796D01*
X344996Y431047D01*
X394099Y431847D02*
X397299D01*
X395699D01*
Y427049D01*
X398898D02*
Y431847D01*
X401297D01*
X402097Y431047D01*
Y429448D01*
X401297Y428648D01*
X398898D01*
X400497D02*
X402097Y427049D01*
X403696D02*
X405296D01*
X404496D01*
Y431847D01*
X403696Y431047D01*
X189199Y397002D02*
X184401D01*
Y399401D01*
X185201Y400201D01*
X186800D01*
X187600Y399401D01*
Y397002D01*
Y398602D02*
X189199Y400201D01*
Y404999D02*
Y401800D01*
X186000Y404999D01*
X185201D01*
X184401Y404200D01*
Y402600D01*
X185201Y401800D01*
X184401Y409798D02*
X185201Y408198D01*
X186800Y406599D01*
X188400D01*
X189199Y407399D01*
Y408998D01*
X188400Y409798D01*
X187600D01*
X186800Y408998D01*
Y406599D01*
X189799Y375902D02*
X185001D01*
Y378301D01*
X185801Y379101D01*
X187400D01*
X188200Y378301D01*
Y375902D01*
Y377502D02*
X189799Y379101D01*
Y383899D02*
Y380700D01*
X186600Y383899D01*
X185801D01*
X185001Y383100D01*
Y381500D01*
X185801Y380700D01*
X185001Y388698D02*
Y385499D01*
X187400D01*
X186600Y387099D01*
Y387898D01*
X187400Y388698D01*
X188999D01*
X189799Y387898D01*
Y386299D01*
X188999Y385499D01*
X188999Y355602D02*
X184201D01*
Y358001D01*
X185001Y358801D01*
X186600D01*
X187400Y358001D01*
Y355602D01*
Y357202D02*
X188999Y358801D01*
Y363599D02*
Y360401D01*
X185800Y363599D01*
X185001D01*
X184201Y362800D01*
Y361200D01*
X185001Y360401D01*
X188999Y367598D02*
X184201D01*
X186600Y365199D01*
Y368398D01*
X189499Y334602D02*
X184701D01*
Y337001D01*
X185501Y337801D01*
X187100D01*
X187900Y337001D01*
Y334602D01*
Y336202D02*
X189499Y337801D01*
Y342600D02*
Y339401D01*
X186300Y342600D01*
X185501D01*
X184701Y341800D01*
Y340200D01*
X185501Y339401D01*
Y344199D02*
X184701Y344999D01*
Y346598D01*
X185501Y347398D01*
X186300D01*
X187100Y346598D01*
Y345798D01*
Y346598D01*
X187900Y347398D01*
X188699D01*
X189499Y346598D01*
Y344999D01*
X188699Y344199D01*
X184502Y235801D02*
Y240599D01*
X186901D01*
X187701Y239799D01*
Y238200D01*
X186901Y237400D01*
X184502D01*
X186101D02*
X187701Y235801D01*
X192499D02*
X189301D01*
X192499Y239000D01*
Y239799D01*
X191700Y240599D01*
X190100D01*
X189301Y239799D01*
X197298Y235801D02*
X194099D01*
X197298Y239000D01*
Y239799D01*
X196498Y240599D01*
X194899D01*
X194099Y239799D01*
X184502Y208801D02*
Y213599D01*
X186901D01*
X187701Y212800D01*
Y211200D01*
X186901Y210400D01*
X184502D01*
X186101D02*
X187701Y208801D01*
X192499D02*
X189300D01*
X192499Y212000D01*
Y212800D01*
X191700Y213599D01*
X190100D01*
X189300Y212800D01*
X194099Y208801D02*
X195698D01*
X194898D01*
Y213599D01*
X194099Y212800D01*
X270102Y382601D02*
Y387399D01*
X272501D01*
X273301Y386599D01*
Y385000D01*
X272501Y384200D01*
X270102D01*
X271702D02*
X273301Y382601D01*
X278099D02*
X274901D01*
X278099Y385800D01*
Y386599D01*
X277300Y387399D01*
X275700D01*
X274901Y386599D01*
X279699D02*
X280499Y387399D01*
X282098D01*
X282898Y386599D01*
Y383401D01*
X282098Y382601D01*
X280499D01*
X279699Y383401D01*
Y386599D01*
X300102Y414701D02*
Y419499D01*
X302501D01*
X303301Y418700D01*
Y417100D01*
X302501Y416300D01*
X300102D01*
X301701D02*
X303301Y414701D01*
X304900D02*
X306500D01*
X305700D01*
Y419499D01*
X304900Y418700D01*
X308899Y415500D02*
X309699Y414701D01*
X311298D01*
X312098Y415500D01*
Y418700D01*
X311298Y419499D01*
X309699D01*
X308899Y418700D01*
Y417900D01*
X309699Y417100D01*
X312098D01*
X271902Y406201D02*
Y410999D01*
X274301D01*
X275101Y410199D01*
Y408600D01*
X274301Y407800D01*
X271902D01*
X273501D02*
X275101Y406201D01*
X276700D02*
X278300D01*
X277500D01*
Y410999D01*
X276700Y410199D01*
X280699D02*
X281499Y410999D01*
X283098D01*
X283898Y410199D01*
Y409400D01*
X283098Y408600D01*
X283898Y407800D01*
Y407000D01*
X283098Y406201D01*
X281499D01*
X280699Y407000D01*
Y407800D01*
X281499Y408600D01*
X280699Y409400D01*
Y410199D01*
X281499Y408600D02*
X283098D01*
X300102Y389201D02*
Y393999D01*
X302501D01*
X303301Y393199D01*
Y391600D01*
X302501Y390800D01*
X300102D01*
X301701D02*
X303301Y389201D01*
X304900D02*
X306500D01*
X305700D01*
Y393999D01*
X304900Y393199D01*
X308899Y393999D02*
X312098D01*
Y393199D01*
X308899Y390001D01*
Y389201D01*
X146202Y431101D02*
Y435899D01*
X148601D01*
X149401Y435100D01*
Y433500D01*
X148601Y432700D01*
X146202D01*
X147801D02*
X149401Y431101D01*
X151000D02*
X152600D01*
X151800D01*
Y435899D01*
X151000Y435100D01*
X158198Y435899D02*
X156599Y435100D01*
X154999Y433500D01*
Y431901D01*
X155799Y431101D01*
X157398D01*
X158198Y431901D01*
Y432700D01*
X157398Y433500D01*
X154999D01*
X300102Y423201D02*
Y427999D01*
X302501D01*
X303301Y427200D01*
Y425600D01*
X302501Y424800D01*
X300102D01*
X301701D02*
X303301Y423201D01*
X304900D02*
X306500D01*
X305700D01*
Y427999D01*
X304900Y427200D01*
X312098Y427999D02*
X308899D01*
Y425600D01*
X310499Y426400D01*
X311298D01*
X312098Y425600D01*
Y424001D01*
X311298Y423201D01*
X309699D01*
X308899Y424001D01*
X111599Y392002D02*
X106801D01*
Y394401D01*
X107600Y395201D01*
X109200D01*
X110000Y394401D01*
Y392002D01*
Y393601D02*
X111599Y395201D01*
Y396800D02*
Y398400D01*
Y397600D01*
X106801D01*
X107600Y396800D01*
Y400799D02*
X106801Y401599D01*
Y403198D01*
X107600Y403998D01*
X108400D01*
X109200Y403198D01*
Y402399D01*
Y403198D01*
X110000Y403998D01*
X110800D01*
X111599Y403198D01*
Y401599D01*
X110800Y400799D01*
X111599Y374502D02*
X106801D01*
Y376901D01*
X107600Y377701D01*
X109200D01*
X110000Y376901D01*
Y374502D01*
Y376101D02*
X111599Y377701D01*
Y379300D02*
Y380900D01*
Y380100D01*
X106801D01*
X107600Y379300D01*
X111599Y386498D02*
Y383299D01*
X108400Y386498D01*
X107600D01*
X106801Y385698D01*
Y384099D01*
X107600Y383299D01*
X111699Y357002D02*
X106901D01*
Y359401D01*
X107701Y360201D01*
X109300D01*
X110100Y359401D01*
Y357002D01*
Y358601D02*
X111699Y360201D01*
Y361800D02*
Y363400D01*
Y362600D01*
X106901D01*
X107701Y361800D01*
X111699Y365799D02*
Y367398D01*
Y366599D01*
X106901D01*
X107701Y365799D01*
X111699Y339402D02*
X106901D01*
Y341801D01*
X107701Y342601D01*
X109300D01*
X110100Y341801D01*
Y339402D01*
Y341001D02*
X111699Y342601D01*
Y344200D02*
Y345800D01*
Y345000D01*
X106901D01*
X107701Y344200D01*
Y348199D02*
X106901Y348999D01*
Y350598D01*
X107701Y351398D01*
X110899D01*
X111699Y350598D01*
Y348999D01*
X110899Y348199D01*
X107701D01*
X376801Y314901D02*
Y319699D01*
X379201D01*
X380000Y318899D01*
Y317300D01*
X379201Y316500D01*
X376801D01*
X378401D02*
X380000Y314901D01*
X381600Y318899D02*
X382400Y319699D01*
X383999D01*
X384799Y318899D01*
Y318100D01*
X383999Y317300D01*
X384799Y316500D01*
Y315701D01*
X383999Y314901D01*
X382400D01*
X381600Y315701D01*
Y316500D01*
X382400Y317300D01*
X381600Y318100D01*
Y318899D01*
X382400Y317300D02*
X383999D01*
X355601Y314901D02*
Y319699D01*
X358000D01*
X358800Y318899D01*
Y317300D01*
X358000Y316500D01*
X355601D01*
X357201D02*
X358800Y314901D01*
X360400Y319699D02*
X363599D01*
Y318899D01*
X360400Y315701D01*
Y314901D01*
X355701Y420301D02*
Y425099D01*
X358101D01*
X358900Y424299D01*
Y422700D01*
X358101Y421900D01*
X355701D01*
X357301D02*
X358900Y420301D01*
X363699Y425099D02*
X362099Y424299D01*
X360500Y422700D01*
Y421101D01*
X361299Y420301D01*
X362899D01*
X363699Y421101D01*
Y421900D01*
X362899Y422700D01*
X360500D01*
X376901Y420301D02*
Y425099D01*
X379300D01*
X380100Y424299D01*
Y422700D01*
X379300Y421900D01*
X376901D01*
X378501D02*
X380100Y420301D01*
X384899Y425099D02*
X381700D01*
Y422700D01*
X383299Y423500D01*
X384099D01*
X384899Y422700D01*
Y421101D01*
X384099Y420301D01*
X382500D01*
X381700Y421101D01*
X482943Y230001D02*
Y234799D01*
X485342D01*
X486142Y233999D01*
Y232400D01*
X485342Y231600D01*
X482943D01*
X484543D02*
X486142Y230001D01*
X490141D02*
Y234799D01*
X487742Y232400D01*
X490941D01*
X495739Y233999D02*
X494939Y234799D01*
X493340D01*
X492540Y233999D01*
Y230801D01*
X493340Y230001D01*
X494939D01*
X495739Y230801D01*
X499738Y230001D02*
Y234799D01*
X497338Y232400D01*
X500537D01*
X482943Y312901D02*
Y317699D01*
X485342D01*
X486142Y316899D01*
Y315300D01*
X485342Y314500D01*
X482943D01*
X484543D02*
X486142Y312901D01*
X490141D02*
Y317699D01*
X487742Y315300D01*
X490941D01*
X495739Y316899D02*
X494939Y317699D01*
X493340D01*
X492540Y316899D01*
Y313701D01*
X493340Y312901D01*
X494939D01*
X495739Y313701D01*
X497338Y316899D02*
X498138Y317699D01*
X499738D01*
X500537Y316899D01*
Y316100D01*
X499738Y315300D01*
X498938D01*
X499738D01*
X500537Y314500D01*
Y313701D01*
X499738Y312901D01*
X498138D01*
X497338Y313701D01*
X482943Y395801D02*
Y400599D01*
X485342D01*
X486142Y399799D01*
Y398200D01*
X485342Y397400D01*
X482943D01*
X484543D02*
X486142Y395801D01*
X490141D02*
Y400599D01*
X487742Y398200D01*
X490941D01*
X495739Y399799D02*
X494939Y400599D01*
X493340D01*
X492540Y399799D01*
Y396601D01*
X493340Y395801D01*
X494939D01*
X495739Y396601D01*
X500537Y395801D02*
X497338D01*
X500537Y399000D01*
Y399799D01*
X499738Y400599D01*
X498138D01*
X497338Y399799D01*
X482943Y478701D02*
Y483499D01*
X485342D01*
X486142Y482699D01*
Y481100D01*
X485342Y480300D01*
X482943D01*
X484543D02*
X486142Y478701D01*
X490141D02*
Y483499D01*
X487742Y481100D01*
X490941D01*
X495739Y482699D02*
X494939Y483499D01*
X493340D01*
X492540Y482699D01*
Y479500D01*
X493340Y478701D01*
X494939D01*
X495739Y479500D01*
X497338Y478701D02*
X498938D01*
X498138D01*
Y483499D01*
X497338Y482699D01*
X483743Y175101D02*
Y179899D01*
X486142D01*
X486942Y179100D01*
Y177500D01*
X486142Y176700D01*
X483743D01*
X485343D02*
X486942Y175101D01*
X488542Y179100D02*
X489341Y179899D01*
X490941D01*
X491741Y179100D01*
Y178300D01*
X490941Y177500D01*
X490141D01*
X490941D01*
X491741Y176700D01*
Y175900D01*
X490941Y175101D01*
X489341D01*
X488542Y175900D01*
X496539Y179100D02*
X495739Y179899D01*
X494140D01*
X493340Y179100D01*
Y175900D01*
X494140Y175101D01*
X495739D01*
X496539Y175900D01*
X500538Y175101D02*
Y179899D01*
X498139Y177500D01*
X501337D01*
X483743Y258001D02*
Y262799D01*
X486142D01*
X486942Y262000D01*
Y260400D01*
X486142Y259600D01*
X483743D01*
X485343D02*
X486942Y258001D01*
X488542Y262000D02*
X489341Y262799D01*
X490941D01*
X491741Y262000D01*
Y261200D01*
X490941Y260400D01*
X490141D01*
X490941D01*
X491741Y259600D01*
Y258801D01*
X490941Y258001D01*
X489341D01*
X488542Y258801D01*
X496539Y262000D02*
X495739Y262799D01*
X494140D01*
X493340Y262000D01*
Y258801D01*
X494140Y258001D01*
X495739D01*
X496539Y258801D01*
X498139Y262000D02*
X498938Y262799D01*
X500538D01*
X501337Y262000D01*
Y261200D01*
X500538Y260400D01*
X499738D01*
X500538D01*
X501337Y259600D01*
Y258801D01*
X500538Y258001D01*
X498938D01*
X498139Y258801D01*
X483743Y340901D02*
Y345699D01*
X486142D01*
X486942Y344900D01*
Y343300D01*
X486142Y342500D01*
X483743D01*
X485343D02*
X486942Y340901D01*
X488542Y344900D02*
X489341Y345699D01*
X490941D01*
X491741Y344900D01*
Y344100D01*
X490941Y343300D01*
X490141D01*
X490941D01*
X491741Y342500D01*
Y341701D01*
X490941Y340901D01*
X489341D01*
X488542Y341701D01*
X496539Y344900D02*
X495739Y345699D01*
X494140D01*
X493340Y344900D01*
Y341701D01*
X494140Y340901D01*
X495739D01*
X496539Y341701D01*
X501337Y340901D02*
X498139D01*
X501337Y344100D01*
Y344900D01*
X500538Y345699D01*
X498938D01*
X498139Y344900D01*
X483743Y423801D02*
Y428599D01*
X486142D01*
X486942Y427800D01*
Y426200D01*
X486142Y425400D01*
X483743D01*
X485343D02*
X486942Y423801D01*
X488542Y427800D02*
X489341Y428599D01*
X490941D01*
X491741Y427800D01*
Y427000D01*
X490941Y426200D01*
X490141D01*
X490941D01*
X491741Y425400D01*
Y424601D01*
X490941Y423801D01*
X489341D01*
X488542Y424601D01*
X496539Y427800D02*
X495739Y428599D01*
X494140D01*
X493340Y427800D01*
Y424601D01*
X494140Y423801D01*
X495739D01*
X496539Y424601D01*
X498139Y423801D02*
X499738D01*
X498938D01*
Y428599D01*
X498139Y427800D01*
X482943Y236301D02*
Y241099D01*
X485342D01*
X486142Y240300D01*
Y238700D01*
X485342Y237900D01*
X482943D01*
X484543D02*
X486142Y236301D01*
X490941D02*
X487742D01*
X490941Y239500D01*
Y240300D01*
X490141Y241099D01*
X488541D01*
X487742Y240300D01*
X495739D02*
X494939Y241099D01*
X493340D01*
X492540Y240300D01*
Y237101D01*
X493340Y236301D01*
X494939D01*
X495739Y237101D01*
X499738Y236301D02*
Y241099D01*
X497338Y238700D01*
X500537D01*
X482943Y319201D02*
Y323999D01*
X485342D01*
X486142Y323200D01*
Y321600D01*
X485342Y320800D01*
X482943D01*
X484543D02*
X486142Y319201D01*
X490941D02*
X487742D01*
X490941Y322400D01*
Y323200D01*
X490141Y323999D01*
X488541D01*
X487742Y323200D01*
X495739D02*
X494939Y323999D01*
X493340D01*
X492540Y323200D01*
Y320001D01*
X493340Y319201D01*
X494939D01*
X495739Y320001D01*
X497338Y323200D02*
X498138Y323999D01*
X499738D01*
X500537Y323200D01*
Y322400D01*
X499738Y321600D01*
X498938D01*
X499738D01*
X500537Y320800D01*
Y320001D01*
X499738Y319201D01*
X498138D01*
X497338Y320001D01*
X482943Y402101D02*
Y406899D01*
X485342D01*
X486142Y406100D01*
Y404500D01*
X485342Y403700D01*
X482943D01*
X484543D02*
X486142Y402101D01*
X490941D02*
X487742D01*
X490941Y405300D01*
Y406100D01*
X490141Y406899D01*
X488541D01*
X487742Y406100D01*
X495739D02*
X494939Y406899D01*
X493340D01*
X492540Y406100D01*
Y402901D01*
X493340Y402101D01*
X494939D01*
X495739Y402901D01*
X500537Y402101D02*
X497338D01*
X500537Y405300D01*
Y406100D01*
X499738Y406899D01*
X498138D01*
X497338Y406100D01*
X482943Y485001D02*
Y489799D01*
X485342D01*
X486142Y489000D01*
Y487400D01*
X485342Y486600D01*
X482943D01*
X484543D02*
X486142Y485001D01*
X490941D02*
X487742D01*
X490941Y488200D01*
Y489000D01*
X490141Y489799D01*
X488541D01*
X487742Y489000D01*
X495739D02*
X494939Y489799D01*
X493340D01*
X492540Y489000D01*
Y485801D01*
X493340Y485001D01*
X494939D01*
X495739Y485801D01*
X497338Y485001D02*
X498938D01*
X498138D01*
Y489799D01*
X497338Y489000D01*
X482443Y195201D02*
Y199999D01*
X484842D01*
X485642Y199199D01*
Y197600D01*
X484842Y196800D01*
X482443D01*
X484043D02*
X485642Y195201D01*
X487241D02*
X488841D01*
X488041D01*
Y199999D01*
X487241Y199199D01*
X494439D02*
X493639Y199999D01*
X492040D01*
X491240Y199199D01*
Y196001D01*
X492040Y195201D01*
X493639D01*
X494439Y196001D01*
X498438Y195201D02*
Y199999D01*
X496039Y197600D01*
X499238D01*
X482443Y278101D02*
Y282899D01*
X484842D01*
X485642Y282100D01*
Y280500D01*
X484842Y279700D01*
X482443D01*
X484043D02*
X485642Y278101D01*
X487241D02*
X488841D01*
X488041D01*
Y282899D01*
X487241Y282100D01*
X494439D02*
X493639Y282899D01*
X492040D01*
X491240Y282100D01*
Y278901D01*
X492040Y278101D01*
X493639D01*
X494439Y278901D01*
X496039Y282100D02*
X496838Y282899D01*
X498438D01*
X499238Y282100D01*
Y281300D01*
X498438Y280500D01*
X497638D01*
X498438D01*
X499238Y279700D01*
Y278901D01*
X498438Y278101D01*
X496838D01*
X496039Y278901D01*
X482443Y361001D02*
Y365799D01*
X484842D01*
X485642Y365000D01*
Y363400D01*
X484842Y362600D01*
X482443D01*
X484043D02*
X485642Y361001D01*
X487241D02*
X488841D01*
X488041D01*
Y365799D01*
X487241Y365000D01*
X494439D02*
X493639Y365799D01*
X492040D01*
X491240Y365000D01*
Y361801D01*
X492040Y361001D01*
X493639D01*
X494439Y361801D01*
X499238Y361001D02*
X496039D01*
X499238Y364200D01*
Y365000D01*
X498438Y365799D01*
X496838D01*
X496039Y365000D01*
X482443Y443901D02*
Y448699D01*
X484842D01*
X485642Y447899D01*
Y446300D01*
X484842Y445500D01*
X482443D01*
X484043D02*
X485642Y443901D01*
X487241D02*
X488841D01*
X488041D01*
Y448699D01*
X487241Y447899D01*
X494439D02*
X493639Y448699D01*
X492040D01*
X491240Y447899D01*
Y444700D01*
X492040Y443901D01*
X493639D01*
X494439Y444700D01*
X496039Y443901D02*
X497638D01*
X496838D01*
Y448699D01*
X496039Y447899D01*
X166600Y412001D02*
Y415200D01*
X165800Y415999D01*
X164201D01*
X163401Y415200D01*
Y412001D01*
X164201Y411201D01*
X165800D01*
X165001Y412800D02*
X166600Y411201D01*
X165800D02*
X166600Y412001D01*
X171399Y415999D02*
X169799Y415200D01*
X168200Y413600D01*
Y412001D01*
X169000Y411201D01*
X170599D01*
X171399Y412001D01*
Y412800D01*
X170599Y413600D01*
X168200D01*
X166600Y391001D02*
Y394199D01*
X165800Y394999D01*
X164201D01*
X163401Y394199D01*
Y391001D01*
X164201Y390201D01*
X165800D01*
X165001Y391800D02*
X166600Y390201D01*
X165800D02*
X166600Y391001D01*
X171399Y394999D02*
X168200D01*
Y392600D01*
X169799Y393400D01*
X170599D01*
X171399Y392600D01*
Y391001D01*
X170599Y390201D01*
X169000D01*
X168200Y391001D01*
X166700Y370800D02*
Y374000D01*
X165901Y374799D01*
X164301D01*
X163501Y374000D01*
Y370800D01*
X164301Y370001D01*
X165901D01*
X165101Y371600D02*
X166700Y370001D01*
X165901D02*
X166700Y370800D01*
X170699Y370001D02*
Y374799D01*
X168300Y372400D01*
X171499D01*
X166600Y349500D02*
Y352699D01*
X165800Y353499D01*
X164201D01*
X163401Y352699D01*
Y349500D01*
X164201Y348701D01*
X165800D01*
X165001Y350300D02*
X166600Y348701D01*
X165800D02*
X166600Y349500D01*
X168200Y352699D02*
X169000Y353499D01*
X170599D01*
X171399Y352699D01*
Y351900D01*
X170599Y351100D01*
X169799D01*
X170599D01*
X171399Y350300D01*
Y349500D01*
X170599Y348701D01*
X169000D01*
X168200Y349500D01*
X177899Y475999D02*
Y479199D01*
X177099Y479998D01*
X175499D01*
X174700Y479199D01*
Y475999D01*
X175499Y475200D01*
X177099D01*
X176299Y476799D02*
X177899Y475200D01*
X177099D02*
X177899Y475999D01*
X182697Y475200D02*
X179498D01*
X182697Y478399D01*
Y479199D01*
X181897Y479998D01*
X180298D01*
X179498Y479199D01*
X508442Y234501D02*
Y237700D01*
X507642Y238499D01*
X506043D01*
X505243Y237700D01*
Y234501D01*
X506043Y233701D01*
X507642D01*
X506843Y235300D02*
X508442Y233701D01*
X507642D02*
X508442Y234501D01*
X510041Y233701D02*
X511641D01*
X510841D01*
Y238499D01*
X510041Y237700D01*
X517239D02*
X516439Y238499D01*
X514840D01*
X514040Y237700D01*
Y234501D01*
X514840Y233701D01*
X516439D01*
X517239Y234501D01*
X521238Y233701D02*
Y238499D01*
X518839Y236100D01*
X522038D01*
X508442Y317401D02*
Y320600D01*
X507642Y321399D01*
X506043D01*
X505243Y320600D01*
Y317401D01*
X506043Y316601D01*
X507642D01*
X506843Y318200D02*
X508442Y316601D01*
X507642D02*
X508442Y317401D01*
X510041Y316601D02*
X511641D01*
X510841D01*
Y321399D01*
X510041Y320600D01*
X517239D02*
X516439Y321399D01*
X514840D01*
X514040Y320600D01*
Y317401D01*
X514840Y316601D01*
X516439D01*
X517239Y317401D01*
X518839Y320600D02*
X519638Y321399D01*
X521238D01*
X522038Y320600D01*
Y319800D01*
X521238Y319000D01*
X520438D01*
X521238D01*
X522038Y318200D01*
Y317401D01*
X521238Y316601D01*
X519638D01*
X518839Y317401D01*
X508442Y400301D02*
Y403500D01*
X507642Y404299D01*
X506043D01*
X505243Y403500D01*
Y400301D01*
X506043Y399501D01*
X507642D01*
X506843Y401100D02*
X508442Y399501D01*
X507642D02*
X508442Y400301D01*
X510041Y399501D02*
X511641D01*
X510841D01*
Y404299D01*
X510041Y403500D01*
X517239D02*
X516439Y404299D01*
X514840D01*
X514040Y403500D01*
Y400301D01*
X514840Y399501D01*
X516439D01*
X517239Y400301D01*
X522038Y399501D02*
X518839D01*
X522038Y402700D01*
Y403500D01*
X521238Y404299D01*
X519638D01*
X518839Y403500D01*
X508442Y483201D02*
Y486400D01*
X507642Y487199D01*
X506043D01*
X505243Y486400D01*
Y483201D01*
X506043Y482401D01*
X507642D01*
X506843Y484000D02*
X508442Y482401D01*
X507642D02*
X508442Y483201D01*
X510041Y482401D02*
X511641D01*
X510841D01*
Y487199D01*
X510041Y486400D01*
X517239D02*
X516439Y487199D01*
X514840D01*
X514040Y486400D01*
Y483201D01*
X514840Y482401D01*
X516439D01*
X517239Y483201D01*
X518839Y482401D02*
X520438D01*
X519638D01*
Y487199D01*
X518839Y486400D01*
X310300Y198498D02*
Y193700D01*
Y195299D01*
X313499Y198498D01*
X311100Y196099D01*
X313499Y193700D01*
X318297Y198498D02*
X315098D01*
Y196099D01*
X316698Y196899D01*
X317498D01*
X318297Y196099D01*
Y194500D01*
X317498Y193700D01*
X315898D01*
X315098Y194500D01*
X221001Y492399D02*
Y487601D01*
X224200D01*
X228999D02*
X225800D01*
X228999Y490800D01*
Y491600D01*
X228199Y492399D01*
X226600D01*
X225800Y491600D01*
X104573Y484566D02*
Y479768D01*
Y481367D01*
X107772Y484566D01*
X105373Y482167D01*
X107772Y479768D01*
X111771D02*
Y484566D01*
X109372Y482167D01*
X112571D01*
X160801Y257599D02*
Y252801D01*
Y254400D01*
X164000Y257599D01*
X161601Y255200D01*
X164000Y252801D01*
X165600Y256800D02*
X166400Y257599D01*
X167999D01*
X168799Y256800D01*
Y256000D01*
X167999Y255200D01*
X167199D01*
X167999D01*
X168799Y254400D01*
Y253601D01*
X167999Y252801D01*
X166400D01*
X165600Y253601D01*
X160801Y210599D02*
Y205801D01*
Y207400D01*
X164000Y210599D01*
X161601Y208200D01*
X164000Y205801D01*
X168799D02*
X165600D01*
X168799Y209000D01*
Y209800D01*
X167999Y210599D01*
X166400D01*
X165600Y209800D01*
X576643Y227399D02*
Y222601D01*
Y224200D01*
X579842Y227399D01*
X577443Y225000D01*
X579842Y222601D01*
X581441D02*
X583041D01*
X582241D01*
Y227399D01*
X581441Y226600D01*
X588639D02*
X587839Y227399D01*
X586240D01*
X585440Y226600D01*
Y223400D01*
X586240Y222601D01*
X587839D01*
X588639Y223400D01*
X592638Y222601D02*
Y227399D01*
X590239Y225000D01*
X593438D01*
X576643Y310299D02*
Y305501D01*
Y307100D01*
X579842Y310299D01*
X577443Y307900D01*
X579842Y305501D01*
X581441D02*
X583041D01*
X582241D01*
Y310299D01*
X581441Y309500D01*
X588639D02*
X587839Y310299D01*
X586240D01*
X585440Y309500D01*
Y306300D01*
X586240Y305501D01*
X587839D01*
X588639Y306300D01*
X590239Y309500D02*
X591038Y310299D01*
X592638D01*
X593438Y309500D01*
Y308700D01*
X592638Y307900D01*
X591838D01*
X592638D01*
X593438Y307100D01*
Y306300D01*
X592638Y305501D01*
X591038D01*
X590239Y306300D01*
X576643Y393199D02*
Y388401D01*
Y390000D01*
X579842Y393199D01*
X577443Y390800D01*
X579842Y388401D01*
X581441D02*
X583041D01*
X582241D01*
Y393199D01*
X581441Y392400D01*
X588639D02*
X587839Y393199D01*
X586240D01*
X585440Y392400D01*
Y389200D01*
X586240Y388401D01*
X587839D01*
X588639Y389200D01*
X593438Y388401D02*
X590239D01*
X593438Y391600D01*
Y392400D01*
X592638Y393199D01*
X591038D01*
X590239Y392400D01*
X576643Y476099D02*
Y471301D01*
Y472900D01*
X579842Y476099D01*
X577443Y473700D01*
X579842Y471301D01*
X581441D02*
X583041D01*
X582241D01*
Y476099D01*
X581441Y475300D01*
X588639D02*
X587839Y476099D01*
X586240D01*
X585440Y475300D01*
Y472100D01*
X586240Y471301D01*
X587839D01*
X588639Y472100D01*
X590239Y471301D02*
X591838D01*
X591038D01*
Y476099D01*
X590239Y475300D01*
X107900Y317399D02*
X106300D01*
X107100D01*
Y313401D01*
X106300Y312601D01*
X105501D01*
X104701Y313401D01*
X109500Y312601D02*
X111099D01*
X110299D01*
Y317399D01*
X109500Y316599D01*
X381469Y297101D02*
Y293902D01*
X383869D01*
Y295501D01*
Y293902D01*
X386268D01*
X381469Y298700D02*
X386268D01*
Y301100D01*
X385468Y301900D01*
X384668D01*
X383869Y301100D01*
Y298700D01*
Y301100D01*
X383069Y301900D01*
X382269D01*
X381469Y301100D01*
Y298700D01*
Y306698D02*
Y303499D01*
X383869D01*
X383069Y305099D01*
Y305898D01*
X383869Y306698D01*
X385468D01*
X386268Y305898D01*
Y304299D01*
X385468Y303499D01*
X218101Y236099D02*
X214902D01*
Y233700D01*
X216501D01*
X214902D01*
Y231301D01*
X219701Y236099D02*
Y231301D01*
X222100D01*
X222900Y232101D01*
Y232900D01*
X222100Y233700D01*
X219701D01*
X222100D01*
X222900Y234500D01*
Y235299D01*
X222100Y236099D01*
X219701D01*
X226898Y231301D02*
Y236099D01*
X224499Y233700D01*
X227698D01*
X218201Y259099D02*
X215002D01*
Y256700D01*
X216601D01*
X215002D01*
Y254301D01*
X219800Y259099D02*
Y254301D01*
X222200D01*
X223000Y255100D01*
Y255900D01*
X222200Y256700D01*
X219800D01*
X222200D01*
X223000Y257500D01*
Y258299D01*
X222200Y259099D01*
X219800D01*
X224599Y258299D02*
X225399Y259099D01*
X226998D01*
X227798Y258299D01*
Y257500D01*
X226998Y256700D01*
X226199D01*
X226998D01*
X227798Y255900D01*
Y255100D01*
X226998Y254301D01*
X225399D01*
X224599Y255100D01*
X531443Y206499D02*
X528244D01*
Y204100D01*
X529843D01*
X528244D01*
Y201701D01*
X533042Y206499D02*
Y201701D01*
X535442D01*
X536241Y202501D01*
Y203300D01*
X535442Y204100D01*
X533042D01*
X535442D01*
X536241Y204900D01*
Y205699D01*
X535442Y206499D01*
X533042D01*
X541040Y201701D02*
X537841D01*
X541040Y204900D01*
Y205699D01*
X540240Y206499D01*
X538640D01*
X537841Y205699D01*
X545838D02*
X545039Y206499D01*
X543439D01*
X542639Y205699D01*
Y202501D01*
X543439Y201701D01*
X545039D01*
X545838Y202501D01*
X549837Y201701D02*
Y206499D01*
X547438Y204100D01*
X550637D01*
X531443Y289399D02*
X528244D01*
Y287000D01*
X529843D01*
X528244D01*
Y284601D01*
X533042Y289399D02*
Y284601D01*
X535442D01*
X536241Y285401D01*
Y286200D01*
X535442Y287000D01*
X533042D01*
X535442D01*
X536241Y287800D01*
Y288599D01*
X535442Y289399D01*
X533042D01*
X541040Y284601D02*
X537841D01*
X541040Y287800D01*
Y288599D01*
X540240Y289399D01*
X538640D01*
X537841Y288599D01*
X545838D02*
X545039Y289399D01*
X543439D01*
X542639Y288599D01*
Y285401D01*
X543439Y284601D01*
X545039D01*
X545838Y285401D01*
X547438Y288599D02*
X548237Y289399D01*
X549837D01*
X550637Y288599D01*
Y287800D01*
X549837Y287000D01*
X549037D01*
X549837D01*
X550637Y286200D01*
Y285401D01*
X549837Y284601D01*
X548237D01*
X547438Y285401D01*
X531443Y372299D02*
X528244D01*
Y369900D01*
X529843D01*
X528244D01*
Y367501D01*
X533042Y372299D02*
Y367501D01*
X535442D01*
X536241Y368301D01*
Y369100D01*
X535442Y369900D01*
X533042D01*
X535442D01*
X536241Y370700D01*
Y371499D01*
X535442Y372299D01*
X533042D01*
X541040Y367501D02*
X537841D01*
X541040Y370700D01*
Y371499D01*
X540240Y372299D01*
X538640D01*
X537841Y371499D01*
X545838D02*
X545039Y372299D01*
X543439D01*
X542639Y371499D01*
Y368301D01*
X543439Y367501D01*
X545039D01*
X545838Y368301D01*
X550637Y367501D02*
X547438D01*
X550637Y370700D01*
Y371499D01*
X549837Y372299D01*
X548237D01*
X547438Y371499D01*
X531443Y455199D02*
X528244D01*
Y452800D01*
X529843D01*
X528244D01*
Y450401D01*
X533042Y455199D02*
Y450401D01*
X535442D01*
X536241Y451200D01*
Y452000D01*
X535442Y452800D01*
X533042D01*
X535442D01*
X536241Y453600D01*
Y454399D01*
X535442Y455199D01*
X533042D01*
X541040Y450401D02*
X537841D01*
X541040Y453600D01*
Y454399D01*
X540240Y455199D01*
X538640D01*
X537841Y454399D01*
X545838D02*
X545039Y455199D01*
X543439D01*
X542639Y454399D01*
Y451200D01*
X543439Y450401D01*
X545039D01*
X545838Y451200D01*
X547438Y450401D02*
X549037D01*
X548237D01*
Y455199D01*
X547438Y454399D01*
X531143Y184099D02*
X527944D01*
Y181700D01*
X529543D01*
X527944D01*
Y179301D01*
X532742Y184099D02*
Y179301D01*
X535141D01*
X535941Y180101D01*
Y180900D01*
X535141Y181700D01*
X532742D01*
X535141D01*
X535941Y182500D01*
Y183300D01*
X535141Y184099D01*
X532742D01*
X537541Y179301D02*
X539140D01*
X538340D01*
Y184099D01*
X537541Y183300D01*
X544738D02*
X543939Y184099D01*
X542339D01*
X541539Y183300D01*
Y180101D01*
X542339Y179301D01*
X543939D01*
X544738Y180101D01*
X548737Y179301D02*
Y184099D01*
X546338Y181700D01*
X549537D01*
X531143Y266999D02*
X527944D01*
Y264600D01*
X529543D01*
X527944D01*
Y262201D01*
X532742Y266999D02*
Y262201D01*
X535141D01*
X535941Y263000D01*
Y263800D01*
X535141Y264600D01*
X532742D01*
X535141D01*
X535941Y265400D01*
Y266199D01*
X535141Y266999D01*
X532742D01*
X537541Y262201D02*
X539140D01*
X538340D01*
Y266999D01*
X537541Y266199D01*
X544738D02*
X543939Y266999D01*
X542339D01*
X541539Y266199D01*
Y263000D01*
X542339Y262201D01*
X543939D01*
X544738Y263000D01*
X546338Y266199D02*
X547138Y266999D01*
X548737D01*
X549537Y266199D01*
Y265400D01*
X548737Y264600D01*
X547937D01*
X548737D01*
X549537Y263800D01*
Y263000D01*
X548737Y262201D01*
X547138D01*
X546338Y263000D01*
X531143Y349899D02*
X527944D01*
Y347500D01*
X529543D01*
X527944D01*
Y345101D01*
X532742Y349899D02*
Y345101D01*
X535141D01*
X535941Y345901D01*
Y346700D01*
X535141Y347500D01*
X532742D01*
X535141D01*
X535941Y348300D01*
Y349099D01*
X535141Y349899D01*
X532742D01*
X537541Y345101D02*
X539140D01*
X538340D01*
Y349899D01*
X537541Y349099D01*
X544738D02*
X543939Y349899D01*
X542339D01*
X541539Y349099D01*
Y345901D01*
X542339Y345101D01*
X543939D01*
X544738Y345901D01*
X549537Y345101D02*
X546338D01*
X549537Y348300D01*
Y349099D01*
X548737Y349899D01*
X547138D01*
X546338Y349099D01*
X531143Y432799D02*
X527944D01*
Y430400D01*
X529543D01*
X527944D01*
Y428001D01*
X532742Y432799D02*
Y428001D01*
X535141D01*
X535941Y428800D01*
Y429600D01*
X535141Y430400D01*
X532742D01*
X535141D01*
X535941Y431200D01*
Y431999D01*
X535141Y432799D01*
X532742D01*
X537541Y428001D02*
X539140D01*
X538340D01*
Y432799D01*
X537541Y431999D01*
X544738D02*
X543939Y432799D01*
X542339D01*
X541539Y431999D01*
Y428800D01*
X542339Y428001D01*
X543939D01*
X544738Y428800D01*
X546338Y428001D02*
X547937D01*
X547138D01*
Y432799D01*
X546338Y431999D01*
X144300Y458899D02*
X141101D01*
Y456500D01*
X142701D01*
X141101D01*
Y454101D01*
X145899D02*
X147499D01*
X146699D01*
Y458899D01*
X145899Y458100D01*
X182902Y425299D02*
Y420501D01*
X185301D01*
X186101Y421301D01*
Y424500D01*
X185301Y425299D01*
X182902D01*
X187700Y420501D02*
X189300D01*
X188500D01*
Y425299D01*
X187700Y424500D01*
X191699Y420501D02*
X193298D01*
X192499D01*
Y425299D01*
X191699Y424500D01*
X558801Y211903D02*
X563599D01*
Y214302D01*
X562800Y215102D01*
X559600D01*
X558801Y214302D01*
Y211903D01*
Y219900D02*
X559600Y218301D01*
X561200Y216701D01*
X562800D01*
X563599Y217501D01*
Y219100D01*
X562800Y219900D01*
X562000D01*
X561200Y219100D01*
Y216701D01*
X559600Y224698D02*
X558801Y223899D01*
Y222299D01*
X559600Y221499D01*
X562800D01*
X563599Y222299D01*
Y223899D01*
X562800Y224698D01*
X563599Y228697D02*
X558801D01*
X561200Y226298D01*
Y229497D01*
X558801Y294803D02*
X563599D01*
Y297202D01*
X562800Y298002D01*
X559600D01*
X558801Y297202D01*
Y294803D01*
Y302800D02*
X559600Y301201D01*
X561200Y299601D01*
X562800D01*
X563599Y300401D01*
Y302000D01*
X562800Y302800D01*
X562000D01*
X561200Y302000D01*
Y299601D01*
X559600Y307598D02*
X558801Y306799D01*
Y305199D01*
X559600Y304399D01*
X562800D01*
X563599Y305199D01*
Y306799D01*
X562800Y307598D01*
X559600Y309198D02*
X558801Y309998D01*
Y311597D01*
X559600Y312397D01*
X560400D01*
X561200Y311597D01*
Y310797D01*
Y311597D01*
X562000Y312397D01*
X562800D01*
X563599Y311597D01*
Y309998D01*
X562800Y309198D01*
X558801Y377703D02*
X563599D01*
Y380102D01*
X562800Y380902D01*
X559600D01*
X558801Y380102D01*
Y377703D01*
Y385700D02*
X559600Y384101D01*
X561200Y382501D01*
X562800D01*
X563599Y383301D01*
Y384900D01*
X562800Y385700D01*
X562000D01*
X561200Y384900D01*
Y382501D01*
X559600Y390498D02*
X558801Y389699D01*
Y388099D01*
X559600Y387299D01*
X562800D01*
X563599Y388099D01*
Y389699D01*
X562800Y390498D01*
X563599Y395297D02*
Y392098D01*
X560400Y395297D01*
X559600D01*
X558801Y394497D01*
Y392898D01*
X559600Y392098D01*
X558801Y460603D02*
X563599D01*
Y463002D01*
X562800Y463802D01*
X559600D01*
X558801Y463002D01*
Y460603D01*
Y468600D02*
X559600Y467000D01*
X561200Y465401D01*
X562800D01*
X563599Y466201D01*
Y467800D01*
X562800Y468600D01*
X562000D01*
X561200Y467800D01*
Y465401D01*
X559600Y473398D02*
X558801Y472599D01*
Y470999D01*
X559600Y470199D01*
X562800D01*
X563599Y470999D01*
Y472599D01*
X562800Y473398D01*
X563599Y474998D02*
Y476597D01*
Y475798D01*
X558801D01*
X559600Y474998D01*
X497741Y202229D02*
X502540D01*
Y204628D01*
X501740Y205428D01*
X498541D01*
X497741Y204628D01*
Y202229D01*
Y210226D02*
Y207027D01*
X500140D01*
X499341Y208627D01*
Y209426D01*
X500140Y210226D01*
X501740D01*
X502540Y209426D01*
Y207827D01*
X501740Y207027D01*
X498541Y215024D02*
X497741Y214225D01*
Y212625D01*
X498541Y211825D01*
X501740D01*
X502540Y212625D01*
Y214225D01*
X501740Y215024D01*
X502540Y219023D02*
X497741D01*
X500140Y216624D01*
Y219823D01*
X497741Y285129D02*
X502540D01*
Y287528D01*
X501740Y288328D01*
X498541D01*
X497741Y287528D01*
Y285129D01*
Y293126D02*
Y289927D01*
X500140D01*
X499341Y291527D01*
Y292326D01*
X500140Y293126D01*
X501740D01*
X502540Y292326D01*
Y290727D01*
X501740Y289927D01*
X498541Y297924D02*
X497741Y297125D01*
Y295525D01*
X498541Y294725D01*
X501740D01*
X502540Y295525D01*
Y297125D01*
X501740Y297924D01*
X498541Y299524D02*
X497741Y300324D01*
Y301923D01*
X498541Y302723D01*
X499341D01*
X500140Y301923D01*
Y301123D01*
Y301923D01*
X500940Y302723D01*
X501740D01*
X502540Y301923D01*
Y300324D01*
X501740Y299524D01*
X497741Y368029D02*
X502540D01*
Y370428D01*
X501740Y371228D01*
X498541D01*
X497741Y370428D01*
Y368029D01*
Y376026D02*
Y372827D01*
X500140D01*
X499341Y374427D01*
Y375226D01*
X500140Y376026D01*
X501740D01*
X502540Y375226D01*
Y373627D01*
X501740Y372827D01*
X498541Y380824D02*
X497741Y380025D01*
Y378425D01*
X498541Y377625D01*
X501740D01*
X502540Y378425D01*
Y380025D01*
X501740Y380824D01*
X502540Y385623D02*
Y382424D01*
X499341Y385623D01*
X498541D01*
X497741Y384823D01*
Y383224D01*
X498541Y382424D01*
X497741Y450929D02*
X502540D01*
Y453328D01*
X501740Y454128D01*
X498541D01*
X497741Y453328D01*
Y450929D01*
Y458926D02*
Y455727D01*
X500140D01*
X499341Y457327D01*
Y458126D01*
X500140Y458926D01*
X501740D01*
X502540Y458126D01*
Y456527D01*
X501740Y455727D01*
X498541Y463725D02*
X497741Y462925D01*
Y461325D01*
X498541Y460526D01*
X501740D01*
X502540Y461325D01*
Y462925D01*
X501740Y463725D01*
X502540Y465324D02*
Y466923D01*
Y466124D01*
X497741D01*
X498541Y465324D01*
X504042Y167700D02*
X508841D01*
Y170099D01*
X508041Y170899D01*
X504842D01*
X504042Y170099D01*
Y167700D01*
X508841Y174898D02*
X504042D01*
X506441Y172499D01*
Y175697D01*
X504842Y180496D02*
X504042Y179696D01*
Y178097D01*
X504842Y177297D01*
X508041D01*
X508841Y178097D01*
Y179696D01*
X508041Y180496D01*
X508841Y184495D02*
X504042D01*
X506441Y182095D01*
Y185294D01*
X504042Y250600D02*
X508841D01*
Y252999D01*
X508041Y253799D01*
X504842D01*
X504042Y252999D01*
Y250600D01*
X508841Y257798D02*
X504042D01*
X506441Y255399D01*
Y258597D01*
X504842Y263396D02*
X504042Y262596D01*
Y260997D01*
X504842Y260197D01*
X508041D01*
X508841Y260997D01*
Y262596D01*
X508041Y263396D01*
X504842Y264995D02*
X504042Y265795D01*
Y267395D01*
X504842Y268194D01*
X505642D01*
X506441Y267395D01*
Y266595D01*
Y267395D01*
X507241Y268194D01*
X508041D01*
X508841Y267395D01*
Y265795D01*
X508041Y264995D01*
X504042Y333500D02*
X508841D01*
Y335899D01*
X508041Y336699D01*
X504842D01*
X504042Y335899D01*
Y333500D01*
X508841Y340698D02*
X504042D01*
X506441Y338299D01*
Y341497D01*
X504842Y346296D02*
X504042Y345496D01*
Y343897D01*
X504842Y343097D01*
X508041D01*
X508841Y343897D01*
Y345496D01*
X508041Y346296D01*
X508841Y351094D02*
Y347895D01*
X505642Y351094D01*
X504842D01*
X504042Y350295D01*
Y348695D01*
X504842Y347895D01*
X504042Y416400D02*
X508841D01*
Y418799D01*
X508041Y419599D01*
X504842D01*
X504042Y418799D01*
Y416400D01*
X508841Y423598D02*
X504042D01*
X506441Y421198D01*
Y424397D01*
X504842Y429196D02*
X504042Y428396D01*
Y426797D01*
X504842Y425997D01*
X508041D01*
X508841Y426797D01*
Y428396D01*
X508041Y429196D01*
X508841Y430795D02*
Y432395D01*
Y431595D01*
X504042D01*
X504842Y430795D01*
X564841Y187403D02*
X569640D01*
Y189802D01*
X568840Y190602D01*
X565641D01*
X564841Y189802D01*
Y187403D01*
X565641Y192201D02*
X564841Y193001D01*
Y194600D01*
X565641Y195400D01*
X566441D01*
X567240Y194600D01*
Y193800D01*
Y194600D01*
X568040Y195400D01*
X568840D01*
X569640Y194600D01*
Y193001D01*
X568840Y192201D01*
X565641Y200199D02*
X564841Y199399D01*
Y197799D01*
X565641Y197000D01*
X568840D01*
X569640Y197799D01*
Y199399D01*
X568840Y200199D01*
X569640Y204197D02*
X564841D01*
X567240Y201798D01*
Y204997D01*
X564841Y270303D02*
X569640D01*
Y272702D01*
X568840Y273502D01*
X565641D01*
X564841Y272702D01*
Y270303D01*
X565641Y275101D02*
X564841Y275901D01*
Y277500D01*
X565641Y278300D01*
X566441D01*
X567240Y277500D01*
Y276700D01*
Y277500D01*
X568040Y278300D01*
X568840D01*
X569640Y277500D01*
Y275901D01*
X568840Y275101D01*
X565641Y283099D02*
X564841Y282299D01*
Y280699D01*
X565641Y279900D01*
X568840D01*
X569640Y280699D01*
Y282299D01*
X568840Y283099D01*
X565641Y284698D02*
X564841Y285498D01*
Y287097D01*
X565641Y287897D01*
X566441D01*
X567240Y287097D01*
Y286297D01*
Y287097D01*
X568040Y287897D01*
X568840D01*
X569640Y287097D01*
Y285498D01*
X568840Y284698D01*
X564841Y353203D02*
X569640D01*
Y355602D01*
X568840Y356402D01*
X565641D01*
X564841Y355602D01*
Y353203D01*
X565641Y358001D02*
X564841Y358801D01*
Y360400D01*
X565641Y361200D01*
X566441D01*
X567240Y360400D01*
Y359600D01*
Y360400D01*
X568040Y361200D01*
X568840D01*
X569640Y360400D01*
Y358801D01*
X568840Y358001D01*
X565641Y365999D02*
X564841Y365199D01*
Y363599D01*
X565641Y362800D01*
X568840D01*
X569640Y363599D01*
Y365199D01*
X568840Y365999D01*
X569640Y370797D02*
Y367598D01*
X566441Y370797D01*
X565641D01*
X564841Y369997D01*
Y368398D01*
X565641Y367598D01*
X564841Y436103D02*
X569640D01*
Y438502D01*
X568840Y439302D01*
X565641D01*
X564841Y438502D01*
Y436103D01*
X565641Y440901D02*
X564841Y441701D01*
Y443300D01*
X565641Y444100D01*
X566441D01*
X567240Y443300D01*
Y442500D01*
Y443300D01*
X568040Y444100D01*
X568840D01*
X569640Y443300D01*
Y441701D01*
X568840Y440901D01*
X565641Y448899D02*
X564841Y448099D01*
Y446499D01*
X565641Y445700D01*
X568840D01*
X569640Y446499D01*
Y448099D01*
X568840Y448899D01*
X569640Y450498D02*
Y452097D01*
Y451298D01*
X564841D01*
X565641Y450498D01*
X516041Y202403D02*
X520840D01*
Y204802D01*
X520040Y205602D01*
X516841D01*
X516041Y204802D01*
Y202403D01*
X520840Y210400D02*
Y207201D01*
X517641Y210400D01*
X516841D01*
X516041Y209600D01*
Y208001D01*
X516841Y207201D01*
Y215198D02*
X516041Y214399D01*
Y212799D01*
X516841Y212000D01*
X520040D01*
X520840Y212799D01*
Y214399D01*
X520040Y215198D01*
X520840Y219197D02*
X516041D01*
X518440Y216798D01*
Y219997D01*
X516041Y285303D02*
X520840D01*
Y287702D01*
X520040Y288502D01*
X516841D01*
X516041Y287702D01*
Y285303D01*
X520840Y293300D02*
Y290101D01*
X517641Y293300D01*
X516841D01*
X516041Y292500D01*
Y290901D01*
X516841Y290101D01*
Y298098D02*
X516041Y297299D01*
Y295699D01*
X516841Y294900D01*
X520040D01*
X520840Y295699D01*
Y297299D01*
X520040Y298098D01*
X516841Y299698D02*
X516041Y300498D01*
Y302097D01*
X516841Y302897D01*
X517641D01*
X518440Y302097D01*
Y301297D01*
Y302097D01*
X519240Y302897D01*
X520040D01*
X520840Y302097D01*
Y300498D01*
X520040Y299698D01*
X516041Y368203D02*
X520840D01*
Y370602D01*
X520040Y371402D01*
X516841D01*
X516041Y370602D01*
Y368203D01*
X520840Y376200D02*
Y373001D01*
X517641Y376200D01*
X516841D01*
X516041Y375400D01*
Y373801D01*
X516841Y373001D01*
Y380998D02*
X516041Y380199D01*
Y378599D01*
X516841Y377800D01*
X520040D01*
X520840Y378599D01*
Y380199D01*
X520040Y380998D01*
X520840Y385797D02*
Y382598D01*
X517641Y385797D01*
X516841D01*
X516041Y384997D01*
Y383398D01*
X516841Y382598D01*
X516041Y451103D02*
X520840D01*
Y453502D01*
X520040Y454302D01*
X516841D01*
X516041Y453502D01*
Y451103D01*
X520840Y459100D02*
Y455901D01*
X517641Y459100D01*
X516841D01*
X516041Y458300D01*
Y456701D01*
X516841Y455901D01*
Y463899D02*
X516041Y463099D01*
Y461499D01*
X516841Y460700D01*
X520040D01*
X520840Y461499D01*
Y463099D01*
X520040Y463899D01*
X520840Y465498D02*
Y467097D01*
Y466298D01*
X516041D01*
X516841Y465498D01*
X510042Y167800D02*
X514841D01*
Y170199D01*
X514041Y170999D01*
X510842D01*
X510042Y170199D01*
Y167800D01*
X514841Y172599D02*
Y174198D01*
Y173398D01*
X510042D01*
X510842Y172599D01*
Y179796D02*
X510042Y178996D01*
Y177397D01*
X510842Y176597D01*
X514041D01*
X514841Y177397D01*
Y178996D01*
X514041Y179796D01*
X514841Y183795D02*
X510042D01*
X512441Y181396D01*
Y184595D01*
X510042Y250700D02*
X514841D01*
Y253099D01*
X514041Y253899D01*
X510842D01*
X510042Y253099D01*
Y250700D01*
X514841Y255499D02*
Y257098D01*
Y256298D01*
X510042D01*
X510842Y255499D01*
Y262696D02*
X510042Y261896D01*
Y260297D01*
X510842Y259497D01*
X514041D01*
X514841Y260297D01*
Y261896D01*
X514041Y262696D01*
X510842Y264296D02*
X510042Y265095D01*
Y266695D01*
X510842Y267495D01*
X511642D01*
X512441Y266695D01*
Y265895D01*
Y266695D01*
X513241Y267495D01*
X514041D01*
X514841Y266695D01*
Y265095D01*
X514041Y264296D01*
X510042Y333600D02*
X514841D01*
Y335999D01*
X514041Y336799D01*
X510842D01*
X510042Y335999D01*
Y333600D01*
X514841Y338399D02*
Y339998D01*
Y339198D01*
X510042D01*
X510842Y338399D01*
Y345596D02*
X510042Y344796D01*
Y343197D01*
X510842Y342397D01*
X514041D01*
X514841Y343197D01*
Y344796D01*
X514041Y345596D01*
X514841Y350395D02*
Y347196D01*
X511642Y350395D01*
X510842D01*
X510042Y349595D01*
Y347995D01*
X510842Y347196D01*
X510042Y416500D02*
X514841D01*
Y418899D01*
X514041Y419699D01*
X510842D01*
X510042Y418899D01*
Y416500D01*
X514841Y421298D02*
Y422898D01*
Y422098D01*
X510042D01*
X510842Y421298D01*
Y428496D02*
X510042Y427696D01*
Y426097D01*
X510842Y425297D01*
X514041D01*
X514841Y426097D01*
Y427696D01*
X514041Y428496D01*
X514841Y430096D02*
Y431695D01*
Y430895D01*
X510042D01*
X510842Y430096D01*
X328269Y297201D02*
X327469Y296401D01*
Y294802D01*
X328269Y294002D01*
X331468D01*
X332268Y294802D01*
Y296401D01*
X331468Y297201D01*
X328269Y298800D02*
X327469Y299600D01*
Y301200D01*
X328269Y301999D01*
X329069D01*
X329869Y301200D01*
Y300400D01*
Y301200D01*
X330668Y301999D01*
X331468D01*
X332268Y301200D01*
Y299600D01*
X331468Y298800D01*
X328269Y303599D02*
X327469Y304399D01*
Y305998D01*
X328269Y306798D01*
X329069D01*
X329869Y305998D01*
X330668Y306798D01*
X331468D01*
X332268Y305998D01*
Y304399D01*
X331468Y303599D01*
X330668D01*
X329869Y304399D01*
X329069Y303599D01*
X328269D01*
X329869Y304399D02*
Y305998D01*
X205000Y256501D02*
X204201Y255701D01*
Y254102D01*
X205000Y253302D01*
X208200D01*
X208999Y254102D01*
Y255701D01*
X208200Y256501D01*
X205000Y258101D02*
X204201Y258900D01*
Y260500D01*
X205000Y261299D01*
X205800D01*
X206600Y260500D01*
Y259700D01*
Y260500D01*
X207400Y261299D01*
X208200D01*
X208999Y260500D01*
Y258900D01*
X208200Y258101D01*
X204201Y262899D02*
Y266098D01*
X205000D01*
X208200Y262899D01*
X208999D01*
X232300Y256501D02*
X231501Y255701D01*
Y254102D01*
X232300Y253302D01*
X235500D01*
X236299Y254102D01*
Y255701D01*
X235500Y256501D01*
X232300Y258101D02*
X231501Y258900D01*
Y260500D01*
X232300Y261299D01*
X233100D01*
X233900Y260500D01*
Y259700D01*
Y260500D01*
X234700Y261299D01*
X235500D01*
X236299Y260500D01*
Y258900D01*
X235500Y258101D01*
X231501Y266098D02*
X232300Y264498D01*
X233900Y262899D01*
X235500D01*
X236299Y263699D01*
Y265298D01*
X235500Y266098D01*
X234700D01*
X233900Y265298D01*
Y262899D01*
X290900Y220801D02*
X290101Y220001D01*
Y218402D01*
X290900Y217602D01*
X294099D01*
X294899Y218402D01*
Y220001D01*
X294099Y220801D01*
X290900Y222400D02*
X290101Y223200D01*
Y224800D01*
X290900Y225600D01*
X291700D01*
X292500Y224800D01*
Y224000D01*
Y224800D01*
X293300Y225600D01*
X294099D01*
X294899Y224800D01*
Y223200D01*
X294099Y222400D01*
X290101Y230398D02*
Y227199D01*
X292500D01*
X291700Y228799D01*
Y229598D01*
X292500Y230398D01*
X294099D01*
X294899Y229598D01*
Y227999D01*
X294099Y227199D01*
X300800Y217101D02*
X300001Y216301D01*
Y214702D01*
X300800Y213902D01*
X303999D01*
X304799Y214702D01*
Y216301D01*
X303999Y217101D01*
X300800Y218701D02*
X300001Y219500D01*
Y221100D01*
X300800Y221900D01*
X301600D01*
X302400Y221100D01*
Y220300D01*
Y221100D01*
X303200Y221900D01*
X303999D01*
X304799Y221100D01*
Y219500D01*
X303999Y218701D01*
X304799Y225898D02*
X300001D01*
X302400Y223499D01*
Y226698D01*
X291500Y262101D02*
X290701Y261301D01*
Y259702D01*
X291500Y258902D01*
X294700D01*
X295499Y259702D01*
Y261301D01*
X294700Y262101D01*
X291500Y263701D02*
X290701Y264500D01*
Y266100D01*
X291500Y266899D01*
X292300D01*
X293100Y266100D01*
Y265300D01*
Y266100D01*
X293900Y266899D01*
X294700D01*
X295499Y266100D01*
Y264500D01*
X294700Y263701D01*
X291500Y268499D02*
X290701Y269299D01*
Y270898D01*
X291500Y271698D01*
X292300D01*
X293100Y270898D01*
Y270098D01*
Y270898D01*
X293900Y271698D01*
X294700D01*
X295499Y270898D01*
Y269299D01*
X294700Y268499D01*
X300100Y262101D02*
X299301Y261301D01*
Y259702D01*
X300100Y258902D01*
X303299D01*
X304099Y259702D01*
Y261301D01*
X303299Y262101D01*
X300100Y263701D02*
X299301Y264500D01*
Y266100D01*
X300100Y266899D01*
X300900D01*
X301700Y266100D01*
Y265300D01*
Y266100D01*
X302500Y266899D01*
X303299D01*
X304099Y266100D01*
Y264500D01*
X303299Y263701D01*
X304099Y271698D02*
Y268499D01*
X300900Y271698D01*
X300100D01*
X299301Y270898D01*
Y269299D01*
X300100Y268499D01*
X205701Y212800D02*
X204901Y213599D01*
X203302D01*
X202502Y212800D01*
Y209600D01*
X203302Y208801D01*
X204901D01*
X205701Y209600D01*
X207300Y212800D02*
X208100Y213599D01*
X209700D01*
X210499Y212800D01*
Y212000D01*
X209700Y211200D01*
X208900D01*
X209700D01*
X210499Y210400D01*
Y209600D01*
X209700Y208801D01*
X208100D01*
X207300Y209600D01*
X212099Y208801D02*
X213698D01*
X212898D01*
Y213599D01*
X212099Y212800D01*
X233700Y195701D02*
X232901Y194901D01*
Y193302D01*
X233700Y192502D01*
X236899D01*
X237699Y193302D01*
Y194901D01*
X236899Y195701D01*
X233700Y197301D02*
X232901Y198100D01*
Y199700D01*
X233700Y200500D01*
X234500D01*
X235300Y199700D01*
Y198900D01*
Y199700D01*
X236100Y200500D01*
X236899D01*
X237699Y199700D01*
Y198100D01*
X236899Y197301D01*
X233700Y202099D02*
X232901Y202899D01*
Y204498D01*
X233700Y205298D01*
X236899D01*
X237699Y204498D01*
Y202899D01*
X236899Y202099D01*
X233700D01*
X225800Y193001D02*
X225001Y192201D01*
Y190602D01*
X225800Y189802D01*
X228999D01*
X229799Y190602D01*
Y192201D01*
X228999Y193001D01*
X229799Y197800D02*
Y194600D01*
X226600Y197800D01*
X225800D01*
X225001Y197000D01*
Y195400D01*
X225800Y194600D01*
X228999Y199399D02*
X229799Y200199D01*
Y201798D01*
X228999Y202598D01*
X225800D01*
X225001Y201798D01*
Y200199D01*
X225800Y199399D01*
X226600D01*
X227400Y200199D01*
Y202598D01*
X317201Y450499D02*
X316401Y451299D01*
X314802D01*
X314002Y450499D01*
Y447300D01*
X314802Y446501D01*
X316401D01*
X317201Y447300D01*
X322000Y446501D02*
X318800D01*
X322000Y449700D01*
Y450499D01*
X321200Y451299D01*
X319600D01*
X318800Y450499D01*
X323599D02*
X324399Y451299D01*
X325998D01*
X326798Y450499D01*
Y449700D01*
X325998Y448900D01*
X326798Y448100D01*
Y447300D01*
X325998Y446501D01*
X324399D01*
X323599Y447300D01*
Y448100D01*
X324399Y448900D01*
X323599Y449700D01*
Y450499D01*
X324399Y448900D02*
X325998D01*
X318801Y410199D02*
X318001Y410999D01*
X316402D01*
X315602Y410199D01*
Y407000D01*
X316402Y406201D01*
X318001D01*
X318801Y407000D01*
X323600Y406201D02*
X320401D01*
X323600Y409400D01*
Y410199D01*
X322800Y410999D01*
X321200D01*
X320401Y410199D01*
X325199Y410999D02*
X328398D01*
Y410199D01*
X325199Y407000D01*
Y406201D01*
X303301Y401699D02*
X302501Y402499D01*
X300902D01*
X300102Y401699D01*
Y398500D01*
X300902Y397701D01*
X302501D01*
X303301Y398500D01*
X308100Y397701D02*
X304901D01*
X308100Y400900D01*
Y401699D01*
X307300Y402499D01*
X305700D01*
X304901Y401699D01*
X312898Y402499D02*
X311298Y401699D01*
X309699Y400100D01*
Y398500D01*
X310499Y397701D01*
X312098D01*
X312898Y398500D01*
Y399300D01*
X312098Y400100D01*
X309699D01*
X374269Y297101D02*
X373469Y296301D01*
Y294702D01*
X374269Y293902D01*
X377468D01*
X378268Y294702D01*
Y296301D01*
X377468Y297101D01*
X378268Y301900D02*
Y298700D01*
X375069Y301900D01*
X374269D01*
X373469Y301100D01*
Y299500D01*
X374269Y298700D01*
X373469Y306698D02*
Y303499D01*
X375869D01*
X375069Y305099D01*
Y305898D01*
X375869Y306698D01*
X377468D01*
X378268Y305898D01*
Y304299D01*
X377468Y303499D01*
X279300Y474601D02*
X278501Y473801D01*
Y472202D01*
X279300Y471402D01*
X282500D01*
X283299Y472202D01*
Y473801D01*
X282500Y474601D01*
X283299Y479399D02*
Y476200D01*
X280100Y479399D01*
X279300D01*
X278501Y478600D01*
Y477000D01*
X279300Y476200D01*
X283299Y483398D02*
X278501D01*
X280900Y480999D01*
Y484198D01*
X253501Y474301D02*
X252701Y473501D01*
Y471902D01*
X253501Y471102D01*
X256699D01*
X257499Y471902D01*
Y473501D01*
X256699Y474301D01*
X257499Y479100D02*
Y475901D01*
X254300Y479100D01*
X253501D01*
X252701Y478300D01*
Y476700D01*
X253501Y475901D01*
Y480699D02*
X252701Y481499D01*
Y483098D01*
X253501Y483898D01*
X254300D01*
X255100Y483098D01*
Y482298D01*
Y483098D01*
X255900Y483898D01*
X256699D01*
X257499Y483098D01*
Y481499D01*
X256699Y480699D01*
X232301Y394199D02*
X231501Y394999D01*
X229902D01*
X229102Y394199D01*
Y391001D01*
X229902Y390201D01*
X231501D01*
X232301Y391001D01*
X237100Y390201D02*
X233900D01*
X237100Y393400D01*
Y394199D01*
X236300Y394999D01*
X234700D01*
X233900Y394199D01*
X241898Y390201D02*
X238699D01*
X241898Y393400D01*
Y394199D01*
X241098Y394999D01*
X239499D01*
X238699Y394199D01*
X266301Y446200D02*
X265501Y446999D01*
X263901D01*
X263102Y446200D01*
Y443001D01*
X263901Y442201D01*
X265501D01*
X266301Y443001D01*
X271099Y442201D02*
X267900D01*
X271099Y445400D01*
Y446200D01*
X270300Y446999D01*
X268700D01*
X267900Y446200D01*
X272699Y442201D02*
X274298D01*
X273499D01*
Y446999D01*
X272699Y446200D01*
X266301Y438200D02*
X265501Y438999D01*
X263902D01*
X263102Y438200D01*
Y435001D01*
X263902Y434201D01*
X265501D01*
X266301Y435001D01*
X271099Y434201D02*
X267900D01*
X271099Y437400D01*
Y438200D01*
X270300Y438999D01*
X268700D01*
X267900Y438200D01*
X272699D02*
X273499Y438999D01*
X275098D01*
X275898Y438200D01*
Y435001D01*
X275098Y434201D01*
X273499D01*
X272699Y435001D01*
Y438200D01*
X231901Y415801D02*
X231101Y415001D01*
Y413402D01*
X231901Y412602D01*
X235100D01*
X235899Y413402D01*
Y415001D01*
X235100Y415801D01*
X235899Y417400D02*
Y419000D01*
Y418200D01*
X231101D01*
X231901Y417400D01*
X235100Y421399D02*
X235899Y422199D01*
Y423798D01*
X235100Y424598D01*
X231901D01*
X231101Y423798D01*
Y422199D01*
X231901Y421399D01*
X232700D01*
X233500Y422199D01*
Y424598D01*
X266301Y430199D02*
X265501Y430999D01*
X263902D01*
X263102Y430199D01*
Y427001D01*
X263902Y426201D01*
X265501D01*
X266301Y427001D01*
X267900Y426201D02*
X269500D01*
X268700D01*
Y430999D01*
X267900Y430199D01*
X271899D02*
X272699Y430999D01*
X274298D01*
X275098Y430199D01*
Y429400D01*
X274298Y428600D01*
X275098Y427800D01*
Y427001D01*
X274298Y426201D01*
X272699D01*
X271899Y427001D01*
Y427800D01*
X272699Y428600D01*
X271899Y429400D01*
Y430199D01*
X272699Y428600D02*
X274298D01*
X350269Y297201D02*
X349469Y296401D01*
Y294802D01*
X350269Y294002D01*
X353468D01*
X354268Y294802D01*
Y296401D01*
X353468Y297201D01*
X354268Y298800D02*
Y300400D01*
Y299600D01*
X349469D01*
X350269Y298800D01*
X349469Y302799D02*
Y305998D01*
X350269D01*
X353468Y302799D01*
X354268D01*
X358269Y297201D02*
X357469Y296401D01*
Y294802D01*
X358269Y294002D01*
X361468D01*
X362268Y294802D01*
Y296401D01*
X361468Y297201D01*
X362268Y298800D02*
Y300400D01*
Y299600D01*
X357469D01*
X358269Y298800D01*
X357469Y305998D02*
X358269Y304399D01*
X359869Y302799D01*
X361468D01*
X362268Y303599D01*
Y305198D01*
X361468Y305998D01*
X360668D01*
X359869Y305198D01*
Y302799D01*
X366269Y297101D02*
X365469Y296301D01*
Y294702D01*
X366269Y293902D01*
X369468D01*
X370268Y294702D01*
Y296301D01*
X369468Y297101D01*
X370268Y298700D02*
Y300300D01*
Y299500D01*
X365469D01*
X366269Y298700D01*
X365469Y305898D02*
Y302699D01*
X367868D01*
X367069Y304299D01*
Y305098D01*
X367868Y305898D01*
X369468D01*
X370268Y305098D01*
Y303499D01*
X369468Y302699D01*
X371769Y202801D02*
X370969Y202001D01*
Y200402D01*
X371769Y199602D01*
X374968D01*
X375768Y200402D01*
Y202001D01*
X374968Y202801D01*
X375768Y204400D02*
Y206000D01*
Y205200D01*
X370969D01*
X371769Y204400D01*
X375768Y210798D02*
X370969D01*
X373369Y208399D01*
Y211598D01*
X364069Y202801D02*
X363269Y202001D01*
Y200402D01*
X364069Y199602D01*
X367268D01*
X368068Y200402D01*
Y202001D01*
X367268Y202801D01*
X368068Y204400D02*
Y206000D01*
Y205200D01*
X363269D01*
X364069Y204400D01*
Y208399D02*
X363269Y209199D01*
Y210798D01*
X364069Y211598D01*
X364869D01*
X365669Y210798D01*
Y209999D01*
Y210798D01*
X366468Y211598D01*
X367268D01*
X368068Y210798D01*
Y209199D01*
X367268Y208399D01*
X394069Y217801D02*
X393269Y217001D01*
Y215402D01*
X394069Y214602D01*
X397268D01*
X398068Y215402D01*
Y217001D01*
X397268Y217801D01*
X398068Y219400D02*
Y221000D01*
Y220200D01*
X393269D01*
X394069Y219400D01*
X398068Y226598D02*
Y223399D01*
X394869Y226598D01*
X394069D01*
X393269Y225798D01*
Y224199D01*
X394069Y223399D01*
X393569Y262401D02*
X392769Y261601D01*
Y260001D01*
X393569Y259202D01*
X396768D01*
X397568Y260001D01*
Y261601D01*
X396768Y262401D01*
X397568Y264000D02*
Y265600D01*
Y264800D01*
X392769D01*
X393569Y264000D01*
X397568Y267999D02*
Y269598D01*
Y268799D01*
X392769D01*
X393569Y267999D01*
X409901Y209100D02*
X409101Y209899D01*
X407502D01*
X406702Y209100D01*
Y205901D01*
X407502Y205101D01*
X409101D01*
X409901Y205901D01*
X411500Y205101D02*
X413100D01*
X412300D01*
Y209899D01*
X411500Y209100D01*
X415499D02*
X416299Y209899D01*
X417898D01*
X418698Y209100D01*
Y205901D01*
X417898Y205101D01*
X416299D01*
X415499Y205901D01*
Y209100D01*
X409800Y201200D02*
X409000Y201999D01*
X407401D01*
X406601Y201200D01*
Y198001D01*
X407401Y197201D01*
X409000D01*
X409800Y198001D01*
X411400D02*
X412199Y197201D01*
X413799D01*
X414599Y198001D01*
Y201200D01*
X413799Y201999D01*
X412199D01*
X411400Y201200D01*
Y200400D01*
X412199Y199600D01*
X414599D01*
X380000Y342000D02*
X379201Y342799D01*
X377601D01*
X376801Y342000D01*
Y338801D01*
X377601Y338001D01*
X379201D01*
X380000Y338801D01*
X381600Y342000D02*
X382400Y342799D01*
X383999D01*
X384799Y342000D01*
Y341200D01*
X383999Y340400D01*
X384799Y339600D01*
Y338801D01*
X383999Y338001D01*
X382400D01*
X381600Y338801D01*
Y339600D01*
X382400Y340400D01*
X381600Y341200D01*
Y342000D01*
X382400Y340400D02*
X383999D01*
X358900Y342000D02*
X358101Y342799D01*
X356501D01*
X355701Y342000D01*
Y338801D01*
X356501Y338001D01*
X358101D01*
X358900Y338801D01*
X360500Y342799D02*
X363699D01*
Y342000D01*
X360500Y338801D01*
Y338001D01*
X358900Y401299D02*
X358101Y402099D01*
X356501D01*
X355701Y401299D01*
Y398100D01*
X356501Y397301D01*
X358101D01*
X358900Y398100D01*
X363699Y402099D02*
X362099Y401299D01*
X360500Y399700D01*
Y398100D01*
X361299Y397301D01*
X362899D01*
X363699Y398100D01*
Y398900D01*
X362899Y399700D01*
X360500D01*
X380000Y401199D02*
X379201Y401999D01*
X377601D01*
X376801Y401199D01*
Y398001D01*
X377601Y397201D01*
X379201D01*
X380000Y398001D01*
X384799Y401999D02*
X381600D01*
Y399600D01*
X383199Y400400D01*
X383999D01*
X384799Y399600D01*
Y398001D01*
X383999Y397201D01*
X382400D01*
X381600Y398001D01*
X383100Y390899D02*
X382300Y391699D01*
X380701D01*
X379901Y390899D01*
Y387701D01*
X380701Y386901D01*
X382300D01*
X383100Y387701D01*
X387099Y386901D02*
Y391699D01*
X384700Y389300D01*
X387899D01*
X545501Y234542D02*
X544701Y233742D01*
Y232143D01*
X545501Y231343D01*
X548700D01*
X549499Y232143D01*
Y233742D01*
X548700Y234542D01*
X545501Y236142D02*
X544701Y236941D01*
Y238541D01*
X545501Y239341D01*
X546300D01*
X547100Y238541D01*
Y237741D01*
Y238541D01*
X547900Y239341D01*
X548700D01*
X549499Y238541D01*
Y236941D01*
X548700Y236142D01*
X545501Y244139D02*
X544701Y243339D01*
Y241740D01*
X545501Y240940D01*
X548700D01*
X549499Y241740D01*
Y243339D01*
X548700Y244139D01*
X549499Y248138D02*
X544701D01*
X547100Y245739D01*
Y248938D01*
X545501Y317442D02*
X544701Y316642D01*
Y315043D01*
X545501Y314243D01*
X548700D01*
X549499Y315043D01*
Y316642D01*
X548700Y317442D01*
X545501Y319042D02*
X544701Y319841D01*
Y321441D01*
X545501Y322241D01*
X546300D01*
X547100Y321441D01*
Y320641D01*
Y321441D01*
X547900Y322241D01*
X548700D01*
X549499Y321441D01*
Y319841D01*
X548700Y319042D01*
X545501Y327039D02*
X544701Y326239D01*
Y324640D01*
X545501Y323840D01*
X548700D01*
X549499Y324640D01*
Y326239D01*
X548700Y327039D01*
X545501Y328639D02*
X544701Y329438D01*
Y331038D01*
X545501Y331838D01*
X546300D01*
X547100Y331038D01*
Y330238D01*
Y331038D01*
X547900Y331838D01*
X548700D01*
X549499Y331038D01*
Y329438D01*
X548700Y328639D01*
X545501Y400342D02*
X544701Y399542D01*
Y397943D01*
X545501Y397143D01*
X548700D01*
X549499Y397943D01*
Y399542D01*
X548700Y400342D01*
X545501Y401942D02*
X544701Y402741D01*
Y404341D01*
X545501Y405141D01*
X546300D01*
X547100Y404341D01*
Y403541D01*
Y404341D01*
X547900Y405141D01*
X548700D01*
X549499Y404341D01*
Y402741D01*
X548700Y401942D01*
X545501Y409939D02*
X544701Y409139D01*
Y407540D01*
X545501Y406740D01*
X548700D01*
X549499Y407540D01*
Y409139D01*
X548700Y409939D01*
X549499Y414738D02*
Y411539D01*
X546300Y414738D01*
X545501D01*
X544701Y413938D01*
Y412338D01*
X545501Y411539D01*
X545501Y483242D02*
X544701Y482442D01*
Y480843D01*
X545501Y480043D01*
X548700D01*
X549499Y480843D01*
Y482442D01*
X548700Y483242D01*
X545501Y484842D02*
X544701Y485641D01*
Y487241D01*
X545501Y488040D01*
X546300D01*
X547100Y487241D01*
Y486441D01*
Y487241D01*
X547900Y488040D01*
X548700D01*
X549499Y487241D01*
Y485641D01*
X548700Y484842D01*
X545501Y492839D02*
X544701Y492039D01*
Y490440D01*
X545501Y489640D01*
X548700D01*
X549499Y490440D01*
Y492039D01*
X548700Y492839D01*
X549499Y494439D02*
Y496038D01*
Y495238D01*
X544701D01*
X545501Y494439D01*
X519342Y169999D02*
X518542Y169199D01*
Y167600D01*
X519342Y166800D01*
X522541D01*
X523341Y167600D01*
Y169199D01*
X522541Y169999D01*
X523341Y174797D02*
Y171598D01*
X520142Y174797D01*
X519342D01*
X518542Y173998D01*
Y172398D01*
X519342Y171598D01*
Y179596D02*
X518542Y178796D01*
Y177197D01*
X519342Y176397D01*
X522541D01*
X523341Y177197D01*
Y178796D01*
X522541Y179596D01*
X523341Y183595D02*
X518542D01*
X520941Y181195D01*
Y184394D01*
X519342Y252899D02*
X518542Y252099D01*
Y250500D01*
X519342Y249700D01*
X522541D01*
X523341Y250500D01*
Y252099D01*
X522541Y252899D01*
X523341Y257697D02*
Y254499D01*
X520142Y257697D01*
X519342D01*
X518542Y256898D01*
Y255298D01*
X519342Y254499D01*
Y262496D02*
X518542Y261696D01*
Y260097D01*
X519342Y259297D01*
X522541D01*
X523341Y260097D01*
Y261696D01*
X522541Y262496D01*
X519342Y264095D02*
X518542Y264895D01*
Y266495D01*
X519342Y267294D01*
X520142D01*
X520941Y266495D01*
Y265695D01*
Y266495D01*
X521741Y267294D01*
X522541D01*
X523341Y266495D01*
Y264895D01*
X522541Y264095D01*
X519342Y335799D02*
X518542Y334999D01*
Y333400D01*
X519342Y332600D01*
X522541D01*
X523341Y333400D01*
Y334999D01*
X522541Y335799D01*
X523341Y340597D02*
Y337399D01*
X520142Y340597D01*
X519342D01*
X518542Y339798D01*
Y338198D01*
X519342Y337399D01*
Y345396D02*
X518542Y344596D01*
Y342997D01*
X519342Y342197D01*
X522541D01*
X523341Y342997D01*
Y344596D01*
X522541Y345396D01*
X523341Y350194D02*
Y346995D01*
X520142Y350194D01*
X519342D01*
X518542Y349395D01*
Y347795D01*
X519342Y346995D01*
X519342Y418699D02*
X518542Y417899D01*
Y416300D01*
X519342Y415500D01*
X522541D01*
X523341Y416300D01*
Y417899D01*
X522541Y418699D01*
X523341Y423497D02*
Y420298D01*
X520142Y423497D01*
X519342D01*
X518542Y422698D01*
Y421098D01*
X519342Y420298D01*
Y428296D02*
X518542Y427496D01*
Y425897D01*
X519342Y425097D01*
X522541D01*
X523341Y425897D01*
Y427496D01*
X522541Y428296D01*
X523341Y429895D02*
Y431495D01*
Y430695D01*
X518542D01*
X519342Y429895D01*
X527101Y244940D02*
X526302Y245740D01*
X524702D01*
X523903Y244940D01*
Y241741D01*
X524702Y240941D01*
X526302D01*
X527101Y241741D01*
X528701Y240941D02*
X530300D01*
X529501D01*
Y245740D01*
X528701Y244940D01*
X535899D02*
X535099Y245740D01*
X533499D01*
X532700Y244940D01*
Y241741D01*
X533499Y240941D01*
X535099D01*
X535899Y241741D01*
X539897Y240941D02*
Y245740D01*
X537498Y243340D01*
X540697D01*
X527101Y327840D02*
X526302Y328640D01*
X524702D01*
X523903Y327840D01*
Y324641D01*
X524702Y323841D01*
X526302D01*
X527101Y324641D01*
X528701Y323841D02*
X530300D01*
X529501D01*
Y328640D01*
X528701Y327840D01*
X535899D02*
X535099Y328640D01*
X533499D01*
X532700Y327840D01*
Y324641D01*
X533499Y323841D01*
X535099D01*
X535899Y324641D01*
X537498Y327840D02*
X538298Y328640D01*
X539897D01*
X540697Y327840D01*
Y327040D01*
X539897Y326240D01*
X539097D01*
X539897D01*
X540697Y325441D01*
Y324641D01*
X539897Y323841D01*
X538298D01*
X537498Y324641D01*
X527101Y410740D02*
X526302Y411540D01*
X524702D01*
X523903Y410740D01*
Y407541D01*
X524702Y406741D01*
X526302D01*
X527101Y407541D01*
X528701Y406741D02*
X530300D01*
X529501D01*
Y411540D01*
X528701Y410740D01*
X535899D02*
X535099Y411540D01*
X533499D01*
X532700Y410740D01*
Y407541D01*
X533499Y406741D01*
X535099D01*
X535899Y407541D01*
X540697Y406741D02*
X537498D01*
X540697Y409940D01*
Y410740D01*
X539897Y411540D01*
X538298D01*
X537498Y410740D01*
X527101Y493640D02*
X526302Y494440D01*
X524702D01*
X523903Y493640D01*
Y490441D01*
X524702Y489641D01*
X526302D01*
X527101Y490441D01*
X528701Y489641D02*
X530300D01*
X529501D01*
Y494440D01*
X528701Y493640D01*
X535899D02*
X535099Y494440D01*
X533499D01*
X532700Y493640D01*
Y490441D01*
X533499Y489641D01*
X535099D01*
X535899Y490441D01*
X537498Y489641D02*
X539097D01*
X538298D01*
Y494440D01*
X537498Y493640D01*
D21*
X360299Y201502D02*
X354301D01*
Y204501D01*
X355301Y205500D01*
X357300D01*
X358300Y204501D01*
Y201502D01*
Y203501D02*
X360299Y205500D01*
X359299Y207500D02*
X360299Y208499D01*
Y210499D01*
X359299Y211498D01*
X355301D01*
X354301Y210499D01*
Y208499D01*
X355301Y207500D01*
X356300D01*
X357300Y208499D01*
Y211498D01*
X375899Y170703D02*
X369901D01*
Y173702D01*
X370901Y174701D01*
X372900D01*
X373900Y173702D01*
Y170703D01*
Y172702D02*
X375899Y174701D01*
Y180699D02*
Y176701D01*
X371900Y180699D01*
X370901D01*
X369901Y179700D01*
Y177700D01*
X370901Y176701D01*
X369901Y182699D02*
Y186697D01*
X370901D01*
X374899Y182699D01*
X375899D01*
X128303Y341799D02*
Y335801D01*
X132302D01*
X138300Y341799D02*
X134301D01*
Y335801D01*
X138300D01*
X134301Y338800D02*
X136301D01*
X140299Y341799D02*
Y335801D01*
X143298D01*
X144298Y336801D01*
Y340799D01*
X143298Y341799D01*
X140299D01*
X146297Y335801D02*
X148297D01*
X147297D01*
Y341799D01*
X146297Y340799D01*
X127304Y394399D02*
Y388401D01*
X131302D01*
X137300Y394399D02*
X133302D01*
Y388401D01*
X137300D01*
X133302Y391400D02*
X135301D01*
X139300Y394399D02*
Y388401D01*
X142299D01*
X143298Y389401D01*
Y393399D01*
X142299Y394399D01*
X139300D01*
X148297Y388401D02*
Y394399D01*
X145298Y391400D01*
X149296D01*
X127304Y376899D02*
Y370901D01*
X131302D01*
X137300Y376899D02*
X133302D01*
Y370901D01*
X137300D01*
X133302Y373900D02*
X135301D01*
X139300Y376899D02*
Y370901D01*
X142299D01*
X143298Y371901D01*
Y375899D01*
X142299Y376899D01*
X139300D01*
X145298Y375899D02*
X146297Y376899D01*
X148297D01*
X149296Y375899D01*
Y374900D01*
X148297Y373900D01*
X147297D01*
X148297D01*
X149296Y372900D01*
Y371901D01*
X148297Y370901D01*
X146297D01*
X145298Y371901D01*
X127304Y359399D02*
Y353401D01*
X131302D01*
X137300Y359399D02*
X133302D01*
Y353401D01*
X137300D01*
X133302Y356400D02*
X135301D01*
X139300Y359399D02*
Y353401D01*
X142299D01*
X143298Y354401D01*
Y358399D01*
X142299Y359399D01*
X139300D01*
X149296Y353401D02*
X145298D01*
X149296Y357400D01*
Y358399D01*
X148297Y359399D01*
X146297D01*
X145298Y358399D01*
M02*
