M48
;Layer_Color=9474304
;FILE_FORMAT=2:5
INCH,TZ
;TYPE=PLATED
T1F00S00C0.00787
T2F00S00C0.02800
T3F00S00C0.03200
T4F00S00C0.04000
T5F00S00C0.04291
T6F00S00C0.07500
T7F00S00C0.12205
T8F00S00C0.12600
%
T01
X479200Y204941
X479100Y224540
X503700Y225041
X516657Y205716
X539700Y216940
Y224741
Y235040
Y299840
Y307641
X503700Y307941
X479100Y307440
X479200Y287841
X516657Y288616
X500800Y268841
Y185941
X407799Y199926
X390150Y199968
X390100Y207900
X381100Y217600
X373269Y233400
X358368Y238500
X355900Y248000
X356682Y260900
X353600
X350500
X347294
X338300Y260100
X337769Y271000
X340979
X336668Y277300
X340469Y296200
X361169Y296400
X375569
X382600Y296500
X417970Y297902
X395600Y262300
X371069Y263400
Y259400
Y255400
X359469Y277100
X350500Y228000
X347000Y223000
Y213000
Y203000
X365268Y209600
X375800Y191000
X375400Y185800
X375500Y176000
X370400Y172300
X396900Y176400
Y181000
X418000Y214900
X327200Y238600
X324300Y248000
X288000Y246800
Y254200
X287900Y239200
X287800Y234200
X291600Y214100
X308351Y224174
X239500Y219200
Y214200
Y209000
Y229200
X234300Y237200
X235300Y254200
X212100Y249200
Y241200
X200300Y244200
Y223200
X217900Y218200
X116300Y337600
Y354600
Y372700
Y390300
X161800Y390000
X161700Y369800
X161600Y348700
X161700Y411100
X233600Y425000
X236100
X245800Y432200
X264500Y429000
Y437000
Y445000
X263000Y467500
X273000
X270600Y420600
X275634Y416734
X270900Y408000
X263469Y410563
Y414500
Y418437
X259531
Y414500
Y410563
X253700Y412500
X251131Y413972
X246000Y405600
Y388400
X267900Y392000
X296200Y386600
X302500Y417500
X295900Y432300
X236100Y448800
X233600
X269000Y336600
X357600Y354600
X372600Y352400
X387600Y353000
Y385800
X379900Y395100
X375800Y394500
X367800
X357600Y385800
X418000Y380700
Y463700
X313000Y413900
X387700Y318400
X479200Y370741
X479100Y390340
X503700Y390841
X516657Y371516
X539700Y382740
Y390541
Y400841
Y465640
X516657Y454417
X500800Y434641
X479200Y453641
X500800Y351741
X539700Y317940
Y473441
Y483741
X503700Y473740
X479100Y473241
T02
X307277Y456323
X331500Y460500
Y466500
X325500
X327600Y476000
X307200Y484700
X266000Y488000
X257000
X248000
X239000
T03
X343100Y324349
Y334349
Y344349
Y395649
Y405649
Y415649
X402000
Y405649
Y395649
Y344349
Y334349
Y324349
T04
X314800Y175400
X314800Y185400
X324800Y185400
X324800Y175400
X334800Y175400
X334800Y185400
X344800Y185400
X344800Y175400
X354800Y175400
X354800Y185400
X174300Y218200
X164300Y218200
Y245200
X174300Y245200
T05
X134800Y232523
Y243428
Y254294
Y265200
X144800Y259767
Y270672
Y248861
Y237956
Y227050
T06
X590240Y189000
X590217Y208682
X590240Y271900
X590217Y291582
X118524Y445318
X118500Y465000
X590217Y457382
X590240Y437700
X590217Y374482
X590240Y354800
T07
X139800Y199649
Y298074
T08
X563000Y167500
X130000
X563000Y490500
X130000
M30
