G04*
G04 #@! TF.GenerationSoftware,Altium Limited,Altium Designer,20.1.11 (218)*
G04*
G04 Layer_Color=8421504*
%FSLAX25Y25*%
%MOIN*%
G70*
G04*
G04 #@! TF.SameCoordinates,E05B7615-A689-4D55-AF3B-A3F2CC959951*
G04*
G04*
G04 #@! TF.FilePolarity,Positive*
G04*
G01*
G75*
%ADD24R,0.03543X0.03937*%
%ADD25R,0.04528X0.05315*%
%ADD26R,0.02165X0.03937*%
%ADD27R,0.03347X0.03740*%
%ADD28R,0.03150X0.03150*%
%ADD29R,0.07087X0.05118*%
%ADD30R,0.05118X0.07087*%
%ADD31R,0.02600X0.04400*%
%ADD32R,0.03937X0.03543*%
%ADD33O,0.01968X0.05315*%
%ADD34R,0.06299X0.05118*%
%ADD35R,0.06299X0.07874*%
%ADD36O,0.01378X0.06299*%
%ADD37R,0.04724X0.06496*%
%ADD38R,0.05315X0.04528*%
G04:AMPARAMS|DCode=39|XSize=23.62mil|YSize=41.34mil|CornerRadius=1.18mil|HoleSize=0mil|Usage=FLASHONLY|Rotation=180.000|XOffset=0mil|YOffset=0mil|HoleType=Round|Shape=RoundedRectangle|*
%AMROUNDEDRECTD39*
21,1,0.02362,0.03898,0,0,180.0*
21,1,0.02126,0.04134,0,0,180.0*
1,1,0.00236,-0.01063,0.01949*
1,1,0.00236,0.01063,0.01949*
1,1,0.00236,0.01063,-0.01949*
1,1,0.00236,-0.01063,-0.01949*
%
%ADD39ROUNDEDRECTD39*%
%ADD40R,0.06693X0.09843*%
G04:AMPARAMS|DCode=41|XSize=23.62mil|YSize=43.31mil|CornerRadius=1.18mil|HoleSize=0mil|Usage=FLASHONLY|Rotation=0.000|XOffset=0mil|YOffset=0mil|HoleType=Round|Shape=RoundedRectangle|*
%AMROUNDEDRECTD41*
21,1,0.02362,0.04095,0,0,0.0*
21,1,0.02126,0.04331,0,0,0.0*
1,1,0.00236,0.01063,-0.02047*
1,1,0.00236,-0.01063,-0.02047*
1,1,0.00236,-0.01063,0.02047*
1,1,0.00236,0.01063,0.02047*
%
%ADD41ROUNDEDRECTD41*%
%ADD42R,0.11024X0.20866*%
%ADD43R,0.03740X0.03543*%
%ADD44R,0.06299X0.11417*%
%ADD45O,0.09055X0.02362*%
%ADD46O,0.02165X0.05709*%
%ADD47O,0.05709X0.02165*%
%ADD48R,0.03740X0.03347*%
%ADD49R,0.03150X0.03150*%
%ADD50R,0.04724X0.05512*%
%ADD51R,0.03937X0.02165*%
%ADD52R,0.09016X0.05118*%
%ADD53R,0.02362X0.02756*%
%ADD54R,0.05315X0.03543*%
%ADD55R,0.04724X0.06299*%
%ADD56R,0.12992X0.06299*%
%ADD57R,0.03347X0.03347*%
%ADD58R,0.03268X0.02461*%
%ADD59R,0.01968X0.03150*%
D24*
X277658Y343000D02*
D03*
X272342D02*
D03*
X290657Y237000D02*
D03*
X285343D02*
D03*
X290657Y244000D02*
D03*
X285343D02*
D03*
X291657Y343000D02*
D03*
X286343D02*
D03*
X270342Y278000D02*
D03*
X275658D02*
D03*
X334343Y266000D02*
D03*
X339657D02*
D03*
X304658D02*
D03*
X299342D02*
D03*
X304658Y287000D02*
D03*
X299342D02*
D03*
X334343Y294000D02*
D03*
X339657D02*
D03*
X201658Y180000D02*
D03*
X196343D02*
D03*
X325342Y218500D02*
D03*
X330658D02*
D03*
X199657Y221000D02*
D03*
X194343D02*
D03*
X196343Y187000D02*
D03*
X201658D02*
D03*
X314657Y192000D02*
D03*
X309343D02*
D03*
X271342Y242000D02*
D03*
X276658D02*
D03*
X314657Y185000D02*
D03*
X309343D02*
D03*
X276658Y235000D02*
D03*
X271342D02*
D03*
D25*
X265555Y318000D02*
D03*
X272445D02*
D03*
X284555D02*
D03*
X291445D02*
D03*
X451594Y183000D02*
D03*
X444705D02*
D03*
X451594Y251000D02*
D03*
X444705D02*
D03*
X451594Y319000D02*
D03*
X444705D02*
D03*
X451594Y387000D02*
D03*
X444705D02*
D03*
X417445Y169500D02*
D03*
X410555D02*
D03*
X417445Y237500D02*
D03*
X410555D02*
D03*
X417445Y305500D02*
D03*
X410555D02*
D03*
X417445Y373500D02*
D03*
X410555D02*
D03*
Y194000D02*
D03*
X417445D02*
D03*
X410555Y262000D02*
D03*
X417445D02*
D03*
X410555Y330000D02*
D03*
X417445D02*
D03*
X410555Y398000D02*
D03*
X417445D02*
D03*
X410555Y205000D02*
D03*
X417445D02*
D03*
X410555Y273000D02*
D03*
X417445D02*
D03*
X410555Y341000D02*
D03*
X417445D02*
D03*
X410555Y409000D02*
D03*
X417445D02*
D03*
X410555Y184000D02*
D03*
X417445D02*
D03*
X410555Y252000D02*
D03*
X417445D02*
D03*
X410555Y320000D02*
D03*
X417445D02*
D03*
X410555Y388000D02*
D03*
X417445D02*
D03*
X201945Y256000D02*
D03*
X195055D02*
D03*
X201945Y264000D02*
D03*
X195055D02*
D03*
X219445Y391000D02*
D03*
X212555D02*
D03*
X433445Y216000D02*
D03*
X426555D02*
D03*
X433445Y284000D02*
D03*
X426555D02*
D03*
X433445Y352000D02*
D03*
X426555D02*
D03*
X433445Y420000D02*
D03*
X426555D02*
D03*
D26*
X291740Y336315D02*
D03*
X288000D02*
D03*
X284260D02*
D03*
Y325685D02*
D03*
X291740D02*
D03*
X272740Y336315D02*
D03*
X269000D02*
D03*
X265260D02*
D03*
Y325685D02*
D03*
X272740D02*
D03*
X201740Y237185D02*
D03*
X194260D02*
D03*
Y247815D02*
D03*
X198000D02*
D03*
X201740D02*
D03*
D27*
X255559Y332000D02*
D03*
X250441D02*
D03*
X334441Y273000D02*
D03*
X339559D02*
D03*
X304559D02*
D03*
X299441D02*
D03*
X304559Y294000D02*
D03*
X299441D02*
D03*
X333441Y287000D02*
D03*
X338559D02*
D03*
X291441Y182000D02*
D03*
X296559D02*
D03*
X296559Y189000D02*
D03*
X291441D02*
D03*
D28*
X243953Y332000D02*
D03*
X238047D02*
D03*
D29*
X150000Y388291D02*
D03*
Y399709D02*
D03*
X201500Y354291D02*
D03*
Y365709D02*
D03*
D30*
X244291Y351000D02*
D03*
X255709D02*
D03*
X244291Y340000D02*
D03*
X255709D02*
D03*
D31*
X188500Y275500D02*
D03*
X208500D02*
D03*
X198500D02*
D03*
X188500Y311500D02*
D03*
X208500D02*
D03*
X198500D02*
D03*
D32*
X213000Y191657D02*
D03*
Y186343D02*
D03*
X285500Y266843D02*
D03*
Y272158D02*
D03*
X320000Y304658D02*
D03*
Y299342D02*
D03*
X213000Y215342D02*
D03*
Y220657D02*
D03*
X337000Y203842D02*
D03*
Y209157D02*
D03*
X206500Y220657D02*
D03*
Y215342D02*
D03*
X267000Y184343D02*
D03*
Y189657D02*
D03*
D33*
X276839Y271760D02*
D03*
X274279D02*
D03*
X271721D02*
D03*
X269161D02*
D03*
X276839Y254240D02*
D03*
X274279D02*
D03*
X271721D02*
D03*
X269161D02*
D03*
D34*
X335709Y247079D02*
D03*
Y256921D02*
D03*
X315709Y247079D02*
D03*
Y256921D02*
D03*
X310709Y303079D02*
D03*
Y312921D02*
D03*
X339709Y303079D02*
D03*
Y312921D02*
D03*
D35*
X325276Y252000D02*
D03*
X305276D02*
D03*
X300276Y308000D02*
D03*
X329276D02*
D03*
D36*
X326677Y291022D02*
D03*
X324118D02*
D03*
X321559D02*
D03*
X319000D02*
D03*
X316441D02*
D03*
X313882D02*
D03*
X311323D02*
D03*
X326677Y268975D02*
D03*
X324118D02*
D03*
X321559D02*
D03*
X319000D02*
D03*
X316441D02*
D03*
X313882D02*
D03*
X311323D02*
D03*
D37*
X173988Y216500D02*
D03*
X185012D02*
D03*
X175988Y180500D02*
D03*
X187012D02*
D03*
D38*
X187000Y331445D02*
D03*
Y324555D02*
D03*
X198500Y400555D02*
D03*
Y407445D02*
D03*
X285500Y258445D02*
D03*
Y251555D02*
D03*
X453000Y167555D02*
D03*
Y174445D02*
D03*
Y235555D02*
D03*
Y242445D02*
D03*
Y303555D02*
D03*
Y310445D02*
D03*
Y371555D02*
D03*
Y378445D02*
D03*
X190500Y400555D02*
D03*
Y407445D02*
D03*
X206500Y400555D02*
D03*
Y407445D02*
D03*
X274000Y182555D02*
D03*
Y189445D02*
D03*
X209500Y236555D02*
D03*
Y243445D02*
D03*
X210000Y324555D02*
D03*
Y331445D02*
D03*
X466000Y214445D02*
D03*
Y207555D02*
D03*
Y282445D02*
D03*
Y275555D02*
D03*
Y350445D02*
D03*
Y343555D02*
D03*
Y418445D02*
D03*
Y411555D02*
D03*
X445000Y174445D02*
D03*
Y167555D02*
D03*
Y242445D02*
D03*
Y235555D02*
D03*
Y310445D02*
D03*
Y303555D02*
D03*
Y378445D02*
D03*
Y371555D02*
D03*
D39*
X194760Y319185D02*
D03*
X198500D02*
D03*
X202240D02*
D03*
Y329815D02*
D03*
X194760D02*
D03*
X198500D02*
D03*
D40*
X215000Y359874D02*
D03*
Y344126D02*
D03*
D41*
X212240Y383315D02*
D03*
X208500D02*
D03*
X204760D02*
D03*
Y372685D02*
D03*
X212240D02*
D03*
X208500D02*
D03*
D42*
X230118Y383000D02*
D03*
X269882D02*
D03*
D43*
X185000Y267701D02*
D03*
Y255299D02*
D03*
X212000Y267701D02*
D03*
Y255299D02*
D03*
X190500Y393201D02*
D03*
Y380799D02*
D03*
D44*
X183000Y349945D02*
D03*
Y368055D02*
D03*
D45*
X221693Y221500D02*
D03*
Y216500D02*
D03*
Y211500D02*
D03*
Y206500D02*
D03*
Y201500D02*
D03*
Y196500D02*
D03*
Y191500D02*
D03*
Y186500D02*
D03*
X258307Y221500D02*
D03*
Y216500D02*
D03*
Y211500D02*
D03*
Y206500D02*
D03*
Y201500D02*
D03*
Y196500D02*
D03*
Y191500D02*
D03*
Y186500D02*
D03*
D46*
X304024Y196866D02*
D03*
X300874D02*
D03*
X297724D02*
D03*
X294575D02*
D03*
X291425D02*
D03*
X288276D02*
D03*
X285126D02*
D03*
X281976D02*
D03*
Y230134D02*
D03*
X285126D02*
D03*
X288276D02*
D03*
X291425D02*
D03*
X294575D02*
D03*
X297724D02*
D03*
X300874D02*
D03*
X304024D02*
D03*
D47*
X276366Y202476D02*
D03*
Y205626D02*
D03*
Y208776D02*
D03*
Y211925D02*
D03*
Y215075D02*
D03*
Y218224D02*
D03*
Y221374D02*
D03*
Y224524D02*
D03*
X309634D02*
D03*
Y221374D02*
D03*
Y218224D02*
D03*
Y215075D02*
D03*
Y211925D02*
D03*
Y208776D02*
D03*
Y205626D02*
D03*
Y202476D02*
D03*
D48*
X263000Y261441D02*
D03*
Y266559D02*
D03*
X269000Y216441D02*
D03*
Y221559D02*
D03*
X330000Y179618D02*
D03*
Y174500D02*
D03*
X323500Y179618D02*
D03*
Y174500D02*
D03*
X336500D02*
D03*
Y179618D02*
D03*
X303000Y184441D02*
D03*
Y189559D02*
D03*
D49*
X330000Y168012D02*
D03*
Y162106D02*
D03*
X323500D02*
D03*
Y168012D02*
D03*
X336500D02*
D03*
Y162106D02*
D03*
D50*
X329346Y201669D02*
D03*
X322654D02*
D03*
X329346Y210331D02*
D03*
X322654D02*
D03*
D51*
X456315Y206740D02*
D03*
Y199260D02*
D03*
X445685D02*
D03*
Y203000D02*
D03*
Y206740D02*
D03*
X456315Y274740D02*
D03*
Y267260D02*
D03*
X445685D02*
D03*
Y271000D02*
D03*
Y274740D02*
D03*
X456315Y342740D02*
D03*
Y335260D02*
D03*
X445685D02*
D03*
Y339000D02*
D03*
Y342740D02*
D03*
X456315Y410740D02*
D03*
Y403260D02*
D03*
X445685D02*
D03*
Y407000D02*
D03*
Y410740D02*
D03*
D52*
X354854Y194000D02*
D03*
Y184000D02*
D03*
Y174000D02*
D03*
Y164000D02*
D03*
X399146Y194000D02*
D03*
Y184000D02*
D03*
Y174000D02*
D03*
Y164000D02*
D03*
X354854Y262000D02*
D03*
Y252000D02*
D03*
Y242000D02*
D03*
Y232000D02*
D03*
X399146Y262000D02*
D03*
Y252000D02*
D03*
Y242000D02*
D03*
Y232000D02*
D03*
X354854Y330000D02*
D03*
Y320000D02*
D03*
Y310000D02*
D03*
Y300000D02*
D03*
X399146Y330000D02*
D03*
Y320000D02*
D03*
Y310000D02*
D03*
Y300000D02*
D03*
X354854Y398000D02*
D03*
Y388000D02*
D03*
Y378000D02*
D03*
Y368000D02*
D03*
X399146Y398000D02*
D03*
Y388000D02*
D03*
Y378000D02*
D03*
Y368000D02*
D03*
D53*
X438740Y208937D02*
D03*
X431260D02*
D03*
X435000Y201063D02*
D03*
X438740Y276937D02*
D03*
X431260D02*
D03*
X435000Y269063D02*
D03*
X438740Y344937D02*
D03*
X431260D02*
D03*
X435000Y337063D02*
D03*
X438740Y412937D02*
D03*
X431260D02*
D03*
X435000Y405063D02*
D03*
D54*
X191043Y199079D02*
D03*
Y208921D02*
D03*
X208957D02*
D03*
Y199079D02*
D03*
D55*
X162445Y383402D02*
D03*
X171500D02*
D03*
X180555D02*
D03*
D56*
X171500Y408598D02*
D03*
D57*
X173063Y207740D02*
D03*
Y200260D02*
D03*
X180937Y204000D02*
D03*
D58*
X475000Y215380D02*
D03*
Y206620D02*
D03*
Y283380D02*
D03*
Y274620D02*
D03*
Y351380D02*
D03*
Y342620D02*
D03*
Y419380D02*
D03*
Y410620D02*
D03*
X429500Y184620D02*
D03*
Y193380D02*
D03*
Y252620D02*
D03*
Y261380D02*
D03*
Y320620D02*
D03*
Y329380D02*
D03*
Y388620D02*
D03*
Y397380D02*
D03*
X436500Y168620D02*
D03*
Y177380D02*
D03*
Y236620D02*
D03*
Y245380D02*
D03*
Y304620D02*
D03*
Y313380D02*
D03*
Y372620D02*
D03*
Y381380D02*
D03*
D59*
X429500Y175543D02*
D03*
Y168457D02*
D03*
Y243543D02*
D03*
Y236457D02*
D03*
Y311543D02*
D03*
Y304457D02*
D03*
Y379543D02*
D03*
Y372457D02*
D03*
X436500Y193543D02*
D03*
Y186457D02*
D03*
Y261543D02*
D03*
Y254457D02*
D03*
Y329543D02*
D03*
Y322457D02*
D03*
Y397543D02*
D03*
Y390457D02*
D03*
M02*
