G04*
G04 #@! TF.GenerationSoftware,Altium Limited,Altium Designer,20.1.11 (218)*
G04*
G04 Layer_Physical_Order=4*
G04 Layer_Color=16711680*
%FSLAX25Y25*%
%MOIN*%
G70*
G04*
G04 #@! TF.SameCoordinates,4C222CE1-A502-4843-A5E5-5923ECBC91FD*
G04*
G04*
G04 #@! TF.FilePolarity,Positive*
G04*
G01*
G75*
%ADD101C,0.01200*%
%ADD102C,0.01500*%
%ADD105C,0.02000*%
%ADD107C,0.06000*%
%ADD108C,0.04200*%
%ADD109C,0.11900*%
%ADD110C,0.05500*%
%ADD111C,0.06437*%
%ADD112C,0.16535*%
%ADD113C,0.01772*%
%ADD114C,0.15000*%
%ADD115R,0.08465X0.09646*%
D101*
X281000Y168000D02*
Y218000D01*
X328500Y184500D02*
X330000Y183000D01*
X325500Y184500D02*
X328500D01*
X301000Y209000D02*
X325500Y184500D01*
X301000Y209000D02*
Y225000D01*
X304000Y209500D02*
X326500Y187000D01*
X332423D01*
X336423Y183000D01*
X304000Y209500D02*
Y225000D01*
X298000Y207483D02*
Y225000D01*
X323483Y183000D02*
X323483D01*
X298000Y208483D02*
X323483Y183000D01*
X296000Y168000D02*
Y202000D01*
X274500Y237500D02*
Y250000D01*
Y237500D02*
X288000Y224000D01*
X291500Y202116D02*
Y213500D01*
X269000Y236000D02*
X291500Y213500D01*
X269000Y236000D02*
Y250000D01*
X286000Y168000D02*
Y213000D01*
X284000Y215000D02*
X286000Y213000D01*
X278000Y158000D02*
X290781D01*
X290891Y158109D01*
X291000Y158000D01*
X296000Y163000D01*
D102*
X417500Y175014D02*
Y199503D01*
X426949Y208952D01*
X406010Y205000D02*
X406028Y205018D01*
X406000Y205000D02*
X406010D01*
X406000Y184000D02*
Y205000D01*
X436500Y214000D02*
X451000Y199500D01*
X420000Y214000D02*
X436500D01*
X461000Y204700D02*
Y206500D01*
X436500Y180200D02*
X461000Y204700D01*
X436500Y180200D02*
X436500D01*
X433800Y177500D02*
X436500Y180200D01*
X422000Y177500D02*
X433800D01*
X417500Y243015D02*
Y267503D01*
X426949Y276952D01*
X406010Y273000D02*
X406028Y273018D01*
X406000Y273000D02*
X406010D01*
X406000Y252000D02*
Y273000D01*
X436500Y282000D02*
X451000Y267500D01*
X420000Y282000D02*
X436500D01*
X461000Y272700D02*
Y274500D01*
X436500Y248200D02*
X461000Y272700D01*
X436500Y248200D02*
X436500D01*
X433800Y245500D02*
X436500Y248200D01*
X422000Y245500D02*
X433800D01*
X417500Y335503D02*
X426949Y344952D01*
X417500Y311015D02*
Y335503D01*
X406010Y341000D02*
X406028Y341018D01*
X406000Y341000D02*
X406010D01*
X406000Y320000D02*
Y341000D01*
X436500Y350000D02*
X451000Y335500D01*
X420000Y350000D02*
X436500D01*
X461000Y340700D02*
Y342500D01*
X436500Y316200D02*
X461000Y340700D01*
X436500Y316200D02*
X436500D01*
X433800Y313500D02*
X436500Y316200D01*
X422000Y313500D02*
X433800D01*
X417500Y403503D02*
X426949Y412952D01*
X417500Y379014D02*
Y403503D01*
X406010Y409000D02*
X406028Y409018D01*
X406000Y409000D02*
X406010D01*
X406000Y388000D02*
Y409000D01*
X436500Y418000D02*
X451000Y403500D01*
X420000Y418000D02*
X436500D01*
X461000Y408700D02*
Y410500D01*
X436500Y384200D02*
X461000Y408700D01*
X436500Y384200D02*
X436500D01*
X433800Y381500D02*
X436500Y384200D01*
X422000Y381500D02*
X433800D01*
X193000Y180000D02*
Y213500D01*
X190000Y216500D02*
Y216500D01*
Y216500D02*
X193000Y213500D01*
D105*
X456500Y188000D02*
X471000D01*
X454000Y185500D02*
X456500Y188000D01*
X470342Y170000D02*
X472024Y168318D01*
X454253D02*
X471024D01*
X454000Y168571D02*
X454253Y168318D01*
X456500Y256000D02*
X471000D01*
X454000Y253500D02*
X456500Y256000D01*
X470342Y238000D02*
X472024Y236318D01*
X454253D02*
X471024D01*
X454000Y236571D02*
X454253Y236318D01*
X456500Y324000D02*
X471000D01*
X454000Y321500D02*
X456500Y324000D01*
X470342Y306000D02*
X472024Y304318D01*
X454253D02*
X471024D01*
X454000Y304571D02*
X454253Y304318D01*
X456500Y392000D02*
X471000D01*
X454000Y389500D02*
X456500Y392000D01*
X470342Y374000D02*
X472024Y372318D01*
X454253D02*
X471024D01*
X454000Y372571D02*
X454253Y372318D01*
D107*
X420000Y150000D02*
D03*
X180000D02*
D03*
X500000Y418000D02*
D03*
D108*
X301000Y168000D02*
D03*
Y163000D02*
D03*
X296000Y168000D02*
D03*
Y163000D02*
D03*
X291000Y168000D02*
D03*
Y163000D02*
D03*
X286000Y168000D02*
D03*
Y163000D02*
D03*
X281000Y168000D02*
D03*
Y163000D02*
D03*
D109*
X160000Y364000D02*
D03*
X160024Y344318D02*
D03*
X471024Y168318D02*
D03*
X471000Y188000D02*
D03*
X471024Y236318D02*
D03*
X471000Y256000D02*
D03*
X471024Y304318D02*
D03*
X471000Y324000D02*
D03*
X471024Y372318D02*
D03*
X471000Y392000D02*
D03*
D110*
X175000Y227000D02*
D03*
X185000D02*
D03*
X177000Y191000D02*
D03*
X187000D02*
D03*
D111*
X153000Y233150D02*
D03*
Y222244D02*
D03*
Y211378D02*
D03*
Y200472D02*
D03*
X163000Y195000D02*
D03*
Y205906D02*
D03*
Y216811D02*
D03*
Y227716D02*
D03*
Y238622D02*
D03*
D112*
X158000Y167598D02*
D03*
Y266024D02*
D03*
D113*
X291000Y322500D02*
D03*
X293000D02*
D03*
X289000Y324500D02*
D03*
Y322500D02*
D03*
X270000D02*
D03*
Y324500D02*
D03*
X281000Y218000D02*
D03*
X271500Y246000D02*
D03*
X183000Y405000D02*
D03*
X152885Y414868D02*
D03*
X136885Y382868D02*
D03*
X233000Y415000D02*
D03*
X244000Y400000D02*
D03*
X220000Y336000D02*
D03*
X215000Y337500D02*
D03*
X299000Y334000D02*
D03*
X290000Y412000D02*
D03*
X300000Y389000D02*
D03*
X300004Y364141D02*
D03*
X300000Y343000D02*
D03*
X279000Y337000D02*
D03*
X282000Y343000D02*
D03*
X265000Y331000D02*
D03*
X269000D02*
D03*
X273000D02*
D03*
X292000D02*
D03*
X288000D02*
D03*
X284000D02*
D03*
X285500Y276000D02*
D03*
X294000Y244000D02*
D03*
X290500Y247500D02*
D03*
X286611Y263074D02*
D03*
X284500Y263000D02*
D03*
X261500Y319500D02*
D03*
Y316500D02*
D03*
X280500D02*
D03*
Y319500D02*
D03*
X274000Y322500D02*
D03*
X272000D02*
D03*
X261000Y343000D02*
D03*
Y337000D02*
D03*
X238000D02*
D03*
Y340000D02*
D03*
X261000D02*
D03*
X426949Y208952D02*
D03*
X417500Y174514D02*
D03*
X406028Y205018D02*
D03*
X406000Y184000D02*
D03*
X349000Y194000D02*
D03*
X451000Y199500D02*
D03*
X420000Y214000D02*
D03*
X461000Y206500D02*
D03*
X436500Y180200D02*
D03*
X422000Y177500D02*
D03*
X426949Y276952D02*
D03*
X417500Y242514D02*
D03*
X406028Y273018D02*
D03*
X406000Y252000D02*
D03*
X349000Y262000D02*
D03*
X451000Y267500D02*
D03*
X420000Y282000D02*
D03*
X461000Y274500D02*
D03*
X436500Y248200D02*
D03*
X422000Y245500D02*
D03*
X426949Y344952D02*
D03*
X417500Y310514D02*
D03*
X406028Y341018D02*
D03*
X406000Y320000D02*
D03*
X349000Y330000D02*
D03*
X451000Y335500D02*
D03*
X420000Y350000D02*
D03*
X461000Y342500D02*
D03*
X436500Y316200D02*
D03*
X422000Y313500D02*
D03*
X277000Y376000D02*
D03*
Y380000D02*
D03*
Y384000D02*
D03*
Y388000D02*
D03*
X336423Y183000D02*
D03*
X193000Y270000D02*
D03*
X198000D02*
D03*
X349000Y398000D02*
D03*
X210000Y336000D02*
D03*
X203500Y394500D02*
D03*
X216000Y400000D02*
D03*
X229000D02*
D03*
X207500Y389500D02*
D03*
X196000Y394500D02*
D03*
X197500Y385000D02*
D03*
X204500Y378000D02*
D03*
X209000D02*
D03*
X212500D02*
D03*
X275500Y282000D02*
D03*
X270500D02*
D03*
X183000Y415000D02*
D03*
X197000D02*
D03*
X426949Y412952D02*
D03*
X417500Y378515D02*
D03*
X406028Y409018D02*
D03*
X406000Y388000D02*
D03*
X451000Y403500D02*
D03*
X420000Y418000D02*
D03*
X461000Y410500D02*
D03*
X436500Y384200D02*
D03*
X422000Y381500D02*
D03*
X324000Y299500D02*
D03*
X208500Y191500D02*
D03*
Y186000D02*
D03*
X201658Y183500D02*
D03*
X203000Y215500D02*
D03*
X206500Y224000D02*
D03*
X199600Y224500D02*
D03*
X203000Y242500D02*
D03*
X197000D02*
D03*
X191000Y258000D02*
D03*
X190900Y263600D02*
D03*
X200000Y242500D02*
D03*
X194000D02*
D03*
X210500Y232000D02*
D03*
X208000D02*
D03*
X205000D02*
D03*
X202500D02*
D03*
X185000Y204000D02*
D03*
X205500Y336000D02*
D03*
X202500Y333500D02*
D03*
X194500D02*
D03*
X191500Y336000D02*
D03*
X187000D02*
D03*
X190000Y344000D02*
D03*
X183000D02*
D03*
X176000D02*
D03*
X217500Y337500D02*
D03*
X212500D02*
D03*
X238000Y347000D02*
D03*
Y350000D02*
D03*
Y353000D02*
D03*
Y343000D02*
D03*
X261000Y347000D02*
D03*
Y350000D02*
D03*
Y353000D02*
D03*
X180000Y326000D02*
D03*
Y323000D02*
D03*
X217000D02*
D03*
Y326000D02*
D03*
X330000Y157000D02*
D03*
X323483Y183000D02*
D03*
X330000D02*
D03*
X304000Y225000D02*
D03*
X301000D02*
D03*
X298000D02*
D03*
X296000Y202000D02*
D03*
X288000Y224000D02*
D03*
X274500Y250000D02*
D03*
X269000D02*
D03*
X291500Y202116D02*
D03*
X268994Y213399D02*
D03*
X274000Y179000D02*
D03*
Y193000D02*
D03*
X276500Y246000D02*
D03*
X303000Y181000D02*
D03*
X314500D02*
D03*
X309500D02*
D03*
X320000Y308000D02*
D03*
X319000Y285000D02*
D03*
Y264000D02*
D03*
X264500Y221500D02*
D03*
X284000Y215000D02*
D03*
X278000Y158000D02*
D03*
X190000Y216500D02*
D03*
X193000Y180000D02*
D03*
X316000Y202500D02*
D03*
D114*
X135000Y412000D02*
D03*
D115*
X454000Y168571D02*
D03*
Y185500D02*
D03*
Y236571D02*
D03*
Y253500D02*
D03*
Y304571D02*
D03*
Y321500D02*
D03*
Y372571D02*
D03*
Y389500D02*
D03*
M02*
