G04*
G04 #@! TF.GenerationSoftware,Altium Limited,Altium Designer,20.1.11 (218)*
G04*
G04 Layer_Color=255*
%FSLAX25Y25*%
%MOIN*%
G70*
G04*
G04 #@! TF.SameCoordinates,4C222CE1-A502-4843-A5E5-5923ECBC91FD*
G04*
G04*
G04 #@! TF.FilePolarity,Positive*
G04*
G01*
G75*
%ADD107C,0.06000*%
%ADD108C,0.04200*%
%ADD109C,0.11900*%
%ADD110C,0.05500*%
%ADD111C,0.06437*%
%ADD112C,0.16535*%
%ADD115R,0.08465X0.09646*%
D107*
X420000Y150000D02*
D03*
X180000D02*
D03*
X500000Y418000D02*
D03*
D108*
X301000Y168000D02*
D03*
Y163000D02*
D03*
X296000Y168000D02*
D03*
Y163000D02*
D03*
X291000Y168000D02*
D03*
Y163000D02*
D03*
X286000Y168000D02*
D03*
Y163000D02*
D03*
X281000Y168000D02*
D03*
Y163000D02*
D03*
D109*
X160000Y364000D02*
D03*
X160024Y344318D02*
D03*
X471024Y168318D02*
D03*
X471000Y188000D02*
D03*
X471024Y236318D02*
D03*
X471000Y256000D02*
D03*
X471024Y304318D02*
D03*
X471000Y324000D02*
D03*
X471024Y372318D02*
D03*
X471000Y392000D02*
D03*
D110*
X175000Y227000D02*
D03*
X185000D02*
D03*
X177000Y191000D02*
D03*
X187000D02*
D03*
D111*
X153000Y233150D02*
D03*
Y222244D02*
D03*
Y211378D02*
D03*
Y200472D02*
D03*
X163000Y195000D02*
D03*
Y205906D02*
D03*
Y216811D02*
D03*
Y227716D02*
D03*
Y238622D02*
D03*
D112*
X158000Y167598D02*
D03*
Y266024D02*
D03*
D115*
X454000Y168571D02*
D03*
Y185500D02*
D03*
Y236571D02*
D03*
Y253500D02*
D03*
Y304571D02*
D03*
Y321500D02*
D03*
Y372571D02*
D03*
Y389500D02*
D03*
M02*
