G04*
G04 #@! TF.GenerationSoftware,Altium Limited,Altium Designer,20.1.11 (218)*
G04*
G04 Layer_Physical_Order=3*
G04 Layer_Color=16440176*
%FSLAX25Y25*%
%MOIN*%
G70*
G04*
G04 #@! TF.SameCoordinates,72BFA0CC-D413-471F-905E-0F2E94EAAD8C*
G04*
G04*
G04 #@! TF.FilePolarity,Positive*
G04*
G01*
G75*
%ADD108C,0.04200*%
%ADD113C,0.01772*%
G36*
X295000Y334000D02*
X259000Y334000D01*
X248600Y311000D01*
X124000D01*
Y420000D01*
X129705D01*
X129953Y419541D01*
X129952Y419500D01*
X128605Y418395D01*
X127481Y417024D01*
X126645Y415461D01*
X126130Y413764D01*
X125956Y412000D01*
X126130Y410236D01*
X126645Y408539D01*
X127481Y406976D01*
X128605Y405605D01*
X129976Y404481D01*
X131539Y403645D01*
X133236Y403130D01*
X135000Y402956D01*
X136764Y403130D01*
X138461Y403645D01*
X140024Y404481D01*
X141395Y405605D01*
X142519Y406976D01*
X143355Y408539D01*
X143870Y410236D01*
X144044Y412000D01*
X143870Y413764D01*
X143355Y415461D01*
X142519Y417024D01*
X141395Y418395D01*
X140048Y419500D01*
X140047Y419541D01*
X140295Y420000D01*
X295000D01*
Y334000D01*
D02*
G37*
G36*
X358900Y228500D02*
X296500Y228500D01*
X281000Y244000D01*
X281000Y314167D01*
X281431Y314253D01*
X282220Y314780D01*
X282747Y315569D01*
X282933Y316500D01*
X282747Y317431D01*
X282367Y318000D01*
X282747Y318569D01*
X282933Y319500D01*
X282747Y320431D01*
X282220Y321220D01*
X281431Y321747D01*
X281000Y321833D01*
Y328000D01*
X347699Y328000D01*
X348069Y327753D01*
X349000Y327567D01*
X349931Y327753D01*
X350301Y328000D01*
X358900D01*
X358900Y228500D01*
D02*
G37*
G36*
X277500Y284133D02*
X277000Y283867D01*
X276431Y284247D01*
X275500Y284433D01*
X274569Y284247D01*
X273780Y283720D01*
X273253Y282931D01*
X273067Y282000D01*
X273253Y281069D01*
X273780Y280280D01*
X274569Y279753D01*
X275500Y279567D01*
X276431Y279753D01*
X277000Y280133D01*
X277500Y279867D01*
X277500Y249033D01*
X277052Y248680D01*
X276747Y249069D01*
X276933Y250000D01*
X276747Y250931D01*
X276220Y251720D01*
X275431Y252247D01*
X274500Y252433D01*
X273569Y252247D01*
X272780Y251720D01*
X272253Y250931D01*
X272067Y250000D01*
X272253Y249069D01*
X272780Y248280D01*
X273569Y247753D01*
X274126Y247642D01*
X274356Y247086D01*
X274253Y246931D01*
X274067Y246000D01*
X274253Y245069D01*
X274780Y244280D01*
X275569Y243753D01*
X276500Y243567D01*
X277000Y243667D01*
X277500Y243257D01*
Y242700D01*
X295200Y225000D01*
X295567D01*
X295753Y224069D01*
X296280Y223280D01*
X297069Y222753D01*
X298000Y222567D01*
X298931Y222753D01*
X299500Y223133D01*
X300069Y222753D01*
X301000Y222567D01*
X301931Y222753D01*
X302500Y223133D01*
X303069Y222753D01*
X304000Y222567D01*
X304931Y222753D01*
X305720Y223280D01*
X306247Y224069D01*
X306433Y225000D01*
X358900Y225000D01*
Y156000D01*
X332743Y156000D01*
X332333Y156500D01*
X332433Y157000D01*
X332247Y157931D01*
X331720Y158720D01*
X330931Y159247D01*
X330000Y159433D01*
X329069Y159247D01*
X328280Y158720D01*
X327753Y157931D01*
X327567Y157000D01*
X327667Y156500D01*
X327257Y156000D01*
X280133Y156000D01*
X279867Y156500D01*
X280247Y157069D01*
X280433Y158000D01*
X280247Y158931D01*
X280223Y158967D01*
X280513Y159433D01*
X281000Y159369D01*
X281940Y159493D01*
X282816Y159855D01*
X283500Y160381D01*
X284185Y159855D01*
X285060Y159493D01*
X286000Y159369D01*
X286940Y159493D01*
X287815Y159855D01*
X288500Y160381D01*
X289184Y159855D01*
X290060Y159493D01*
X291000Y159369D01*
X291940Y159493D01*
X292815Y159855D01*
X293500Y160381D01*
X294184Y159855D01*
X295060Y159493D01*
X296000Y159369D01*
X296940Y159493D01*
X297815Y159855D01*
X298500Y160381D01*
X299184Y159855D01*
X300060Y159493D01*
X301000Y159369D01*
X301940Y159493D01*
X302816Y159855D01*
X303568Y160432D01*
X304145Y161185D01*
X304507Y162060D01*
X304631Y163000D01*
X304507Y163940D01*
X304145Y164815D01*
X303568Y165568D01*
X302816Y166145D01*
X301940Y166507D01*
X301000Y166631D01*
X300060Y166507D01*
X299770Y166387D01*
X299387Y166770D01*
X299507Y167060D01*
X299631Y168000D01*
X299507Y168940D01*
X299145Y169816D01*
X298568Y170568D01*
X297815Y171145D01*
X296940Y171507D01*
X296000Y171631D01*
X295060Y171507D01*
X294184Y171145D01*
X293500Y170619D01*
X292815Y171145D01*
X291940Y171507D01*
X291000Y171631D01*
X290060Y171507D01*
X289184Y171145D01*
X288500Y170619D01*
X287815Y171145D01*
X286940Y171507D01*
X286000Y171631D01*
X285060Y171507D01*
X284185Y171145D01*
X283500Y170619D01*
X282816Y171145D01*
X281940Y171507D01*
X281000Y171631D01*
X280060Y171507D01*
X279185Y171145D01*
X278432Y170568D01*
X277855Y169816D01*
X277493Y168940D01*
X277369Y168000D01*
X277493Y167060D01*
X277855Y166184D01*
X278381Y165500D01*
X277855Y164815D01*
X277493Y163940D01*
X277369Y163000D01*
X277493Y162060D01*
X277855Y161185D01*
X278062Y160916D01*
X278049Y160821D01*
X277828Y160398D01*
X277069Y160247D01*
X276280Y159720D01*
X275753Y158931D01*
X275567Y158000D01*
X275753Y157069D01*
X276133Y156500D01*
X275867Y156000D01*
X255000D01*
X255000Y312500D01*
X261500Y328000D01*
X277500Y328000D01*
X277500Y284133D01*
D02*
G37*
G36*
X225000Y177000D02*
X198000D01*
Y219000D01*
X192000Y225000D01*
X192000Y237000D01*
X225000Y237000D01*
Y177000D01*
D02*
G37*
%LPC*%
G36*
X233000Y417433D02*
X232069Y417247D01*
X231280Y416720D01*
X230753Y415931D01*
X230567Y415000D01*
X230753Y414069D01*
X231280Y413280D01*
X232069Y412753D01*
X233000Y412567D01*
X233931Y412753D01*
X234720Y413280D01*
X235247Y414069D01*
X235433Y415000D01*
X235247Y415931D01*
X234720Y416720D01*
X233931Y417247D01*
X233000Y417433D01*
D02*
G37*
G36*
X197000D02*
X196069Y417247D01*
X195280Y416720D01*
X194753Y415931D01*
X194567Y415000D01*
X194753Y414069D01*
X195280Y413280D01*
X196069Y412753D01*
X197000Y412567D01*
X197931Y412753D01*
X198720Y413280D01*
X199247Y414069D01*
X199433Y415000D01*
X199247Y415931D01*
X198720Y416720D01*
X197931Y417247D01*
X197000Y417433D01*
D02*
G37*
G36*
X183000D02*
X182069Y417247D01*
X181280Y416720D01*
X180753Y415931D01*
X180567Y415000D01*
X180753Y414069D01*
X181280Y413280D01*
X182069Y412753D01*
X183000Y412567D01*
X183931Y412753D01*
X184720Y413280D01*
X185247Y414069D01*
X185433Y415000D01*
X185247Y415931D01*
X184720Y416720D01*
X183931Y417247D01*
X183000Y417433D01*
D02*
G37*
G36*
X152885Y417300D02*
X151954Y417115D01*
X151165Y416588D01*
X150638Y415799D01*
X150453Y414868D01*
X150638Y413937D01*
X151165Y413148D01*
X151954Y412620D01*
X152885Y412435D01*
X153816Y412620D01*
X154605Y413148D01*
X155133Y413937D01*
X155318Y414868D01*
X155133Y415799D01*
X154605Y416588D01*
X153816Y417115D01*
X152885Y417300D01*
D02*
G37*
G36*
X290000Y414433D02*
X289069Y414247D01*
X288280Y413720D01*
X287753Y412931D01*
X287567Y412000D01*
X287753Y411069D01*
X288280Y410280D01*
X289069Y409753D01*
X290000Y409567D01*
X290931Y409753D01*
X291720Y410280D01*
X292247Y411069D01*
X292433Y412000D01*
X292247Y412931D01*
X291720Y413720D01*
X290931Y414247D01*
X290000Y414433D01*
D02*
G37*
G36*
X183000Y407433D02*
X182069Y407247D01*
X181280Y406720D01*
X180753Y405931D01*
X180567Y405000D01*
X180753Y404069D01*
X181280Y403280D01*
X182069Y402753D01*
X183000Y402567D01*
X183931Y402753D01*
X184720Y403280D01*
X185247Y404069D01*
X185433Y405000D01*
X185247Y405931D01*
X184720Y406720D01*
X183931Y407247D01*
X183000Y407433D01*
D02*
G37*
G36*
X244000Y402433D02*
X243069Y402247D01*
X242280Y401720D01*
X241753Y400931D01*
X241567Y400000D01*
X241753Y399069D01*
X242280Y398280D01*
X243069Y397753D01*
X244000Y397567D01*
X244931Y397753D01*
X245720Y398280D01*
X246247Y399069D01*
X246433Y400000D01*
X246247Y400931D01*
X245720Y401720D01*
X244931Y402247D01*
X244000Y402433D01*
D02*
G37*
G36*
X229000D02*
X228069Y402247D01*
X227280Y401720D01*
X226753Y400931D01*
X226567Y400000D01*
X226753Y399069D01*
X227280Y398280D01*
X228069Y397753D01*
X229000Y397567D01*
X229931Y397753D01*
X230720Y398280D01*
X231247Y399069D01*
X231433Y400000D01*
X231247Y400931D01*
X230720Y401720D01*
X229931Y402247D01*
X229000Y402433D01*
D02*
G37*
G36*
X216000D02*
X215069Y402247D01*
X214280Y401720D01*
X213753Y400931D01*
X213567Y400000D01*
X213753Y399069D01*
X214280Y398280D01*
X215069Y397753D01*
X216000Y397567D01*
X216931Y397753D01*
X217720Y398280D01*
X218247Y399069D01*
X218433Y400000D01*
X218247Y400931D01*
X217720Y401720D01*
X216931Y402247D01*
X216000Y402433D01*
D02*
G37*
G36*
X203500Y396933D02*
X202569Y396747D01*
X201780Y396220D01*
X201253Y395431D01*
X201067Y394500D01*
X201253Y393569D01*
X201780Y392780D01*
X202569Y392253D01*
X203500Y392067D01*
X204431Y392253D01*
X205220Y392780D01*
X205747Y393569D01*
X205933Y394500D01*
X205747Y395431D01*
X205220Y396220D01*
X204431Y396747D01*
X203500Y396933D01*
D02*
G37*
G36*
X196000D02*
X195069Y396747D01*
X194280Y396220D01*
X193753Y395431D01*
X193567Y394500D01*
X193753Y393569D01*
X194280Y392780D01*
X195069Y392253D01*
X196000Y392067D01*
X196931Y392253D01*
X197720Y392780D01*
X198247Y393569D01*
X198433Y394500D01*
X198247Y395431D01*
X197720Y396220D01*
X196931Y396747D01*
X196000Y396933D01*
D02*
G37*
G36*
X207500Y391933D02*
X206569Y391747D01*
X205780Y391220D01*
X205253Y390431D01*
X205067Y389500D01*
X205253Y388569D01*
X205780Y387780D01*
X206569Y387253D01*
X207500Y387067D01*
X208431Y387253D01*
X209220Y387780D01*
X209747Y388569D01*
X209933Y389500D01*
X209747Y390431D01*
X209220Y391220D01*
X208431Y391747D01*
X207500Y391933D01*
D02*
G37*
G36*
X197500Y387433D02*
X196569Y387247D01*
X195780Y386720D01*
X195253Y385931D01*
X195067Y385000D01*
X195253Y384069D01*
X195780Y383280D01*
X196569Y382753D01*
X197500Y382567D01*
X198431Y382753D01*
X199220Y383280D01*
X199747Y384069D01*
X199933Y385000D01*
X199747Y385931D01*
X199220Y386720D01*
X198431Y387247D01*
X197500Y387433D01*
D02*
G37*
G36*
X136885Y385300D02*
X135954Y385115D01*
X135165Y384588D01*
X134638Y383799D01*
X134453Y382868D01*
X134638Y381937D01*
X135165Y381148D01*
X135954Y380620D01*
X136885Y380435D01*
X137816Y380620D01*
X138605Y381148D01*
X139133Y381937D01*
X139318Y382868D01*
X139133Y383799D01*
X138605Y384588D01*
X137816Y385115D01*
X136885Y385300D01*
D02*
G37*
G36*
X212500Y380433D02*
X211569Y380247D01*
X210780Y379720D01*
X210720D01*
X209931Y380247D01*
X209000Y380433D01*
X208069Y380247D01*
X207280Y379720D01*
X207051Y379377D01*
X206449D01*
X206220Y379720D01*
X205431Y380247D01*
X204500Y380433D01*
X203569Y380247D01*
X202780Y379720D01*
X202253Y378931D01*
X202067Y378000D01*
X202253Y377069D01*
X202780Y376280D01*
X203569Y375753D01*
X204500Y375567D01*
X205431Y375753D01*
X206220Y376280D01*
X206449Y376623D01*
X207051D01*
X207280Y376280D01*
X208069Y375753D01*
X209000Y375567D01*
X209931Y375753D01*
X210720Y376280D01*
X210780D01*
X211569Y375753D01*
X212500Y375567D01*
X213431Y375753D01*
X214220Y376280D01*
X214747Y377069D01*
X214933Y378000D01*
X214747Y378931D01*
X214220Y379720D01*
X213431Y380247D01*
X212500Y380433D01*
D02*
G37*
G36*
X160000Y371486D02*
X158539Y371342D01*
X157135Y370916D01*
X155841Y370224D01*
X154707Y369293D01*
X153776Y368159D01*
X153084Y366865D01*
X152658Y365460D01*
X152514Y364000D01*
X152658Y362540D01*
X153084Y361135D01*
X153776Y359841D01*
X154707Y358707D01*
X155841Y357776D01*
X157135Y357084D01*
X158539Y356658D01*
X160000Y356514D01*
X161460Y356658D01*
X162865Y357084D01*
X164159Y357776D01*
X165293Y358707D01*
X166224Y359841D01*
X166916Y361135D01*
X167342Y362540D01*
X167486Y364000D01*
X167342Y365460D01*
X166916Y366865D01*
X166224Y368159D01*
X165293Y369293D01*
X164159Y370224D01*
X162865Y370916D01*
X161460Y371342D01*
X160000Y371486D01*
D02*
G37*
G36*
X190000Y346433D02*
X189069Y346247D01*
X188280Y345720D01*
X187753Y344931D01*
X187567Y344000D01*
X187753Y343069D01*
X188280Y342280D01*
X189069Y341753D01*
X190000Y341567D01*
X190931Y341753D01*
X191720Y342280D01*
X192247Y343069D01*
X192433Y344000D01*
X192247Y344931D01*
X191720Y345720D01*
X190931Y346247D01*
X190000Y346433D01*
D02*
G37*
G36*
X183000D02*
X182069Y346247D01*
X181280Y345720D01*
X180753Y344931D01*
X180567Y344000D01*
X180753Y343069D01*
X181280Y342280D01*
X182069Y341753D01*
X183000Y341567D01*
X183931Y341753D01*
X184720Y342280D01*
X185247Y343069D01*
X185433Y344000D01*
X185247Y344931D01*
X184720Y345720D01*
X183931Y346247D01*
X183000Y346433D01*
D02*
G37*
G36*
X176000D02*
X175069Y346247D01*
X174280Y345720D01*
X173753Y344931D01*
X173567Y344000D01*
X173753Y343069D01*
X174280Y342280D01*
X175069Y341753D01*
X176000Y341567D01*
X176931Y341753D01*
X177720Y342280D01*
X178247Y343069D01*
X178433Y344000D01*
X178247Y344931D01*
X177720Y345720D01*
X176931Y346247D01*
X176000Y346433D01*
D02*
G37*
G36*
X282000Y345433D02*
X281069Y345247D01*
X280280Y344720D01*
X279753Y343931D01*
X279567Y343000D01*
X279753Y342069D01*
X280280Y341280D01*
X281069Y340753D01*
X282000Y340567D01*
X282931Y340753D01*
X283720Y341280D01*
X284247Y342069D01*
X284433Y343000D01*
X284247Y343931D01*
X283720Y344720D01*
X282931Y345247D01*
X282000Y345433D01*
D02*
G37*
G36*
X217500Y339933D02*
X216569Y339747D01*
X216250Y339534D01*
X215931Y339747D01*
X215000Y339933D01*
X214069Y339747D01*
X213750Y339534D01*
X213431Y339747D01*
X212500Y339933D01*
X211569Y339747D01*
X210780Y339220D01*
X210253Y338431D01*
X210243Y338384D01*
X210000Y338433D01*
X209069Y338247D01*
X208280Y337720D01*
X208051Y337377D01*
X207449D01*
X207220Y337720D01*
X206431Y338247D01*
X205500Y338433D01*
X204569Y338247D01*
X203780Y337720D01*
X203253Y336931D01*
X203131Y336317D01*
X202614Y335910D01*
X202500Y335933D01*
X201569Y335747D01*
X200780Y335220D01*
X200253Y334431D01*
X200067Y333500D01*
X200253Y332569D01*
X200780Y331780D01*
X201569Y331253D01*
X202500Y331067D01*
X203431Y331253D01*
X204220Y331780D01*
X204747Y332569D01*
X204879Y333231D01*
X205386Y333590D01*
X205500Y333567D01*
X206431Y333753D01*
X207220Y334280D01*
X207449Y334623D01*
X208051D01*
X208280Y334280D01*
X209069Y333753D01*
X210000Y333567D01*
X210931Y333753D01*
X211720Y334280D01*
X212247Y335069D01*
X212257Y335116D01*
X212500Y335067D01*
X213431Y335253D01*
X213750Y335466D01*
X214069Y335253D01*
X215000Y335067D01*
X215931Y335253D01*
X216250Y335466D01*
X216569Y335253D01*
X217500Y335067D01*
X217743Y335116D01*
X217753Y335069D01*
X218280Y334280D01*
X219069Y333753D01*
X220000Y333567D01*
X220931Y333753D01*
X221720Y334280D01*
X222247Y335069D01*
X222433Y336000D01*
X222247Y336931D01*
X221720Y337720D01*
X220931Y338247D01*
X220000Y338433D01*
X219757Y338384D01*
X219747Y338431D01*
X219220Y339220D01*
X218431Y339747D01*
X217500Y339933D01*
D02*
G37*
G36*
X191500Y338433D02*
X190569Y338247D01*
X189780Y337720D01*
X189551Y337377D01*
X188949D01*
X188720Y337720D01*
X187931Y338247D01*
X187000Y338433D01*
X186069Y338247D01*
X185280Y337720D01*
X184753Y336931D01*
X184567Y336000D01*
X184753Y335069D01*
X185280Y334280D01*
X186069Y333753D01*
X187000Y333567D01*
X187931Y333753D01*
X188720Y334280D01*
X188949Y334623D01*
X189551D01*
X189780Y334280D01*
X190569Y333753D01*
X191500Y333567D01*
X191917Y333650D01*
X192067Y333500D01*
X192253Y332569D01*
X192780Y331780D01*
X193569Y331253D01*
X194500Y331067D01*
X195431Y331253D01*
X196220Y331780D01*
X196747Y332569D01*
X196933Y333500D01*
X196747Y334431D01*
X196220Y335220D01*
X195431Y335747D01*
X194500Y335933D01*
X194386Y335910D01*
X193869Y336317D01*
X193747Y336931D01*
X193220Y337720D01*
X192431Y338247D01*
X191500Y338433D01*
D02*
G37*
G36*
X160024Y351804D02*
X158563Y351660D01*
X157159Y351234D01*
X155865Y350542D01*
X154730Y349612D01*
X153799Y348477D01*
X153107Y347183D01*
X152681Y345779D01*
X152538Y344318D01*
X152681Y342858D01*
X153107Y341453D01*
X153799Y340159D01*
X154730Y339025D01*
X155865Y338094D01*
X157159Y337402D01*
X158563Y336976D01*
X160024Y336832D01*
X161484Y336976D01*
X162888Y337402D01*
X164183Y338094D01*
X165317Y339025D01*
X166248Y340159D01*
X166940Y341453D01*
X167366Y342858D01*
X167510Y344318D01*
X167366Y345779D01*
X166940Y347183D01*
X166248Y348477D01*
X165317Y349612D01*
X164183Y350542D01*
X162888Y351234D01*
X161484Y351660D01*
X160024Y351804D01*
D02*
G37*
G36*
X279000Y339433D02*
X278069Y339247D01*
X277280Y338720D01*
X276753Y337931D01*
X276567Y337000D01*
X276753Y336069D01*
X277280Y335280D01*
X278069Y334753D01*
X279000Y334567D01*
X279931Y334753D01*
X280720Y335280D01*
X281247Y336069D01*
X281433Y337000D01*
X281247Y337931D01*
X280720Y338720D01*
X279931Y339247D01*
X279000Y339433D01*
D02*
G37*
G36*
X238000Y355433D02*
X237069Y355247D01*
X236280Y354720D01*
X235753Y353931D01*
X235567Y353000D01*
X235753Y352069D01*
X236133Y351500D01*
X235753Y350931D01*
X235567Y350000D01*
X235753Y349069D01*
X236133Y348500D01*
X235753Y347931D01*
X235567Y347000D01*
X235753Y346069D01*
X236261Y345309D01*
X236325Y345167D01*
Y344833D01*
X236261Y344691D01*
X235753Y343931D01*
X235567Y343000D01*
X235753Y342069D01*
X236133Y341500D01*
X235753Y340931D01*
X235567Y340000D01*
X235753Y339069D01*
X236133Y338500D01*
X235753Y337931D01*
X235567Y337000D01*
X235753Y336069D01*
X236280Y335280D01*
X237069Y334753D01*
X238000Y334567D01*
X238931Y334753D01*
X239720Y335280D01*
X240247Y336069D01*
X240433Y337000D01*
X240247Y337931D01*
X239867Y338500D01*
X240247Y339069D01*
X240433Y340000D01*
X240247Y340931D01*
X239867Y341500D01*
X240247Y342069D01*
X240433Y343000D01*
X240247Y343931D01*
X239739Y344691D01*
X239675Y344833D01*
Y345167D01*
X239739Y345309D01*
X240247Y346069D01*
X240433Y347000D01*
X240247Y347931D01*
X239867Y348500D01*
X240247Y349069D01*
X240433Y350000D01*
X240247Y350931D01*
X239867Y351500D01*
X240247Y352069D01*
X240433Y353000D01*
X240247Y353931D01*
X239720Y354720D01*
X238931Y355247D01*
X238000Y355433D01*
D02*
G37*
G36*
X320000Y310433D02*
X319069Y310247D01*
X318280Y309720D01*
X317753Y308931D01*
X317567Y308000D01*
X317753Y307069D01*
X318280Y306280D01*
X319069Y305753D01*
X320000Y305567D01*
X320931Y305753D01*
X321720Y306280D01*
X322247Y307069D01*
X322433Y308000D01*
X322247Y308931D01*
X321720Y309720D01*
X320931Y310247D01*
X320000Y310433D01*
D02*
G37*
G36*
X319000Y287433D02*
X318069Y287247D01*
X317280Y286720D01*
X316753Y285931D01*
X316567Y285000D01*
X316753Y284069D01*
X317280Y283280D01*
X318069Y282753D01*
X319000Y282567D01*
X319931Y282753D01*
X320720Y283280D01*
X321247Y284069D01*
X321433Y285000D01*
X321247Y285931D01*
X320720Y286720D01*
X319931Y287247D01*
X319000Y287433D01*
D02*
G37*
G36*
X285500Y278433D02*
X284569Y278247D01*
X283780Y277720D01*
X283253Y276931D01*
X283067Y276000D01*
X283253Y275069D01*
X283780Y274280D01*
X284569Y273753D01*
X285500Y273567D01*
X286431Y273753D01*
X287220Y274280D01*
X287747Y275069D01*
X287933Y276000D01*
X287747Y276931D01*
X287220Y277720D01*
X286431Y278247D01*
X285500Y278433D01*
D02*
G37*
G36*
X319000Y266433D02*
X318069Y266247D01*
X317280Y265720D01*
X316753Y264931D01*
X316567Y264000D01*
X316753Y263069D01*
X317280Y262280D01*
X318069Y261753D01*
X319000Y261567D01*
X319931Y261753D01*
X320720Y262280D01*
X321247Y263069D01*
X321433Y264000D01*
X321247Y264931D01*
X320720Y265720D01*
X319931Y266247D01*
X319000Y266433D01*
D02*
G37*
G36*
X349000Y264433D02*
X348069Y264247D01*
X347280Y263720D01*
X346753Y262931D01*
X346567Y262000D01*
X346753Y261069D01*
X347280Y260280D01*
X348069Y259753D01*
X349000Y259567D01*
X349931Y259753D01*
X350720Y260280D01*
X351247Y261069D01*
X351433Y262000D01*
X351247Y262931D01*
X350720Y263720D01*
X349931Y264247D01*
X349000Y264433D01*
D02*
G37*
G36*
X290500Y249933D02*
X289569Y249747D01*
X288780Y249220D01*
X288253Y248431D01*
X288067Y247500D01*
X288253Y246569D01*
X288780Y245780D01*
X289569Y245253D01*
X290500Y245067D01*
X291356Y245238D01*
X291571Y245071D01*
X291738Y244856D01*
X291567Y244000D01*
X291753Y243069D01*
X292280Y242280D01*
X293069Y241753D01*
X294000Y241567D01*
X294931Y241753D01*
X295720Y242280D01*
X296247Y243069D01*
X296433Y244000D01*
X296247Y244931D01*
X295720Y245720D01*
X294931Y246247D01*
X294000Y246433D01*
X293144Y246262D01*
X292929Y246429D01*
X292762Y246644D01*
X292933Y247500D01*
X292747Y248431D01*
X292220Y249220D01*
X291431Y249747D01*
X290500Y249933D01*
D02*
G37*
G36*
X261500Y321933D02*
X260569Y321747D01*
X259780Y321220D01*
X259253Y320431D01*
X259067Y319500D01*
X259253Y318569D01*
X259633Y318000D01*
X259253Y317431D01*
X259067Y316500D01*
X259253Y315569D01*
X259780Y314780D01*
X260569Y314253D01*
X261500Y314067D01*
X262431Y314253D01*
X263220Y314780D01*
X263747Y315569D01*
X263933Y316500D01*
X263747Y317431D01*
X263367Y318000D01*
X263747Y318569D01*
X263933Y319500D01*
X263747Y320431D01*
X263220Y321220D01*
X262431Y321747D01*
X261500Y321933D01*
D02*
G37*
G36*
X269000Y252433D02*
X268069Y252247D01*
X267280Y251720D01*
X266753Y250931D01*
X266567Y250000D01*
X266753Y249069D01*
X267280Y248280D01*
X268069Y247753D01*
X269000Y247567D01*
X269931Y247753D01*
X270720Y248280D01*
X271247Y249069D01*
X271433Y250000D01*
X271247Y250931D01*
X270720Y251720D01*
X269931Y252247D01*
X269000Y252433D01*
D02*
G37*
G36*
X288000Y226433D02*
X287069Y226247D01*
X286280Y225720D01*
X285753Y224931D01*
X285567Y224000D01*
X285753Y223069D01*
X286280Y222280D01*
X287069Y221753D01*
X288000Y221567D01*
X288931Y221753D01*
X289720Y222280D01*
X290247Y223069D01*
X290433Y224000D01*
X290247Y224931D01*
X289720Y225720D01*
X288931Y226247D01*
X288000Y226433D01*
D02*
G37*
G36*
X264500Y223933D02*
X263569Y223747D01*
X262780Y223220D01*
X262253Y222431D01*
X262067Y221500D01*
X262253Y220569D01*
X262780Y219780D01*
X263569Y219253D01*
X264500Y219067D01*
X265431Y219253D01*
X266220Y219780D01*
X266747Y220569D01*
X266933Y221500D01*
X266747Y222431D01*
X266220Y223220D01*
X265431Y223747D01*
X264500Y223933D01*
D02*
G37*
G36*
X281000Y220433D02*
X280069Y220247D01*
X279280Y219720D01*
X278753Y218931D01*
X278567Y218000D01*
X278753Y217069D01*
X279280Y216280D01*
X280069Y215753D01*
X281000Y215567D01*
X281267Y215621D01*
X281621Y215267D01*
X281567Y215000D01*
X281753Y214069D01*
X282280Y213280D01*
X283069Y212753D01*
X284000Y212567D01*
X284931Y212753D01*
X285720Y213280D01*
X286247Y214069D01*
X286433Y215000D01*
X286247Y215931D01*
X285720Y216720D01*
X284931Y217247D01*
X284000Y217433D01*
X283733Y217379D01*
X283379Y217733D01*
X283433Y218000D01*
X283247Y218931D01*
X282720Y219720D01*
X281931Y220247D01*
X281000Y220433D01*
D02*
G37*
G36*
X316000Y204933D02*
X315069Y204747D01*
X314280Y204220D01*
X313753Y203431D01*
X313567Y202500D01*
X313753Y201569D01*
X314280Y200780D01*
X315069Y200253D01*
X316000Y200067D01*
X316931Y200253D01*
X317720Y200780D01*
X318247Y201569D01*
X318433Y202500D01*
X318247Y203431D01*
X317720Y204220D01*
X316931Y204747D01*
X316000Y204933D01*
D02*
G37*
G36*
X291500Y204548D02*
X290569Y204363D01*
X289780Y203836D01*
X289253Y203047D01*
X289068Y202116D01*
X289253Y201185D01*
X289780Y200396D01*
X290569Y199869D01*
X291500Y199683D01*
X292431Y199869D01*
X293220Y200396D01*
X293411Y200681D01*
X294012D01*
X294280Y200280D01*
X295069Y199753D01*
X296000Y199567D01*
X296931Y199753D01*
X297720Y200280D01*
X298247Y201069D01*
X298433Y202000D01*
X298247Y202931D01*
X297720Y203720D01*
X296931Y204247D01*
X296000Y204433D01*
X295069Y204247D01*
X294280Y203720D01*
X294090Y203435D01*
X293488D01*
X293220Y203836D01*
X292431Y204363D01*
X291500Y204548D01*
D02*
G37*
G36*
X349000Y196433D02*
X348069Y196247D01*
X347280Y195720D01*
X346753Y194931D01*
X346567Y194000D01*
X346753Y193069D01*
X347280Y192280D01*
X348069Y191753D01*
X349000Y191567D01*
X349931Y191753D01*
X350720Y192280D01*
X351247Y193069D01*
X351433Y194000D01*
X351247Y194931D01*
X350720Y195720D01*
X349931Y196247D01*
X349000Y196433D01*
D02*
G37*
G36*
X274000Y195433D02*
X273069Y195247D01*
X272280Y194720D01*
X271753Y193931D01*
X271567Y193000D01*
X271753Y192069D01*
X272280Y191280D01*
X273069Y190753D01*
X274000Y190567D01*
X274931Y190753D01*
X275720Y191280D01*
X276247Y192069D01*
X276433Y193000D01*
X276247Y193931D01*
X275720Y194720D01*
X274931Y195247D01*
X274000Y195433D01*
D02*
G37*
G36*
X336423Y185433D02*
X335492Y185247D01*
X334703Y184720D01*
X334175Y183931D01*
X333990Y183000D01*
X334175Y182069D01*
X334703Y181280D01*
X335492Y180753D01*
X336423Y180567D01*
X337354Y180753D01*
X338143Y181280D01*
X338670Y182069D01*
X338855Y183000D01*
X338670Y183931D01*
X338143Y184720D01*
X337354Y185247D01*
X336423Y185433D01*
D02*
G37*
G36*
X330000D02*
X329069Y185247D01*
X328280Y184720D01*
X327753Y183931D01*
X327567Y183000D01*
X327753Y182069D01*
X328280Y181280D01*
X329069Y180753D01*
X330000Y180567D01*
X330931Y180753D01*
X331720Y181280D01*
X332247Y182069D01*
X332433Y183000D01*
X332247Y183931D01*
X331720Y184720D01*
X330931Y185247D01*
X330000Y185433D01*
D02*
G37*
G36*
X323483D02*
X322552Y185247D01*
X321763Y184720D01*
X321236Y183931D01*
X321051Y183000D01*
X321236Y182069D01*
X321763Y181280D01*
X322552Y180753D01*
X323483Y180567D01*
X324414Y180753D01*
X325203Y181280D01*
X325730Y182069D01*
X325916Y183000D01*
X325730Y183931D01*
X325203Y184720D01*
X324414Y185247D01*
X323483Y185433D01*
D02*
G37*
G36*
X309500Y183433D02*
X308569Y183247D01*
X307780Y182720D01*
X307253Y181931D01*
X307067Y181000D01*
X307253Y180069D01*
X307780Y179280D01*
X308569Y178753D01*
X309500Y178567D01*
X310431Y178753D01*
X311220Y179280D01*
X311747Y180069D01*
X311933Y181000D01*
X311747Y181931D01*
X311220Y182720D01*
X310431Y183247D01*
X309500Y183433D01*
D02*
G37*
G36*
X303000D02*
X302069Y183247D01*
X301280Y182720D01*
X300753Y181931D01*
X300567Y181000D01*
X300753Y180069D01*
X301280Y179280D01*
X302069Y178753D01*
X303000Y178567D01*
X303931Y178753D01*
X304720Y179280D01*
X305247Y180069D01*
X305433Y181000D01*
X305247Y181931D01*
X304720Y182720D01*
X303931Y183247D01*
X303000Y183433D01*
D02*
G37*
G36*
X199600Y226933D02*
X198669Y226747D01*
X197880Y226220D01*
X197353Y225431D01*
X197167Y224500D01*
X197353Y223569D01*
X197880Y222780D01*
X198669Y222253D01*
X199600Y222067D01*
X200531Y222253D01*
X201320Y222780D01*
X201847Y223569D01*
X202033Y224500D01*
X201847Y225431D01*
X201320Y226220D01*
X200531Y226747D01*
X199600Y226933D01*
D02*
G37*
G36*
X206500Y226433D02*
X205569Y226247D01*
X204780Y225720D01*
X204253Y224931D01*
X204067Y224000D01*
X204253Y223069D01*
X204780Y222280D01*
X205569Y221753D01*
X206500Y221567D01*
X207431Y221753D01*
X208220Y222280D01*
X208747Y223069D01*
X208933Y224000D01*
X208747Y224931D01*
X208220Y225720D01*
X207431Y226247D01*
X206500Y226433D01*
D02*
G37*
G36*
X208500Y193933D02*
X207569Y193747D01*
X206780Y193220D01*
X206253Y192431D01*
X206067Y191500D01*
X206253Y190569D01*
X206780Y189780D01*
X207569Y189253D01*
X208500Y189067D01*
X209431Y189253D01*
X210220Y189780D01*
X210747Y190569D01*
X210933Y191500D01*
X210747Y192431D01*
X210220Y193220D01*
X209431Y193747D01*
X208500Y193933D01*
D02*
G37*
G36*
X201658Y185933D02*
X200727Y185747D01*
X199937Y185220D01*
X199410Y184431D01*
X199225Y183500D01*
X199410Y182569D01*
X199937Y181780D01*
X200727Y181253D01*
X201658Y181067D01*
X202588Y181253D01*
X203378Y181780D01*
X203905Y182569D01*
X204090Y183500D01*
X203905Y184431D01*
X203378Y185220D01*
X202588Y185747D01*
X201658Y185933D01*
D02*
G37*
%LPD*%
D108*
X301000Y168000D02*
D03*
D113*
X271500Y246000D02*
D03*
X286611Y263074D02*
D03*
X284500Y263000D02*
D03*
X274000Y322000D02*
D03*
X271500D02*
D03*
X290500D02*
D03*
X293000D02*
D03*
X261000Y343000D02*
D03*
Y337000D02*
D03*
Y340000D02*
D03*
X277000Y376000D02*
D03*
Y380000D02*
D03*
Y384000D02*
D03*
Y388000D02*
D03*
X270500Y282000D02*
D03*
X324000Y299500D02*
D03*
X208500Y186000D02*
D03*
X203000Y215500D02*
D03*
X210500Y232000D02*
D03*
X208000D02*
D03*
X205000D02*
D03*
X202500D02*
D03*
X261000Y347000D02*
D03*
Y350000D02*
D03*
Y353000D02*
D03*
X180000Y326000D02*
D03*
Y323000D02*
D03*
X217000D02*
D03*
Y326000D02*
D03*
X268994Y213399D02*
D03*
X274000Y179000D02*
D03*
X314500Y181000D02*
D03*
M02*
