M48
;Layer_Color=9474304
;FILE_FORMAT=2:5
INCH,TZ
;TYPE=PLATED
T1F00S00C0.00787
T2F00S00C0.02900
T3F00S00C0.04000
T4F00S00C0.04291
T5F00S00C0.07500
T6F00S00C0.08900
T7F00S00C0.12205
;TYPE=NON_PLATED
T8F00S00C0.08900
%
T01
X330000Y157000
Y183000
X336423
X323483
X314500Y181000
X316000Y202500
X349000Y194000
X406000Y184000
X417500Y174514
X422000Y177500
X436500Y180200
X451000Y199500
X461000Y206500
X426949Y208952
X420000Y214000
X406028Y205018
X406000Y252000
X417500Y242514
X422000Y245500
X436500Y248200
X451000Y267500
X461000Y274500
X426949Y276952
X420000Y282000
X406028Y273018
X417500Y310514
X320000Y308000
X324000Y299500
X319000Y285000
Y264000
X349000Y262000
X286611Y263074
X284500Y263000
X285500Y276000
X275500Y282000
X270500
X269000Y250000
X274500
X276500Y246000
X271500
X290500Y247500
X294000Y244000
X298000Y225000
X301000
X304000
X288000Y224000
X281000Y218000
X284000Y215000
X268994Y213399
X264500Y221500
X274000Y193000
Y179000
X278000Y158000
X303000Y181000
X309500
X296000Y202000
X291500Y202116
X208500Y191500
Y186000
X201658Y183500
X193000Y180000
X185000Y204000
X190000Y216500
X203000Y215500
X206500Y224000
X199600Y224500
X202500Y232000
X205000
X208000
X210500
X203000Y242500
X200000
X197000
X194000
X191000Y258000
X190900Y263600
X193000Y270000
X198000
X136885Y382868
X152885Y414868
X183000Y415000
Y405000
X196000Y394500
X203500
X207500Y389500
X209000Y378000
X212500
X204500
X197500Y385000
X197000Y415000
X216000Y400000
X229000
X244000
X233000Y415000
X290000Y412000
X300000Y389000
X277000Y388000
Y384000
Y380000
Y376000
X300004Y364141
X300000Y343000
X299000Y334000
X292000Y331000
X288000
X284000
X279000Y337000
X282000Y343000
X273000Y331000
X269000
X265000
X261000Y337000
Y340000
Y343000
Y347000
Y350000
Y353000
X238000
Y350000
Y347000
Y343000
Y340000
Y337000
X220000Y336000
X217500Y337500
X215000
X212500
X210000Y336000
X205500
X202500Y333500
X194500
X191500Y336000
X187000
X190000Y344000
X183000
X176000
X180000Y326000
Y323000
X217000
Y326000
X261500Y319500
Y316500
X271500Y322000
X274000
X280500Y319500
Y316500
X290500Y322000
X293000
X349000Y330000
X406000Y320000
X406028Y341018
X420000Y350000
X426949Y344952
X451000Y335500
X461000Y342500
X436500Y316200
X422000Y313500
Y381500
X417500Y378515
X406000Y388000
X406028Y409018
X420000Y418000
X426949Y412952
X451000Y403500
X461000Y410500
X436500Y384200
X349000Y398000
T02
X281000Y163000
X286000
X291000
X296000
X301000
Y168000
X296000
X291000
X286000
X281000
T03
X177000Y191000
X187000
X185000Y227000
X175000
T04
X163000Y195000
Y205906
Y216811
Y227716
Y238622
X153000Y233150
Y222244
Y211378
Y200472
T05
X471024Y168318
X471000Y188000
X471024Y236318
X471000Y256000
X471024Y304318
X160024Y344318
X160000Y364000
X471024Y372318
X471000Y392000
Y324000
T06
X135000Y412000
T07
X158000Y167598
Y266024
T08
X180000Y150000
X420000
X500000Y418000
M30
