G04*
G04 #@! TF.GenerationSoftware,Altium Limited,Altium Designer,20.0.10 (225)*
G04*
G04 Layer_Color=16711935*
%FSLAX25Y25*%
%MOIN*%
G70*
G01*
G75*
%ADD14C,0.01181*%
%ADD19C,0.00500*%
%ADD98C,0.00394*%
D14*
X152686Y226515D02*
X151898D01*
X152686D01*
X151898D01*
X152686D01*
D19*
X102398Y309688D02*
X149643D01*
Y188035D02*
Y309688D01*
X102398Y188035D02*
X149643D01*
X102398D02*
Y216578D01*
Y281145D01*
Y309688D01*
X77989Y281145D02*
X102398D01*
X77989Y216578D02*
Y281145D01*
Y216578D02*
X102398D01*
Y309688D02*
X149643D01*
Y188035D02*
Y309688D01*
X102398Y188035D02*
X149643D01*
X102398D02*
Y216578D01*
Y281145D01*
Y309688D01*
X77989Y281145D02*
X102398D01*
X77989Y216578D02*
Y281145D01*
Y216578D02*
X102398D01*
D98*
X389735Y189602D02*
X389471Y190587D01*
X388750Y191307D01*
X387766Y191571D01*
X386782Y191307D01*
X386061Y190587D01*
X385798Y189602D01*
X386061Y188618D01*
X386782Y187898D01*
X387766Y187634D01*
X388750Y187898D01*
X389471Y188618D01*
X389735Y189602D01*
X465835Y181240D02*
X465572Y182224D01*
X464851Y182945D01*
X463867Y183208D01*
X462883Y182945D01*
X462162Y182224D01*
X461898Y181240D01*
X462162Y180255D01*
X462883Y179535D01*
X463867Y179271D01*
X464851Y179535D01*
X465572Y180255D01*
X465835Y181240D01*
Y264140D02*
X465572Y265124D01*
X464851Y265844D01*
X463867Y266108D01*
X462883Y265844D01*
X462162Y265124D01*
X461898Y264140D01*
X462162Y263156D01*
X462883Y262435D01*
X463867Y262171D01*
X464851Y262435D01*
X465572Y263156D01*
X465835Y264140D01*
Y347040D02*
X465572Y348024D01*
X464851Y348745D01*
X463867Y349008D01*
X462883Y348745D01*
X462162Y348024D01*
X461898Y347040D01*
X462162Y346056D01*
X462883Y345335D01*
X463867Y345071D01*
X464851Y345335D01*
X465572Y346056D01*
X465835Y347040D01*
X388348Y374331D02*
X388084Y375315D01*
X387364Y376035D01*
X386380Y376299D01*
X385395Y376035D01*
X384675Y375315D01*
X384411Y374331D01*
X384675Y373346D01*
X385395Y372626D01*
X386380Y372362D01*
X387364Y372626D01*
X388084Y373346D01*
X388348Y374331D01*
X265831Y410169D02*
X265567Y411154D01*
X264846Y411874D01*
X263862Y412138D01*
X262878Y411874D01*
X262157Y411154D01*
X261894Y410169D01*
X262157Y409185D01*
X262878Y408464D01*
X263862Y408201D01*
X264846Y408464D01*
X265567Y409185D01*
X265831Y410169D01*
X276887Y209653D02*
X276623Y210637D01*
X275902Y211357D01*
X274918Y211621D01*
X273934Y211357D01*
X273213Y210637D01*
X272950Y209653D01*
X273213Y208668D01*
X273934Y207948D01*
X274918Y207684D01*
X275902Y207948D01*
X276623Y208668D01*
X276887Y209653D01*
X313799Y465201D02*
X313535Y466185D01*
X312815Y466906D01*
X311831Y467169D01*
X310846Y466906D01*
X310126Y466185D01*
X309862Y465201D01*
X310126Y464217D01*
X310846Y463496D01*
X311831Y463232D01*
X312815Y463496D01*
X313535Y464217D01*
X313799Y465201D01*
X465835Y429940D02*
X465572Y430924D01*
X464851Y431644D01*
X463867Y431908D01*
X462883Y431644D01*
X462162Y430924D01*
X461898Y429940D01*
X462162Y428956D01*
X462883Y428235D01*
X463867Y427971D01*
X464851Y428235D01*
X465572Y428956D01*
X465835Y429940D01*
X361073Y239364D02*
X360809Y240348D01*
X360089Y241069D01*
X359105Y241332D01*
X358120Y241069D01*
X357400Y240348D01*
X357136Y239364D01*
X357400Y238380D01*
X358120Y237659D01*
X359105Y237395D01*
X360089Y237659D01*
X360809Y238380D01*
X361073Y239364D01*
X141134Y343042D02*
Y348358D01*
X132866Y343042D02*
Y348358D01*
Y343042D02*
X141134D01*
X132866Y348358D02*
X141134D01*
Y360643D02*
Y365957D01*
X132866Y360643D02*
Y365957D01*
Y360643D02*
X141134D01*
X132866Y365957D02*
X141134D01*
Y395642D02*
Y400957D01*
X132866Y395642D02*
Y400957D01*
Y395642D02*
X141134D01*
X132866Y400957D02*
X141134D01*
Y378142D02*
Y383457D01*
X132866Y378142D02*
Y383457D01*
Y378142D02*
X141134D01*
X132866Y383457D02*
X141134D01*
X384223Y173854D02*
Y193146D01*
X399577Y173854D02*
Y193146D01*
X384223D02*
X399577D01*
X384223Y173854D02*
X399577D01*
X467410Y177697D02*
Y222185D01*
X431190Y177697D02*
Y222185D01*
Y177697D02*
X467410D01*
X431190Y222185D02*
X467410D01*
Y260596D02*
Y305085D01*
X431190Y260596D02*
Y305085D01*
Y260596D02*
X467410D01*
X431190Y305085D02*
X467410D01*
Y343496D02*
Y387985D01*
X431190Y343496D02*
Y387985D01*
Y343496D02*
X467410D01*
X431190Y387985D02*
X467410D01*
X220630Y452630D02*
X249370D01*
X220630Y481370D02*
X249370D01*
X220630Y452630D02*
Y481370D01*
X249370Y452630D02*
Y481370D01*
X526355Y214837D02*
Y226845D01*
X533245Y214837D02*
Y226845D01*
X526355D02*
X533245D01*
X526355Y214837D02*
X533245D01*
X526355Y297737D02*
Y309745D01*
X533245Y297737D02*
Y309745D01*
X526355D02*
X533245D01*
X526355Y297737D02*
X533245D01*
X355376Y362126D02*
Y377874D01*
X389824Y362126D02*
Y377874D01*
X355376Y362126D02*
X389824D01*
X355376Y377874D02*
X389824D01*
X526355Y380637D02*
X533245D01*
X526355Y392645D02*
X533245D01*
Y380637D02*
Y392645D01*
X526355Y380637D02*
Y392645D01*
X255594Y422374D02*
X267406D01*
X255594Y406626D02*
X267406D01*
X255594D02*
Y422374D01*
X267406Y406626D02*
Y422374D01*
X278461Y206109D02*
Y257291D01*
X248540Y206109D02*
Y257291D01*
Y206109D02*
X278461D01*
X248540Y257291D02*
X278461D01*
X315374Y461657D02*
Y481343D01*
X299626Y461657D02*
Y481343D01*
Y461657D02*
X315374D01*
X299626Y481343D02*
X315374D01*
X467410Y426397D02*
Y470885D01*
X431190Y426397D02*
Y470885D01*
Y426397D02*
X467410D01*
X431190Y470885D02*
X467410D01*
X362648Y235821D02*
Y263380D01*
X335089Y235821D02*
Y263380D01*
Y235821D02*
X362648D01*
X335089Y263380D02*
X362648D01*
X526355Y463537D02*
X533245D01*
X526355Y475545D02*
X533245D01*
Y463537D02*
Y475545D01*
X526355Y463537D02*
Y475545D01*
M02*
