G04*
G04 #@! TF.GenerationSoftware,Altium Limited,Altium Designer,20.0.10 (225)*
G04*
G04 Layer_Physical_Order=4*
G04 Layer_Color=16711680*
%FSLAX25Y25*%
%MOIN*%
G70*
G01*
G75*
%ADD21C,0.01000*%
%ADD83C,0.01500*%
%ADD88C,0.23622*%
%ADD89C,0.07000*%
%ADD90R,0.07000X0.07000*%
%ADD91C,0.11900*%
%ADD92C,0.06000*%
%ADD93C,0.16535*%
%ADD94C,0.06437*%
%ADD95C,0.01772*%
%ADD96C,0.01968*%
%ADD97C,0.05000*%
G36*
X247800Y188200D02*
X247300Y188200D01*
X101000D01*
Y297500D01*
X101000Y297500D01*
X130845D01*
X130962Y296316D01*
X131475Y294626D01*
X132308Y293068D01*
X133428Y291702D01*
X134794Y290582D01*
X136352Y289749D01*
X138042Y289236D01*
X139800Y289063D01*
X141558Y289236D01*
X143248Y289749D01*
X144806Y290582D01*
X146172Y291702D01*
X147292Y293068D01*
X148125Y294626D01*
X148638Y296316D01*
X148755Y297500D01*
X247800D01*
Y188200D01*
D02*
G37*
G36*
X429000Y153000D02*
X278500D01*
Y328000D01*
X101000D01*
Y505000D01*
X429000D01*
Y153000D01*
D02*
G37*
%LPC*%
G36*
X144800Y274625D02*
X143777Y274490D01*
X142824Y274095D01*
X142005Y273467D01*
X141377Y272649D01*
X140982Y271695D01*
X140848Y270672D01*
X140982Y269650D01*
X141377Y268696D01*
X142005Y267878D01*
X142824Y267250D01*
X143777Y266855D01*
X144800Y266720D01*
X145823Y266855D01*
X146776Y267250D01*
X147595Y267878D01*
X148223Y268696D01*
X148618Y269650D01*
X148752Y270672D01*
X148618Y271695D01*
X148223Y272649D01*
X147595Y273467D01*
X146776Y274095D01*
X145823Y274490D01*
X144800Y274625D01*
D02*
G37*
G36*
X134800Y269152D02*
X133777Y269018D01*
X132824Y268623D01*
X132005Y267995D01*
X131377Y267176D01*
X130982Y266223D01*
X130848Y265200D01*
X130982Y264177D01*
X131377Y263224D01*
X132005Y262405D01*
X132824Y261777D01*
X133777Y261382D01*
X134800Y261248D01*
X135823Y261382D01*
X136776Y261777D01*
X137595Y262405D01*
X138223Y263224D01*
X138618Y264177D01*
X138752Y265200D01*
X138618Y266223D01*
X138223Y267176D01*
X137595Y267995D01*
X136776Y268623D01*
X135823Y269018D01*
X134800Y269152D01*
D02*
G37*
G36*
X144800Y263719D02*
X143777Y263585D01*
X142824Y263190D01*
X142005Y262562D01*
X141377Y261743D01*
X140982Y260790D01*
X140848Y259767D01*
X140982Y258744D01*
X141377Y257791D01*
X142005Y256972D01*
X142824Y256344D01*
X143777Y255949D01*
X144800Y255815D01*
X145823Y255949D01*
X146776Y256344D01*
X147595Y256972D01*
X148223Y257791D01*
X148618Y258744D01*
X148752Y259767D01*
X148618Y260790D01*
X148223Y261743D01*
X147595Y262562D01*
X146776Y263190D01*
X145823Y263585D01*
X144800Y263719D01*
D02*
G37*
G36*
X134800Y258247D02*
X133777Y258112D01*
X132824Y257717D01*
X132005Y257089D01*
X131377Y256271D01*
X130982Y255317D01*
X130848Y254294D01*
X130982Y253272D01*
X131377Y252318D01*
X132005Y251500D01*
X132824Y250872D01*
X133777Y250477D01*
X134800Y250342D01*
X135823Y250477D01*
X136776Y250872D01*
X137595Y251500D01*
X138223Y252318D01*
X138618Y253272D01*
X138752Y254294D01*
X138618Y255317D01*
X138223Y256271D01*
X137595Y257089D01*
X136776Y257717D01*
X135823Y258112D01*
X134800Y258247D01*
D02*
G37*
G36*
X212100Y250917D02*
X211443Y250786D01*
X210886Y250414D01*
X210513Y249857D01*
X210383Y249200D01*
X210513Y248543D01*
X210886Y247986D01*
X211443Y247614D01*
X212100Y247483D01*
X212757Y247614D01*
X213314Y247986D01*
X213686Y248543D01*
X213817Y249200D01*
X213686Y249857D01*
X213314Y250414D01*
X212757Y250786D01*
X212100Y250917D01*
D02*
G37*
G36*
X174300Y249436D02*
X173204Y249292D01*
X172182Y248869D01*
X171305Y248196D01*
X170631Y247318D01*
X170208Y246296D01*
X170064Y245200D01*
X170208Y244104D01*
X170631Y243082D01*
X171305Y242204D01*
X172182Y241531D01*
X173204Y241108D01*
X174300Y240964D01*
X175396Y241108D01*
X176418Y241531D01*
X177295Y242204D01*
X177969Y243082D01*
X178392Y244104D01*
X178536Y245200D01*
X178392Y246296D01*
X177969Y247318D01*
X177295Y248196D01*
X176418Y248869D01*
X175396Y249292D01*
X174300Y249436D01*
D02*
G37*
G36*
X164300Y249436D02*
X163204Y249292D01*
X162182Y248869D01*
X161304Y248195D01*
X160631Y247318D01*
X160208Y246296D01*
X160064Y245200D01*
X160208Y244104D01*
X160631Y243082D01*
X161304Y242204D01*
X162182Y241531D01*
X163204Y241108D01*
X164300Y240964D01*
X165396Y241108D01*
X166418Y241531D01*
X167296Y242204D01*
X167969Y243082D01*
X168392Y244104D01*
X168536Y245200D01*
X168392Y246296D01*
X167969Y247318D01*
X167296Y248195D01*
X166418Y248869D01*
X165396Y249292D01*
X164300Y249436D01*
D02*
G37*
G36*
X134800Y247381D02*
X133777Y247246D01*
X132824Y246851D01*
X132005Y246223D01*
X131377Y245405D01*
X130982Y244451D01*
X130848Y243428D01*
X130982Y242405D01*
X131377Y241452D01*
X132005Y240634D01*
X132824Y240005D01*
X133777Y239611D01*
X134800Y239476D01*
X135823Y239611D01*
X136776Y240005D01*
X137595Y240634D01*
X138223Y241452D01*
X138618Y242405D01*
X138752Y243428D01*
X138618Y244451D01*
X138223Y245405D01*
X137595Y246223D01*
X136776Y246851D01*
X135823Y247246D01*
X134800Y247381D01*
D02*
G37*
G36*
X235300Y255817D02*
X234681Y255694D01*
X234157Y255343D01*
X233806Y254819D01*
X233711Y254342D01*
X233435Y254065D01*
X233170Y253668D01*
X233077Y253200D01*
Y238223D01*
X232806Y237819D01*
X232683Y237200D01*
X232806Y236581D01*
X233157Y236057D01*
X233681Y235706D01*
X234300Y235583D01*
X234919Y235706D01*
X235443Y236057D01*
X235794Y236581D01*
X235917Y237200D01*
X235794Y237819D01*
X235524Y238223D01*
Y252628D01*
X235919Y252706D01*
X236443Y253057D01*
X236794Y253581D01*
X236917Y254200D01*
X236794Y254819D01*
X236443Y255343D01*
X235919Y255694D01*
X235300Y255817D01*
D02*
G37*
G36*
X144800Y241908D02*
X143777Y241774D01*
X142824Y241379D01*
X142005Y240751D01*
X141377Y239932D01*
X140982Y238979D01*
X140848Y237956D01*
X140982Y236933D01*
X141377Y235980D01*
X142005Y235161D01*
X142824Y234533D01*
X143777Y234138D01*
X144800Y234004D01*
X145823Y234138D01*
X146776Y234533D01*
X147595Y235161D01*
X148223Y235980D01*
X148618Y236933D01*
X148752Y237956D01*
X148618Y238979D01*
X148223Y239932D01*
X147595Y240751D01*
X146776Y241379D01*
X145823Y241774D01*
X144800Y241908D01*
D02*
G37*
G36*
Y231003D02*
X143777Y230868D01*
X142824Y230473D01*
X142005Y229845D01*
X141377Y229027D01*
X140982Y228073D01*
X140848Y227050D01*
X140982Y226027D01*
X141377Y225074D01*
X142005Y224256D01*
X142824Y223628D01*
X143777Y223233D01*
X144800Y223098D01*
X145823Y223233D01*
X146776Y223628D01*
X147595Y224256D01*
X148223Y225074D01*
X148618Y226027D01*
X148752Y227050D01*
X148618Y228073D01*
X148223Y229027D01*
X147595Y229845D01*
X146776Y230473D01*
X145823Y230868D01*
X144800Y231003D01*
D02*
G37*
G36*
X200300Y245817D02*
X199681Y245694D01*
X199157Y245343D01*
X198806Y244819D01*
X198683Y244200D01*
X198806Y243581D01*
X199076Y243177D01*
Y224223D01*
X198806Y223819D01*
X198683Y223200D01*
X198806Y222581D01*
X199157Y222057D01*
X199681Y221706D01*
X200300Y221583D01*
X200919Y221706D01*
X201443Y222057D01*
X201794Y222581D01*
X201917Y223200D01*
X201794Y223819D01*
X201523Y224223D01*
Y243177D01*
X201794Y243581D01*
X201917Y244200D01*
X201794Y244819D01*
X201443Y245343D01*
X200919Y245694D01*
X200300Y245817D01*
D02*
G37*
G36*
X174300Y222436D02*
X173204Y222292D01*
X172182Y221869D01*
X171305Y221196D01*
X170631Y220318D01*
X170208Y219296D01*
X170064Y218200D01*
X170208Y217104D01*
X170631Y216082D01*
X171305Y215205D01*
X172182Y214531D01*
X173204Y214108D01*
X174300Y213964D01*
X175396Y214108D01*
X176418Y214531D01*
X177295Y215205D01*
X177969Y216082D01*
X178392Y217104D01*
X178536Y218200D01*
X178392Y219296D01*
X177969Y220318D01*
X177295Y221196D01*
X176418Y221869D01*
X175396Y222292D01*
X174300Y222436D01*
D02*
G37*
G36*
X164300Y222436D02*
X163204Y222292D01*
X162182Y221869D01*
X161304Y221195D01*
X160631Y220318D01*
X160208Y219296D01*
X160064Y218200D01*
X160208Y217104D01*
X160631Y216082D01*
X161304Y215205D01*
X162182Y214531D01*
X163204Y214108D01*
X164300Y213964D01*
X165396Y214108D01*
X166418Y214531D01*
X167296Y215205D01*
X167969Y216082D01*
X168392Y217104D01*
X168536Y218200D01*
X168392Y219296D01*
X167969Y220318D01*
X167296Y221195D01*
X166418Y221869D01*
X165396Y222292D01*
X164300Y222436D01*
D02*
G37*
G36*
X239500Y215917D02*
X238843Y215787D01*
X238286Y215414D01*
X237913Y214857D01*
X237783Y214200D01*
X237913Y213543D01*
X238286Y212986D01*
X238843Y212614D01*
X239500Y212483D01*
X240157Y212614D01*
X240714Y212986D01*
X241087Y213543D01*
X241217Y214200D01*
X241087Y214857D01*
X240714Y215414D01*
X240157Y215787D01*
X239500Y215917D01*
D02*
G37*
G36*
X139800Y208660D02*
X138042Y208487D01*
X136352Y207974D01*
X134794Y207141D01*
X133428Y206021D01*
X132308Y204655D01*
X131475Y203097D01*
X130962Y201407D01*
X130789Y199649D01*
X130962Y197891D01*
X131475Y196200D01*
X132308Y194642D01*
X133428Y193277D01*
X134794Y192156D01*
X136352Y191324D01*
X138042Y190811D01*
X139800Y190638D01*
X141558Y190811D01*
X143248Y191324D01*
X144806Y192156D01*
X146172Y193277D01*
X147292Y194642D01*
X148125Y196200D01*
X148638Y197891D01*
X148811Y199649D01*
X148638Y201407D01*
X148125Y203097D01*
X147292Y204655D01*
X146172Y206021D01*
X144806Y207141D01*
X143248Y207974D01*
X141558Y208487D01*
X139800Y208660D01*
D02*
G37*
G36*
X130500Y503010D02*
Y491000D01*
X142510D01*
X142395Y492463D01*
X141936Y494378D01*
X141182Y496197D01*
X140153Y497877D01*
X138874Y499374D01*
X137376Y500653D01*
X135697Y501682D01*
X133878Y502435D01*
X131963Y502895D01*
X130500Y503010D01*
D02*
G37*
G36*
X129500D02*
X128037Y502895D01*
X126122Y502435D01*
X124303Y501682D01*
X122624Y500653D01*
X121126Y499374D01*
X119847Y497877D01*
X118818Y496197D01*
X118064Y494378D01*
X117605Y492463D01*
X117490Y491000D01*
X129500D01*
Y503010D01*
D02*
G37*
G36*
X307700Y487862D02*
Y485200D01*
X310362D01*
X310318Y485535D01*
X309995Y486314D01*
X309482Y486982D01*
X308814Y487495D01*
X308035Y487818D01*
X307700Y487862D01*
D02*
G37*
G36*
X306700D02*
X306365Y487818D01*
X305586Y487495D01*
X304918Y486982D01*
X304405Y486314D01*
X304082Y485535D01*
X304038Y485200D01*
X306700D01*
Y487862D01*
D02*
G37*
G36*
X234965Y492100D02*
X234965Y483900D01*
X270035Y483900D01*
X270035Y492100D01*
X234965Y492100D01*
D02*
G37*
G36*
X310362Y484200D02*
X307700D01*
Y481538D01*
X308035Y481582D01*
X308814Y481905D01*
X309482Y482418D01*
X309995Y483086D01*
X310318Y483865D01*
X310362Y484200D01*
D02*
G37*
G36*
X306700D02*
X304038D01*
X304082Y483865D01*
X304405Y483086D01*
X304918Y482418D01*
X305586Y481905D01*
X306365Y481582D01*
X306700Y481538D01*
Y484200D01*
D02*
G37*
G36*
X142510Y490000D02*
X130500D01*
Y477990D01*
X131963Y478105D01*
X133878Y478565D01*
X135697Y479318D01*
X137376Y480347D01*
X138874Y481626D01*
X140153Y483123D01*
X141182Y484803D01*
X141936Y486622D01*
X142395Y488537D01*
X142510Y490000D01*
D02*
G37*
G36*
X129500D02*
X117490D01*
X117605Y488537D01*
X118064Y486622D01*
X118818Y484803D01*
X119847Y483123D01*
X121126Y481626D01*
X122624Y480347D01*
X124303Y479318D01*
X126122Y478565D01*
X128037Y478105D01*
X129500Y477990D01*
Y490000D01*
D02*
G37*
G36*
X328100Y479162D02*
Y476500D01*
X330762D01*
X330718Y476835D01*
X330395Y477614D01*
X329882Y478282D01*
X329214Y478795D01*
X328435Y479118D01*
X328100Y479162D01*
D02*
G37*
G36*
X327100D02*
X326765Y479118D01*
X325986Y478795D01*
X325318Y478282D01*
X324805Y477614D01*
X324482Y476835D01*
X324438Y476500D01*
X327100D01*
Y479162D01*
D02*
G37*
G36*
X330762Y475500D02*
X328100D01*
Y472838D01*
X328435Y472882D01*
X329214Y473205D01*
X329882Y473718D01*
X330395Y474386D01*
X330718Y475165D01*
X330762Y475500D01*
D02*
G37*
G36*
X327100D02*
X324438D01*
X324482Y475165D01*
X324805Y474386D01*
X325318Y473718D01*
X325986Y473205D01*
X326765Y472882D01*
X327100Y472838D01*
Y475500D01*
D02*
G37*
G36*
X273500Y469118D02*
Y468000D01*
X274618D01*
X274587Y468157D01*
X274214Y468714D01*
X273657Y469087D01*
X273500Y469118D01*
D02*
G37*
G36*
X272500D02*
X272343Y469087D01*
X271786Y468714D01*
X271413Y468157D01*
X271382Y468000D01*
X272500D01*
Y469118D01*
D02*
G37*
G36*
X263500D02*
Y468000D01*
X264618D01*
X264586Y468157D01*
X264214Y468714D01*
X263657Y469087D01*
X263500Y469118D01*
D02*
G37*
G36*
X262500D02*
X262343Y469087D01*
X261786Y468714D01*
X261414Y468157D01*
X261382Y468000D01*
X262500D01*
Y469118D01*
D02*
G37*
G36*
X274618Y467000D02*
X273500D01*
Y465882D01*
X273657Y465913D01*
X274214Y466286D01*
X274587Y466843D01*
X274618Y467000D01*
D02*
G37*
G36*
X272500D02*
X271382D01*
X271413Y466843D01*
X271786Y466286D01*
X272343Y465913D01*
X272500Y465882D01*
Y467000D01*
D02*
G37*
G36*
X264618D02*
X263500D01*
Y465882D01*
X263657Y465913D01*
X264214Y466286D01*
X264586Y466843D01*
X264618Y467000D01*
D02*
G37*
G36*
X262500D02*
X261382D01*
X261414Y466843D01*
X261786Y466286D01*
X262343Y465913D01*
X262500Y465882D01*
Y467000D01*
D02*
G37*
G36*
X418500Y465217D02*
Y464200D01*
X419517D01*
X419494Y464319D01*
X419143Y464843D01*
X418619Y465194D01*
X418500Y465217D01*
D02*
G37*
G36*
X417500D02*
X417381Y465194D01*
X416857Y464843D01*
X416506Y464319D01*
X416483Y464200D01*
X417500D01*
Y465217D01*
D02*
G37*
G36*
X419517Y463200D02*
X418500D01*
Y462183D01*
X418619Y462206D01*
X419143Y462557D01*
X419494Y463081D01*
X419517Y463200D01*
D02*
G37*
G36*
X417500D02*
X416483D01*
X416506Y463081D01*
X416857Y462557D01*
X417381Y462206D01*
X417500Y462183D01*
Y463200D01*
D02*
G37*
G36*
X118500Y471682D02*
X117196Y471554D01*
X115943Y471173D01*
X114788Y470556D01*
X113775Y469725D01*
X112944Y468712D01*
X112327Y467557D01*
X111946Y466304D01*
X111818Y465000D01*
X111946Y463696D01*
X112327Y462443D01*
X112944Y461288D01*
X113775Y460275D01*
X114788Y459444D01*
X115943Y458826D01*
X117196Y458446D01*
X118500Y458318D01*
X119804Y458446D01*
X121057Y458826D01*
X122212Y459444D01*
X123225Y460275D01*
X124056Y461288D01*
X124673Y462443D01*
X125054Y463696D01*
X125182Y465000D01*
X125054Y466304D01*
X124673Y467557D01*
X124056Y468712D01*
X123225Y469725D01*
X122212Y470556D01*
X121057Y471173D01*
X119804Y471554D01*
X118500Y471682D01*
D02*
G37*
G36*
X307777Y459485D02*
Y456823D01*
X310439D01*
X310395Y457158D01*
X310072Y457937D01*
X309559Y458605D01*
X308891Y459118D01*
X308113Y459441D01*
X307777Y459485D01*
D02*
G37*
G36*
X306777D02*
X306442Y459441D01*
X305663Y459118D01*
X304995Y458605D01*
X304482Y457937D01*
X304159Y457158D01*
X304115Y456823D01*
X306777D01*
Y459485D01*
D02*
G37*
G36*
X336429Y471000D02*
X321300D01*
Y463800D01*
X329507Y455793D01*
X336429Y455810D01*
Y471000D01*
D02*
G37*
G36*
X310439Y455823D02*
X307777D01*
Y453161D01*
X308113Y453205D01*
X308891Y453528D01*
X309559Y454041D01*
X310072Y454709D01*
X310395Y455487D01*
X310439Y455823D01*
D02*
G37*
G36*
X306777D02*
X304115D01*
X304159Y455487D01*
X304482Y454709D01*
X304995Y454041D01*
X305663Y453528D01*
X306442Y453205D01*
X306777Y453161D01*
Y455823D01*
D02*
G37*
G36*
X119024Y451951D02*
Y445818D01*
X125156D01*
X125077Y446622D01*
X124697Y447875D01*
X124080Y449031D01*
X123249Y450043D01*
X122236Y450874D01*
X121081Y451492D01*
X119827Y451872D01*
X119024Y451951D01*
D02*
G37*
G36*
X118024D02*
X117220Y451872D01*
X115966Y451492D01*
X114811Y450874D01*
X113799Y450043D01*
X112968Y449031D01*
X112350Y447875D01*
X111970Y446622D01*
X111891Y445818D01*
X118024D01*
Y451951D01*
D02*
G37*
G36*
X265000Y446618D02*
Y445500D01*
X266118D01*
X266087Y445657D01*
X265714Y446214D01*
X265157Y446587D01*
X265000Y446618D01*
D02*
G37*
G36*
X264000D02*
X263843Y446587D01*
X263286Y446214D01*
X262913Y445657D01*
X262882Y445500D01*
X264000D01*
Y446618D01*
D02*
G37*
G36*
X266118Y444500D02*
X265000D01*
Y443382D01*
X265157Y443413D01*
X265714Y443786D01*
X266087Y444343D01*
X266118Y444500D01*
D02*
G37*
G36*
X264000D02*
X262882D01*
X262913Y444343D01*
X263286Y443786D01*
X263843Y443413D01*
X264000Y443382D01*
Y444500D01*
D02*
G37*
G36*
X125156Y444818D02*
X119024D01*
Y438685D01*
X119827Y438764D01*
X121081Y439145D01*
X122236Y439762D01*
X123249Y440593D01*
X124080Y441606D01*
X124697Y442761D01*
X125077Y444015D01*
X125156Y444818D01*
D02*
G37*
G36*
X118024D02*
X111891D01*
X111970Y444015D01*
X112350Y442761D01*
X112968Y441606D01*
X113799Y440593D01*
X114811Y439762D01*
X115966Y439145D01*
X117220Y438764D01*
X118024Y438685D01*
Y444818D01*
D02*
G37*
G36*
X265000Y438618D02*
Y437500D01*
X266118D01*
X266087Y437657D01*
X265714Y438214D01*
X265157Y438587D01*
X265000Y438618D01*
D02*
G37*
G36*
X264000D02*
X263843Y438587D01*
X263286Y438214D01*
X262913Y437657D01*
X262882Y437500D01*
X264000D01*
Y438618D01*
D02*
G37*
G36*
X266118Y436500D02*
X265000D01*
Y435382D01*
X265157Y435414D01*
X265714Y435786D01*
X266087Y436343D01*
X266118Y436500D01*
D02*
G37*
G36*
X264000D02*
X262882D01*
X262913Y436343D01*
X263286Y435786D01*
X263843Y435414D01*
X264000Y435382D01*
Y436500D01*
D02*
G37*
G36*
X295900Y433917D02*
X295281Y433794D01*
X294877Y433524D01*
X284900D01*
X284432Y433430D01*
X284035Y433165D01*
X276393Y425524D01*
X257816D01*
X257347Y425430D01*
X256951Y425165D01*
X250266Y418480D01*
X250000Y418083D01*
X249907Y417615D01*
Y414996D01*
X249637Y414591D01*
X249514Y413972D01*
X249637Y413354D01*
X249987Y412829D01*
X250512Y412479D01*
X251131Y412356D01*
X251621Y412453D01*
X251763Y412467D01*
X252153Y412147D01*
X252206Y411881D01*
X252557Y411357D01*
X253081Y411006D01*
X253200Y410983D01*
Y412500D01*
Y414018D01*
X253068Y414005D01*
X252677Y414325D01*
X252624Y414591D01*
X252354Y414996D01*
Y417108D01*
X258323Y423076D01*
X276900D01*
X277368Y423170D01*
X277765Y423435D01*
X285407Y431076D01*
X294877D01*
X295281Y430806D01*
X295900Y430683D01*
X296519Y430806D01*
X297043Y431157D01*
X297394Y431681D01*
X297517Y432300D01*
X297394Y432919D01*
X297043Y433443D01*
X296519Y433794D01*
X295900Y433917D01*
D02*
G37*
G36*
X265000Y430618D02*
Y429500D01*
X266118D01*
X266087Y429657D01*
X265714Y430214D01*
X265157Y430586D01*
X265000Y430618D01*
D02*
G37*
G36*
X264000D02*
X263843Y430586D01*
X263286Y430214D01*
X262913Y429657D01*
X262882Y429500D01*
X264000D01*
Y430618D01*
D02*
G37*
G36*
X266118Y428500D02*
X265000D01*
Y427382D01*
X265157Y427414D01*
X265714Y427786D01*
X266087Y428343D01*
X266118Y428500D01*
D02*
G37*
G36*
X264000D02*
X262882D01*
X262913Y428343D01*
X263286Y427786D01*
X263843Y427414D01*
X264000Y427382D01*
Y428500D01*
D02*
G37*
G36*
X237100Y450714D02*
X232600D01*
X232327Y450659D01*
X232095Y450505D01*
X231695Y450105D01*
X231541Y449873D01*
X231486Y449600D01*
Y424200D01*
X231494Y424161D01*
X231491Y424121D01*
X231521Y424025D01*
X231541Y423927D01*
X231563Y423894D01*
X231575Y423856D01*
X231640Y423779D01*
X231695Y423695D01*
X231729Y423673D01*
X231754Y423643D01*
X232254Y423243D01*
X232343Y423196D01*
X232427Y423141D01*
X232466Y423133D01*
X232501Y423114D01*
X232601Y423106D01*
X232700Y423086D01*
X237000D01*
X237099Y423106D01*
X237199Y423114D01*
X237234Y423133D01*
X237273Y423141D01*
X237357Y423197D01*
X237446Y423243D01*
X237946Y423643D01*
X237971Y423673D01*
X238005Y423695D01*
X238060Y423779D01*
X238125Y423856D01*
X238137Y423894D01*
X238159Y423927D01*
X238179Y424025D01*
X238209Y424121D01*
X238206Y424161D01*
X238214Y424200D01*
Y449600D01*
X238159Y449873D01*
X238005Y450105D01*
X238005Y450105D01*
X237605Y450505D01*
X237373Y450659D01*
X237100Y450714D01*
D02*
G37*
G36*
X271100Y422117D02*
Y421100D01*
X272117D01*
X272094Y421219D01*
X271743Y421743D01*
X271219Y422094D01*
X271100Y422117D01*
D02*
G37*
G36*
X270100D02*
X269981Y422094D01*
X269457Y421743D01*
X269106Y421219D01*
X269083Y421100D01*
X270100D01*
Y422117D01*
D02*
G37*
G36*
X272117Y420100D02*
X271100D01*
Y419083D01*
X271219Y419106D01*
X271743Y419457D01*
X272094Y419981D01*
X272117Y420100D01*
D02*
G37*
G36*
X270100D02*
X269083D01*
X269106Y419981D01*
X269457Y419457D01*
X269981Y419106D01*
X270100Y419083D01*
Y420100D01*
D02*
G37*
G36*
X263968Y420055D02*
Y418937D01*
X265086D01*
X265055Y419094D01*
X264683Y419651D01*
X264126Y420023D01*
X263968Y420055D01*
D02*
G37*
G36*
X262968D02*
X262811Y420023D01*
X262254Y419651D01*
X261882Y419094D01*
X261851Y418937D01*
X262968D01*
Y420055D01*
D02*
G37*
G36*
X260032D02*
Y418937D01*
X261149D01*
X261118Y419094D01*
X260746Y419651D01*
X260189Y420023D01*
X260032Y420055D01*
D02*
G37*
G36*
X259032D02*
X258874Y420023D01*
X258317Y419651D01*
X257945Y419094D01*
X257914Y418937D01*
X259032D01*
Y420055D01*
D02*
G37*
G36*
X303000Y419017D02*
Y418000D01*
X304017D01*
X303994Y418119D01*
X303643Y418643D01*
X303119Y418994D01*
X303000Y419017D01*
D02*
G37*
G36*
X302000D02*
X301881Y418994D01*
X301357Y418643D01*
X301006Y418119D01*
X300983Y418000D01*
X302000D01*
Y419017D01*
D02*
G37*
G36*
X265086Y417937D02*
X263968D01*
Y416819D01*
X264126Y416851D01*
X264683Y417223D01*
X265055Y417780D01*
X265086Y417937D01*
D02*
G37*
G36*
X262968D02*
X261851D01*
X261882Y417780D01*
X262254Y417223D01*
X262811Y416851D01*
X262968Y416819D01*
Y417937D01*
D02*
G37*
G36*
X261149D02*
X260032D01*
Y416819D01*
X260189Y416851D01*
X260746Y417223D01*
X261118Y417780D01*
X261149Y417937D01*
D02*
G37*
G36*
X259032D02*
X257914D01*
X257945Y417780D01*
X258317Y417223D01*
X258874Y416851D01*
X259032Y416819D01*
Y417937D01*
D02*
G37*
G36*
X304017Y417000D02*
X303000D01*
Y415983D01*
X303119Y416006D01*
X303643Y416357D01*
X303994Y416881D01*
X304017Y417000D01*
D02*
G37*
G36*
X302000D02*
X300983D01*
X301006Y416881D01*
X301357Y416357D01*
X301881Y416006D01*
X302000Y415983D01*
Y417000D01*
D02*
G37*
G36*
X275634Y418351D02*
X275015Y418228D01*
X274491Y417878D01*
X274141Y417353D01*
X274017Y416734D01*
X274141Y416116D01*
X274491Y415591D01*
X275015Y415240D01*
X275634Y415117D01*
X276253Y415240D01*
X276778Y415591D01*
X277128Y416116D01*
X277251Y416734D01*
X277128Y417353D01*
X276778Y417878D01*
X276253Y418228D01*
X275634Y418351D01*
D02*
G37*
G36*
X263968Y416118D02*
Y415000D01*
X265086D01*
X265055Y415157D01*
X264683Y415714D01*
X264126Y416086D01*
X263968Y416118D01*
D02*
G37*
G36*
X262968D02*
X262811Y416086D01*
X262254Y415714D01*
X261882Y415157D01*
X261851Y415000D01*
X262968D01*
Y416118D01*
D02*
G37*
G36*
X260032D02*
Y415000D01*
X261149D01*
X261118Y415157D01*
X260746Y415714D01*
X260189Y416086D01*
X260032Y416118D01*
D02*
G37*
G36*
X259032D02*
X258874Y416086D01*
X258317Y415714D01*
X257945Y415157D01*
X257914Y415000D01*
X259032D01*
Y416118D01*
D02*
G37*
G36*
X313500Y415417D02*
Y414400D01*
X314517D01*
X314494Y414519D01*
X314143Y415043D01*
X313619Y415394D01*
X313500Y415417D01*
D02*
G37*
G36*
X312500D02*
X312381Y415394D01*
X311857Y415043D01*
X311506Y414519D01*
X311483Y414400D01*
X312500D01*
Y415417D01*
D02*
G37*
G36*
X254200Y414017D02*
Y413000D01*
X255217D01*
X255194Y413119D01*
X254843Y413643D01*
X254319Y413994D01*
X254200Y414017D01*
D02*
G37*
G36*
X265086Y414000D02*
X263968D01*
Y412882D01*
X264126Y412914D01*
X264683Y413286D01*
X265055Y413843D01*
X265086Y414000D01*
D02*
G37*
G36*
X262968D02*
X261851D01*
X261882Y413843D01*
X262254Y413286D01*
X262811Y412914D01*
X262968Y412882D01*
Y414000D01*
D02*
G37*
G36*
X261149D02*
X260032D01*
Y412882D01*
X260189Y412914D01*
X260746Y413286D01*
X261118Y413843D01*
X261149Y414000D01*
D02*
G37*
G36*
X259032D02*
X257914D01*
X257945Y413843D01*
X258317Y413286D01*
X258874Y412914D01*
X259032Y412882D01*
Y414000D01*
D02*
G37*
G36*
X314517Y413400D02*
X313500D01*
Y412383D01*
X313619Y412406D01*
X314143Y412757D01*
X314494Y413281D01*
X314517Y413400D01*
D02*
G37*
G36*
X312500D02*
X311483D01*
X311506Y413281D01*
X311857Y412757D01*
X312381Y412406D01*
X312500Y412383D01*
Y413400D01*
D02*
G37*
G36*
X402000Y419381D02*
X401034Y419254D01*
X400134Y418881D01*
X399361Y418288D01*
X398768Y417515D01*
X398395Y416615D01*
X398268Y415649D01*
X398395Y414683D01*
X398768Y413783D01*
X399361Y413010D01*
X400134Y412417D01*
X401034Y412044D01*
X402000Y411917D01*
X402966Y412044D01*
X403866Y412417D01*
X404639Y413010D01*
X405232Y413783D01*
X405605Y414683D01*
X405732Y415649D01*
X405605Y416615D01*
X405232Y417515D01*
X404639Y418288D01*
X403866Y418881D01*
X402966Y419254D01*
X402000Y419381D01*
D02*
G37*
G36*
X343100D02*
X342134Y419254D01*
X341234Y418881D01*
X340461Y418288D01*
X339868Y417515D01*
X339495Y416615D01*
X339368Y415649D01*
X339495Y414683D01*
X339868Y413783D01*
X340461Y413010D01*
X341234Y412417D01*
X342134Y412044D01*
X343100Y411917D01*
X344066Y412044D01*
X344966Y412417D01*
X345739Y413010D01*
X346332Y413783D01*
X346705Y414683D01*
X346832Y415649D01*
X346705Y416615D01*
X346332Y417515D01*
X345739Y418288D01*
X344966Y418881D01*
X344066Y419254D01*
X343100Y419381D01*
D02*
G37*
G36*
X162200Y412617D02*
Y411600D01*
X163217D01*
X163194Y411719D01*
X162843Y412243D01*
X162319Y412594D01*
X162200Y412617D01*
D02*
G37*
G36*
X161200D02*
X161081Y412594D01*
X160557Y412243D01*
X160206Y411719D01*
X160183Y411600D01*
X161200D01*
Y412617D01*
D02*
G37*
G36*
X263968Y412181D02*
Y411063D01*
X265086D01*
X265055Y411220D01*
X264683Y411777D01*
X264126Y412149D01*
X263968Y412181D01*
D02*
G37*
G36*
X262968D02*
X262811Y412149D01*
X262254Y411777D01*
X261882Y411220D01*
X261851Y411063D01*
X262968D01*
Y412181D01*
D02*
G37*
G36*
X260032D02*
Y411063D01*
X261149D01*
X261118Y411220D01*
X260746Y411777D01*
X260189Y412149D01*
X260032Y412181D01*
D02*
G37*
G36*
X259032D02*
X258874Y412149D01*
X258317Y411777D01*
X257945Y411220D01*
X257914Y411063D01*
X259032D01*
Y412181D01*
D02*
G37*
G36*
X255217Y412000D02*
X254200D01*
Y410983D01*
X254319Y411006D01*
X254843Y411357D01*
X255194Y411881D01*
X255217Y412000D01*
D02*
G37*
G36*
X163217Y410600D02*
X162200D01*
Y409583D01*
X162319Y409606D01*
X162843Y409957D01*
X163194Y410481D01*
X163217Y410600D01*
D02*
G37*
G36*
X161200D02*
X160183D01*
X160206Y410481D01*
X160557Y409957D01*
X161081Y409606D01*
X161200Y409583D01*
Y410600D01*
D02*
G37*
G36*
X265086Y410063D02*
X263968D01*
Y408945D01*
X264126Y408977D01*
X264683Y409349D01*
X265055Y409906D01*
X265086Y410063D01*
D02*
G37*
G36*
X262968D02*
X261851D01*
X261882Y409906D01*
X262254Y409349D01*
X262811Y408977D01*
X262968Y408945D01*
Y410063D01*
D02*
G37*
G36*
X261149D02*
X260032D01*
Y408945D01*
X260189Y408977D01*
X260746Y409349D01*
X261118Y409906D01*
X261149Y410063D01*
D02*
G37*
G36*
X259032D02*
X257914D01*
X257945Y409906D01*
X258317Y409349D01*
X258874Y408977D01*
X259032Y408945D01*
Y410063D01*
D02*
G37*
G36*
X271400Y409618D02*
Y408500D01*
X272518D01*
X272486Y408657D01*
X272114Y409214D01*
X271557Y409586D01*
X271400Y409618D01*
D02*
G37*
G36*
X270400D02*
X270243Y409586D01*
X269686Y409214D01*
X269314Y408657D01*
X269282Y408500D01*
X270400D01*
Y409618D01*
D02*
G37*
G36*
X272518Y407500D02*
X271400D01*
Y406382D01*
X271557Y406414D01*
X272114Y406786D01*
X272486Y407343D01*
X272518Y407500D01*
D02*
G37*
G36*
X270400D02*
X269282D01*
X269314Y407343D01*
X269686Y406786D01*
X270243Y406414D01*
X270400Y406382D01*
Y407500D01*
D02*
G37*
G36*
X245800Y433917D02*
X245143Y433786D01*
X244586Y433414D01*
X244214Y432857D01*
X244083Y432200D01*
X244214Y431543D01*
X244322Y431381D01*
Y405800D01*
X244322Y405798D01*
X244283Y405600D01*
X244413Y404943D01*
X244786Y404386D01*
X245343Y404013D01*
X246000Y403883D01*
X246657Y404013D01*
X247214Y404386D01*
X247586Y404943D01*
X247717Y405600D01*
X247586Y406257D01*
X247278Y406718D01*
Y431381D01*
X247387Y431543D01*
X247517Y432200D01*
X247387Y432857D01*
X247014Y433414D01*
X246457Y433786D01*
X245800Y433917D01*
D02*
G37*
G36*
X402000Y409381D02*
X401034Y409254D01*
X400134Y408881D01*
X399361Y408288D01*
X398768Y407515D01*
X398395Y406615D01*
X398268Y405649D01*
X398395Y404683D01*
X398768Y403783D01*
X399361Y403010D01*
X400134Y402417D01*
X401034Y402044D01*
X402000Y401917D01*
X402966Y402044D01*
X403866Y402417D01*
X404639Y403010D01*
X405232Y403783D01*
X405605Y404683D01*
X405732Y405649D01*
X405605Y406615D01*
X405232Y407515D01*
X404639Y408288D01*
X403866Y408881D01*
X402966Y409254D01*
X402000Y409381D01*
D02*
G37*
G36*
X343100D02*
X342134Y409254D01*
X341234Y408881D01*
X340461Y408288D01*
X339868Y407515D01*
X339495Y406615D01*
X339368Y405649D01*
X339495Y404683D01*
X339868Y403783D01*
X340461Y403010D01*
X341234Y402417D01*
X342134Y402044D01*
X343100Y401917D01*
X344066Y402044D01*
X344966Y402417D01*
X345739Y403010D01*
X346332Y403783D01*
X346705Y404683D01*
X346832Y405649D01*
X346705Y406615D01*
X346332Y407515D01*
X345739Y408288D01*
X344966Y408881D01*
X344066Y409254D01*
X343100Y409381D01*
D02*
G37*
G36*
X380400Y396617D02*
Y395600D01*
X381417D01*
X381394Y395719D01*
X381043Y396243D01*
X380519Y396594D01*
X380400Y396617D01*
D02*
G37*
G36*
X379400D02*
X379281Y396594D01*
X378757Y396243D01*
X378406Y395719D01*
X378383Y395600D01*
X379400D01*
Y396617D01*
D02*
G37*
G36*
X368300Y396017D02*
Y395000D01*
X369317D01*
X369294Y395119D01*
X368943Y395643D01*
X368419Y395994D01*
X368300Y396017D01*
D02*
G37*
G36*
X367300D02*
X367181Y395994D01*
X366657Y395643D01*
X366306Y395119D01*
X366283Y395000D01*
X367300D01*
Y396017D01*
D02*
G37*
G36*
X381417Y394600D02*
X380400D01*
Y393583D01*
X380519Y393606D01*
X381043Y393957D01*
X381394Y394481D01*
X381417Y394600D01*
D02*
G37*
G36*
X379400D02*
X378383D01*
X378406Y394481D01*
X378757Y393957D01*
X379281Y393606D01*
X379400Y393583D01*
Y394600D01*
D02*
G37*
G36*
X369317Y394000D02*
X368300D01*
Y392983D01*
X368419Y393006D01*
X368943Y393357D01*
X369294Y393881D01*
X369317Y394000D01*
D02*
G37*
G36*
X367300D02*
X366283D01*
X366306Y393881D01*
X366657Y393357D01*
X367181Y393006D01*
X367300Y392983D01*
Y394000D01*
D02*
G37*
G36*
X375800Y396117D02*
X375181Y395994D01*
X374657Y395643D01*
X374306Y395119D01*
X374183Y394500D01*
X374306Y393881D01*
X374657Y393357D01*
X375181Y393006D01*
X375800Y392883D01*
X376419Y393006D01*
X376943Y393357D01*
X377294Y393881D01*
X377417Y394500D01*
X377294Y395119D01*
X376943Y395643D01*
X376419Y395994D01*
X375800Y396117D01*
D02*
G37*
G36*
X268400Y393517D02*
Y392500D01*
X269417D01*
X269394Y392619D01*
X269043Y393143D01*
X268519Y393494D01*
X268400Y393517D01*
D02*
G37*
G36*
X267400D02*
X267281Y393494D01*
X266757Y393143D01*
X266406Y392619D01*
X266383Y392500D01*
X267400D01*
Y393517D01*
D02*
G37*
G36*
X402000Y399381D02*
X401034Y399254D01*
X400134Y398881D01*
X399361Y398288D01*
X398768Y397515D01*
X398395Y396615D01*
X398268Y395649D01*
X398395Y394683D01*
X398768Y393783D01*
X399361Y393010D01*
X400134Y392417D01*
X401034Y392044D01*
X402000Y391917D01*
X402966Y392044D01*
X403866Y392417D01*
X404639Y393010D01*
X405232Y393783D01*
X405605Y394683D01*
X405732Y395649D01*
X405605Y396615D01*
X405232Y397515D01*
X404639Y398288D01*
X403866Y398881D01*
X402966Y399254D01*
X402000Y399381D01*
D02*
G37*
G36*
X343100D02*
X342134Y399254D01*
X341234Y398881D01*
X340461Y398288D01*
X339868Y397515D01*
X339495Y396615D01*
X339368Y395649D01*
X339495Y394683D01*
X339868Y393783D01*
X340461Y393010D01*
X341234Y392417D01*
X342134Y392044D01*
X343100Y391917D01*
X344066Y392044D01*
X344966Y392417D01*
X345739Y393010D01*
X346332Y393783D01*
X346705Y394683D01*
X346832Y395649D01*
X346705Y396615D01*
X346332Y397515D01*
X345739Y398288D01*
X344966Y398881D01*
X344066Y399254D01*
X343100Y399381D01*
D02*
G37*
G36*
X162300Y391517D02*
Y390500D01*
X163317D01*
X163294Y390619D01*
X162943Y391143D01*
X162419Y391494D01*
X162300Y391517D01*
D02*
G37*
G36*
X161300D02*
X161181Y391494D01*
X160657Y391143D01*
X160306Y390619D01*
X160283Y390500D01*
X161300D01*
Y391517D01*
D02*
G37*
G36*
X269417Y391500D02*
X268400D01*
Y390483D01*
X268519Y390506D01*
X269043Y390857D01*
X269394Y391381D01*
X269417Y391500D01*
D02*
G37*
G36*
X267400D02*
X266383D01*
X266406Y391381D01*
X266757Y390857D01*
X267281Y390506D01*
X267400Y390483D01*
Y391500D01*
D02*
G37*
G36*
X246500Y389917D02*
Y388900D01*
X247517D01*
X247494Y389019D01*
X247143Y389543D01*
X246619Y389894D01*
X246500Y389917D01*
D02*
G37*
G36*
X245500D02*
X245381Y389894D01*
X244857Y389543D01*
X244506Y389019D01*
X244483Y388900D01*
X245500D01*
Y389917D01*
D02*
G37*
G36*
X116300Y391917D02*
X115681Y391794D01*
X115157Y391443D01*
X114806Y390919D01*
X114683Y390300D01*
X114806Y389681D01*
X115157Y389157D01*
X115681Y388806D01*
X116300Y388683D01*
X116919Y388806D01*
X117443Y389157D01*
X117794Y389681D01*
X117917Y390300D01*
X117794Y390919D01*
X117443Y391443D01*
X116919Y391794D01*
X116300Y391917D01*
D02*
G37*
G36*
X163317Y389500D02*
X162300D01*
Y388483D01*
X162419Y388506D01*
X162943Y388857D01*
X163294Y389381D01*
X163317Y389500D01*
D02*
G37*
G36*
X161300D02*
X160283D01*
X160306Y389381D01*
X160657Y388857D01*
X161181Y388506D01*
X161300Y388483D01*
Y389500D01*
D02*
G37*
G36*
X247517Y387900D02*
X246500D01*
Y386883D01*
X246619Y386906D01*
X247143Y387257D01*
X247494Y387781D01*
X247517Y387900D01*
D02*
G37*
G36*
X245500D02*
X244483D01*
X244506Y387781D01*
X244857Y387257D01*
X245381Y386906D01*
X245500Y386883D01*
Y387900D01*
D02*
G37*
G36*
X296200Y388217D02*
X295581Y388094D01*
X295057Y387743D01*
X294706Y387219D01*
X294583Y386600D01*
X294706Y385981D01*
X295057Y385457D01*
X295581Y385106D01*
X296200Y384983D01*
X296819Y385106D01*
X297343Y385457D01*
X297694Y385981D01*
X297817Y386600D01*
X297694Y387219D01*
X297343Y387743D01*
X296819Y388094D01*
X296200Y388217D01*
D02*
G37*
G36*
X418500Y382217D02*
Y381200D01*
X419517D01*
X419494Y381319D01*
X419143Y381843D01*
X418619Y382194D01*
X418500Y382217D01*
D02*
G37*
G36*
X417500D02*
X417381Y382194D01*
X416857Y381843D01*
X416506Y381319D01*
X416483Y381200D01*
X417500D01*
Y382217D01*
D02*
G37*
G36*
X419517Y380200D02*
X418500D01*
Y379183D01*
X418619Y379206D01*
X419143Y379557D01*
X419494Y380081D01*
X419517Y380200D01*
D02*
G37*
G36*
X417500D02*
X416483D01*
X416506Y380081D01*
X416857Y379557D01*
X417381Y379206D01*
X417500Y379183D01*
Y380200D01*
D02*
G37*
G36*
X116300Y374317D02*
X115681Y374194D01*
X115157Y373843D01*
X114806Y373319D01*
X114683Y372700D01*
X114806Y372081D01*
X115157Y371557D01*
X115681Y371206D01*
X116300Y371083D01*
X116919Y371206D01*
X117443Y371557D01*
X117794Y372081D01*
X117917Y372700D01*
X117794Y373319D01*
X117443Y373843D01*
X116919Y374194D01*
X116300Y374317D01*
D02*
G37*
G36*
X162200Y371317D02*
Y370300D01*
X163217D01*
X163194Y370419D01*
X162843Y370943D01*
X162319Y371294D01*
X162200Y371317D01*
D02*
G37*
G36*
X161200D02*
X161081Y371294D01*
X160557Y370943D01*
X160206Y370419D01*
X160183Y370300D01*
X161200D01*
Y371317D01*
D02*
G37*
G36*
X163217Y369300D02*
X162200D01*
Y368283D01*
X162319Y368306D01*
X162843Y368657D01*
X163194Y369181D01*
X163217Y369300D01*
D02*
G37*
G36*
X161200D02*
X160183D01*
X160206Y369181D01*
X160557Y368657D01*
X161081Y368306D01*
X161200Y368283D01*
Y369300D01*
D02*
G37*
G36*
X116300Y356217D02*
X115681Y356094D01*
X115157Y355743D01*
X114806Y355219D01*
X114683Y354600D01*
X114806Y353981D01*
X115157Y353457D01*
X115681Y353106D01*
X116300Y352983D01*
X116919Y353106D01*
X117443Y353457D01*
X117794Y353981D01*
X117917Y354600D01*
X117794Y355219D01*
X117443Y355743D01*
X116919Y356094D01*
X116300Y356217D01*
D02*
G37*
G36*
X373100Y354018D02*
Y352900D01*
X374218D01*
X374186Y353057D01*
X373814Y353614D01*
X373257Y353987D01*
X373100Y354018D01*
D02*
G37*
G36*
X372100D02*
X371943Y353987D01*
X371386Y353614D01*
X371013Y353057D01*
X370982Y352900D01*
X372100D01*
Y354018D01*
D02*
G37*
G36*
X374218Y351900D02*
X373100D01*
Y350782D01*
X373257Y350814D01*
X373814Y351186D01*
X374186Y351743D01*
X374218Y351900D01*
D02*
G37*
G36*
X372100D02*
X370982D01*
X371013Y351743D01*
X371386Y351186D01*
X371943Y350814D01*
X372100Y350782D01*
Y351900D01*
D02*
G37*
G36*
X162100Y350217D02*
Y349200D01*
X163117D01*
X163094Y349319D01*
X162743Y349843D01*
X162219Y350194D01*
X162100Y350217D01*
D02*
G37*
G36*
X161100D02*
X160981Y350194D01*
X160457Y349843D01*
X160106Y349319D01*
X160083Y349200D01*
X161100D01*
Y350217D01*
D02*
G37*
G36*
X163117Y348200D02*
X162100D01*
Y347183D01*
X162219Y347206D01*
X162743Y347557D01*
X163094Y348081D01*
X163117Y348200D01*
D02*
G37*
G36*
X161100D02*
X160083D01*
X160106Y348081D01*
X160457Y347557D01*
X160981Y347206D01*
X161100Y347183D01*
Y348200D01*
D02*
G37*
G36*
X402000Y348081D02*
X401034Y347954D01*
X400134Y347581D01*
X399361Y346988D01*
X398768Y346215D01*
X398395Y345315D01*
X398268Y344349D01*
X398395Y343383D01*
X398768Y342483D01*
X399361Y341710D01*
X400134Y341117D01*
X401034Y340744D01*
X402000Y340617D01*
X402966Y340744D01*
X403866Y341117D01*
X404639Y341710D01*
X405232Y342483D01*
X405605Y343383D01*
X405732Y344349D01*
X405605Y345315D01*
X405232Y346215D01*
X404639Y346988D01*
X403866Y347581D01*
X402966Y347954D01*
X402000Y348081D01*
D02*
G37*
G36*
X343100D02*
X342134Y347954D01*
X341234Y347581D01*
X340461Y346988D01*
X339868Y346215D01*
X339495Y345315D01*
X339368Y344349D01*
X339495Y343383D01*
X339868Y342483D01*
X340461Y341710D01*
X341234Y341117D01*
X342134Y340744D01*
X343100Y340617D01*
X344066Y340744D01*
X344966Y341117D01*
X345739Y341710D01*
X346332Y342483D01*
X346705Y343383D01*
X346832Y344349D01*
X346705Y345315D01*
X346332Y346215D01*
X345739Y346988D01*
X344966Y347581D01*
X344066Y347954D01*
X343100Y348081D01*
D02*
G37*
G36*
X116300Y339217D02*
X115681Y339094D01*
X115157Y338743D01*
X114806Y338219D01*
X114683Y337600D01*
X114806Y336981D01*
X115157Y336457D01*
X115681Y336106D01*
X116300Y335983D01*
X116919Y336106D01*
X117443Y336457D01*
X117794Y336981D01*
X117917Y337600D01*
X117794Y338219D01*
X117443Y338743D01*
X116919Y339094D01*
X116300Y339217D01*
D02*
G37*
G36*
X402000Y338081D02*
X401034Y337954D01*
X400134Y337581D01*
X399361Y336988D01*
X398768Y336215D01*
X398395Y335315D01*
X398268Y334349D01*
X398395Y333383D01*
X398768Y332483D01*
X399361Y331710D01*
X400134Y331117D01*
X401034Y330744D01*
X402000Y330617D01*
X402966Y330744D01*
X403866Y331117D01*
X404639Y331710D01*
X405232Y332483D01*
X405605Y333383D01*
X405732Y334349D01*
X405605Y335315D01*
X405232Y336215D01*
X404639Y336988D01*
X403866Y337581D01*
X402966Y337954D01*
X402000Y338081D01*
D02*
G37*
G36*
X343100D02*
X342134Y337954D01*
X341234Y337581D01*
X340461Y336988D01*
X339868Y336215D01*
X339495Y335315D01*
X339368Y334349D01*
X339495Y333383D01*
X339868Y332483D01*
X340461Y331710D01*
X341234Y331117D01*
X342134Y330744D01*
X343100Y330617D01*
X344066Y330744D01*
X344966Y331117D01*
X345739Y331710D01*
X346332Y332483D01*
X346705Y333383D01*
X346832Y334349D01*
X346705Y335315D01*
X346332Y336215D01*
X345739Y336988D01*
X344966Y337581D01*
X344066Y337954D01*
X343100Y338081D01*
D02*
G37*
G36*
X402000Y328081D02*
X401034Y327954D01*
X400134Y327581D01*
X399361Y326988D01*
X398768Y326215D01*
X398395Y325315D01*
X398268Y324349D01*
X398395Y323383D01*
X398768Y322483D01*
X399361Y321710D01*
X400134Y321117D01*
X401034Y320744D01*
X402000Y320617D01*
X402966Y320744D01*
X403866Y321117D01*
X404639Y321710D01*
X405232Y322483D01*
X405605Y323383D01*
X405732Y324349D01*
X405605Y325315D01*
X405232Y326215D01*
X404639Y326988D01*
X403866Y327581D01*
X402966Y327954D01*
X402000Y328081D01*
D02*
G37*
G36*
X343100D02*
X342134Y327954D01*
X341234Y327581D01*
X340461Y326988D01*
X339868Y326215D01*
X339495Y325315D01*
X339368Y324349D01*
X339495Y323383D01*
X339868Y322483D01*
X340461Y321710D01*
X341234Y321117D01*
X342134Y320744D01*
X343100Y320617D01*
X344066Y320744D01*
X344966Y321117D01*
X345739Y321710D01*
X346332Y322483D01*
X346705Y323383D01*
X346832Y324349D01*
X346705Y325315D01*
X346332Y326215D01*
X345739Y326988D01*
X344966Y327581D01*
X344066Y327954D01*
X343100Y328081D01*
D02*
G37*
G36*
X418469Y299419D02*
Y298402D01*
X419487D01*
X419463Y298520D01*
X419113Y299045D01*
X418588Y299395D01*
X418469Y299419D01*
D02*
G37*
G36*
X417470D02*
X417351Y299395D01*
X416826Y299045D01*
X416476Y298520D01*
X416452Y298402D01*
X417470D01*
Y299419D01*
D02*
G37*
G36*
X387600Y387417D02*
X386981Y387294D01*
X386457Y386943D01*
X386106Y386419D01*
X386011Y385942D01*
X384635Y384565D01*
X384370Y384168D01*
X384277Y383700D01*
Y297745D01*
X383776Y297594D01*
X383743Y297643D01*
X383219Y297994D01*
X382600Y298117D01*
X381981Y297994D01*
X381457Y297643D01*
X381106Y297119D01*
X380983Y296500D01*
X381106Y295881D01*
X381457Y295357D01*
X381981Y295006D01*
X382600Y294883D01*
X383219Y295006D01*
X383743Y295357D01*
X383776Y295406D01*
X384277Y295255D01*
Y270207D01*
X379127Y265057D01*
X378738Y265375D01*
X378930Y265663D01*
X379024Y266131D01*
Y365600D01*
X378930Y366068D01*
X378665Y366465D01*
X359189Y385942D01*
X359094Y386419D01*
X358743Y386943D01*
X358219Y387294D01*
X357600Y387417D01*
X356981Y387294D01*
X356457Y386943D01*
X356106Y386419D01*
X355983Y385800D01*
X356106Y385181D01*
X356457Y384657D01*
X356981Y384306D01*
X357458Y384211D01*
X376576Y365093D01*
Y298189D01*
X376077Y297916D01*
X376068Y297917D01*
Y296400D01*
Y294883D01*
X376077Y294884D01*
X376576Y294611D01*
Y266638D01*
X373160Y263222D01*
X372844Y263340D01*
X372676Y263445D01*
X372562Y264019D01*
X372323Y264376D01*
Y297000D01*
X372230Y297468D01*
X371965Y297865D01*
X358823Y311007D01*
Y353577D01*
X359094Y353981D01*
X359217Y354600D01*
X359094Y355219D01*
X358743Y355743D01*
X358219Y356094D01*
X357600Y356217D01*
X356981Y356094D01*
X356457Y355743D01*
X356106Y355219D01*
X355983Y354600D01*
X356106Y353981D01*
X356377Y353577D01*
Y310500D01*
X356470Y310032D01*
X356735Y309635D01*
X369877Y296493D01*
Y264470D01*
X369575Y264019D01*
X369452Y263400D01*
X369575Y262781D01*
X369925Y262257D01*
X370450Y261906D01*
X371009Y261795D01*
X371199Y261356D01*
X370916Y260986D01*
X370450Y260894D01*
X369925Y260543D01*
X369575Y260019D01*
X369452Y259400D01*
X369575Y258781D01*
X369925Y258257D01*
X370450Y257906D01*
X371069Y257783D01*
X371165Y257802D01*
X371404Y257356D01*
X371082Y257014D01*
X371069Y257017D01*
X370450Y256894D01*
X369925Y256543D01*
X369575Y256019D01*
X369452Y255400D01*
X369575Y254781D01*
X369925Y254257D01*
X370450Y253906D01*
X371069Y253783D01*
X371687Y253906D01*
X372212Y254257D01*
X372562Y254781D01*
X372625Y255094D01*
X386365Y268835D01*
X386630Y269232D01*
X386723Y269700D01*
Y316590D01*
X387224Y316878D01*
X387700Y316783D01*
X388319Y316906D01*
X388843Y317257D01*
X389194Y317781D01*
X389317Y318400D01*
X389194Y319019D01*
X388924Y319423D01*
Y352126D01*
X389094Y352381D01*
X389217Y353000D01*
X389094Y353619D01*
X388743Y354143D01*
X388219Y354494D01*
X387600Y354617D01*
X387224Y354542D01*
X386723Y354877D01*
Y383193D01*
X387742Y384211D01*
X388219Y384306D01*
X388743Y384657D01*
X389094Y385181D01*
X389217Y385800D01*
X389094Y386419D01*
X388743Y386943D01*
X388219Y387294D01*
X387600Y387417D01*
D02*
G37*
G36*
X269000Y338217D02*
X268381Y338094D01*
X267857Y337743D01*
X267506Y337219D01*
X267383Y336600D01*
X267506Y335981D01*
X267857Y335457D01*
X268381Y335106D01*
X269000Y334983D01*
X269619Y335106D01*
X270023Y335377D01*
X313593D01*
X341776Y307193D01*
Y297835D01*
X341277Y297567D01*
X341087Y297694D01*
X340968Y297717D01*
Y296200D01*
Y294683D01*
X341087Y294706D01*
X341277Y294833D01*
X341776Y294565D01*
Y280307D01*
X340135Y278665D01*
X339870Y278268D01*
X339776Y277800D01*
Y272054D01*
X339675Y271902D01*
X339073D01*
X338912Y272143D01*
X338387Y272494D01*
X338268Y272517D01*
Y271000D01*
Y269483D01*
X338387Y269506D01*
X338912Y269857D01*
X339073Y270098D01*
X339675D01*
X339836Y269857D01*
X340361Y269506D01*
X340979Y269383D01*
X341598Y269506D01*
X342123Y269857D01*
X342473Y270381D01*
X342596Y271000D01*
X342473Y271619D01*
X342224Y271992D01*
Y277293D01*
X343865Y278935D01*
X344130Y279332D01*
X344223Y279800D01*
Y307700D01*
X344130Y308168D01*
X343865Y308565D01*
X314965Y337465D01*
X314568Y337730D01*
X314100Y337824D01*
X270023D01*
X269619Y338094D01*
X269000Y338217D01*
D02*
G37*
G36*
X375068Y297917D02*
X374950Y297894D01*
X374425Y297543D01*
X374075Y297019D01*
X374051Y296900D01*
X375068D01*
Y297917D01*
D02*
G37*
G36*
X361668D02*
Y296900D01*
X362686D01*
X362662Y297019D01*
X362312Y297543D01*
X361787Y297894D01*
X361668Y297917D01*
D02*
G37*
G36*
X360668D02*
X360550Y297894D01*
X360025Y297543D01*
X359675Y297019D01*
X359651Y296900D01*
X360668D01*
Y297917D01*
D02*
G37*
G36*
X339968Y297717D02*
X339850Y297694D01*
X339325Y297343D01*
X338975Y296819D01*
X338951Y296700D01*
X339968D01*
Y297717D01*
D02*
G37*
G36*
X419487Y297402D02*
X418469D01*
Y296384D01*
X418588Y296408D01*
X419113Y296758D01*
X419463Y297283D01*
X419487Y297402D01*
D02*
G37*
G36*
X417470D02*
X416452D01*
X416476Y297283D01*
X416826Y296758D01*
X417351Y296408D01*
X417470Y296384D01*
Y297402D01*
D02*
G37*
G36*
X375068Y295900D02*
X374051D01*
X374075Y295781D01*
X374425Y295257D01*
X374950Y294906D01*
X375068Y294883D01*
Y295900D01*
D02*
G37*
G36*
X362686D02*
X361668D01*
Y294883D01*
X361787Y294906D01*
X362312Y295257D01*
X362662Y295781D01*
X362686Y295900D01*
D02*
G37*
G36*
X360668D02*
X359651D01*
X359675Y295781D01*
X360025Y295257D01*
X360550Y294906D01*
X360668Y294883D01*
Y295900D01*
D02*
G37*
G36*
X339968Y295700D02*
X338951D01*
X338975Y295581D01*
X339325Y295057D01*
X339850Y294706D01*
X339968Y294683D01*
Y295700D01*
D02*
G37*
G36*
X336668Y278917D02*
X336050Y278794D01*
X335525Y278443D01*
X335175Y277919D01*
X335052Y277300D01*
X335175Y276681D01*
X335525Y276157D01*
X336050Y275806D01*
X336668Y275683D01*
X337287Y275806D01*
X337812Y276157D01*
X338162Y276681D01*
X338285Y277300D01*
X338162Y277919D01*
X337812Y278443D01*
X337287Y278794D01*
X336668Y278917D01*
D02*
G37*
G36*
X359469Y278717D02*
X358850Y278594D01*
X358325Y278243D01*
X357975Y277719D01*
X357852Y277100D01*
X357975Y276481D01*
X358325Y275957D01*
X358850Y275606D01*
X359469Y275483D01*
X360087Y275606D01*
X360612Y275957D01*
X360962Y276481D01*
X361085Y277100D01*
X360962Y277719D01*
X360612Y278243D01*
X360087Y278594D01*
X359469Y278717D01*
D02*
G37*
G36*
X337268Y272517D02*
X337150Y272494D01*
X336625Y272143D01*
X336275Y271619D01*
X336251Y271500D01*
X337268D01*
Y272517D01*
D02*
G37*
G36*
Y270500D02*
X336251D01*
X336275Y270381D01*
X336625Y269857D01*
X337150Y269506D01*
X337268Y269483D01*
Y270500D01*
D02*
G37*
G36*
X396100Y263817D02*
Y262800D01*
X397117D01*
X397094Y262919D01*
X396743Y263443D01*
X396219Y263794D01*
X396100Y263817D01*
D02*
G37*
G36*
X395100D02*
X394981Y263794D01*
X394457Y263443D01*
X394106Y262919D01*
X394083Y262800D01*
X395100D01*
Y263817D01*
D02*
G37*
G36*
X356682Y262517D02*
X356063Y262394D01*
X355539Y262043D01*
X355442Y261898D01*
X354840D01*
X354743Y262043D01*
X354219Y262394D01*
X353600Y262517D01*
X352981Y262394D01*
X352457Y262043D01*
X352351Y261885D01*
X351749D01*
X351643Y262043D01*
X351119Y262394D01*
X350500Y262517D01*
X349881Y262394D01*
X349357Y262043D01*
X349198Y261805D01*
X348596D01*
X348437Y262043D01*
X347913Y262394D01*
X347294Y262517D01*
X346675Y262394D01*
X346150Y262043D01*
X345800Y261519D01*
X345677Y260900D01*
X345800Y260281D01*
X346150Y259757D01*
X346675Y259406D01*
X347160Y259310D01*
X356453Y250017D01*
X356207Y249556D01*
X355900Y249617D01*
X355281Y249494D01*
X354757Y249143D01*
X354406Y248619D01*
X354311Y248142D01*
X328935Y222765D01*
X328670Y222368D01*
X328576Y221900D01*
Y188199D01*
X328077Y188029D01*
X327796Y188396D01*
X326918Y189069D01*
X326024Y189439D01*
Y235693D01*
X327342Y237011D01*
X327819Y237106D01*
X328343Y237457D01*
X328694Y237981D01*
X328817Y238600D01*
X328694Y239219D01*
X328343Y239743D01*
X327819Y240094D01*
X327200Y240217D01*
X326581Y240094D01*
X326057Y239743D01*
X325706Y239219D01*
X325611Y238742D01*
X323935Y237065D01*
X323670Y236668D01*
X323576Y236200D01*
Y189439D01*
X322682Y189069D01*
X321804Y188396D01*
X321131Y187518D01*
X320708Y186496D01*
X320564Y185400D01*
X320708Y184304D01*
X321131Y183282D01*
X321804Y182404D01*
X322682Y181731D01*
X323704Y181308D01*
X324800Y181164D01*
X325896Y181308D01*
X326918Y181731D01*
X327674Y182311D01*
X328004Y181934D01*
X325601Y179531D01*
X324800Y179636D01*
X323704Y179492D01*
X322682Y179069D01*
X321804Y178395D01*
X321131Y177518D01*
X320708Y176496D01*
X320564Y175400D01*
X320708Y174304D01*
X321131Y173282D01*
X321804Y172405D01*
X322682Y171731D01*
X323704Y171308D01*
X324800Y171164D01*
X325896Y171308D01*
X326918Y171731D01*
X327795Y172405D01*
X328469Y173282D01*
X328892Y174304D01*
X329036Y175400D01*
X328892Y176496D01*
X328469Y177518D01*
X327852Y178322D01*
X330665Y181135D01*
X330930Y181532D01*
X331024Y182000D01*
Y182601D01*
X331523Y182771D01*
X331804Y182404D01*
X332682Y181731D01*
X333704Y181308D01*
X334800Y181164D01*
X335896Y181308D01*
X336918Y181731D01*
X337795Y182404D01*
X338469Y183282D01*
X338892Y184304D01*
X339036Y185400D01*
X338892Y186496D01*
X338469Y187518D01*
X337795Y188396D01*
X336918Y189069D01*
X335896Y189492D01*
X334800Y189636D01*
X333704Y189492D01*
X332682Y189069D01*
X331804Y188396D01*
X331523Y188029D01*
X331024Y188199D01*
Y221393D01*
X356042Y246411D01*
X356519Y246506D01*
X357043Y246857D01*
X357394Y247381D01*
X357517Y248000D01*
X357456Y248307D01*
X357917Y248553D01*
X359677Y246793D01*
Y240135D01*
X359176Y239867D01*
X358987Y239994D01*
X358869Y240017D01*
Y238500D01*
Y236983D01*
X358987Y237006D01*
X359176Y237133D01*
X359677Y236865D01*
Y194900D01*
X359770Y194432D01*
X359898Y194239D01*
X359510Y193920D01*
X351724Y201707D01*
Y226977D01*
X351994Y227381D01*
X352117Y228000D01*
X351994Y228619D01*
X351643Y229143D01*
X351119Y229494D01*
X350500Y229617D01*
X349881Y229494D01*
X349357Y229143D01*
X349006Y228619D01*
X348883Y228000D01*
X349006Y227381D01*
X349276Y226977D01*
Y201200D01*
X349370Y200732D01*
X349635Y200335D01*
X358476Y191493D01*
Y188329D01*
X357977Y188160D01*
X357796Y188396D01*
X356918Y189069D01*
X355896Y189492D01*
X355300Y189570D01*
Y185400D01*
Y181230D01*
X355896Y181308D01*
X356918Y181731D01*
X357796Y182405D01*
X357977Y182641D01*
X358476Y182471D01*
Y180807D01*
X356791Y179121D01*
X355896Y179492D01*
X354800Y179636D01*
X353704Y179492D01*
X352682Y179069D01*
X351804Y178395D01*
X351131Y177518D01*
X350708Y176497D01*
X350564Y175400D01*
X350708Y174304D01*
X351131Y173282D01*
X351804Y172405D01*
X352682Y171731D01*
X353704Y171308D01*
X354800Y171164D01*
X355896Y171308D01*
X356918Y171731D01*
X357796Y172405D01*
X358469Y173282D01*
X358892Y174304D01*
X359036Y175400D01*
X358892Y176497D01*
X358521Y177391D01*
X360565Y179435D01*
X360830Y179832D01*
X360924Y180300D01*
Y192000D01*
X360830Y192468D01*
X360701Y192661D01*
X361090Y192980D01*
X376053Y178017D01*
X376000Y177918D01*
Y176500D01*
X377417D01*
X377517Y176553D01*
X378535Y175535D01*
X378932Y175270D01*
X379400Y175177D01*
X395877D01*
X396281Y174906D01*
X396900Y174783D01*
X397519Y174906D01*
X398043Y175257D01*
X398394Y175781D01*
X398517Y176400D01*
X398394Y177019D01*
X398043Y177543D01*
X397519Y177894D01*
X396900Y178017D01*
X396281Y177894D01*
X395877Y177623D01*
X379907D01*
X362123Y195407D01*
Y246839D01*
X362624Y247046D01*
X366076Y243593D01*
Y211641D01*
X365769Y211404D01*
Y209600D01*
Y207796D01*
X366076Y207559D01*
Y193800D01*
X366170Y193332D01*
X366435Y192935D01*
X373836Y185534D01*
X373906Y185181D01*
X374257Y184657D01*
X374781Y184306D01*
X375400Y184183D01*
X376019Y184306D01*
X376543Y184657D01*
X376894Y185181D01*
X377017Y185800D01*
X376894Y186419D01*
X376588Y186876D01*
X376664Y187151D01*
X376795Y187376D01*
X388793D01*
X395311Y180858D01*
X395406Y180381D01*
X395757Y179857D01*
X396281Y179506D01*
X396900Y179383D01*
X397519Y179506D01*
X398043Y179857D01*
X398394Y180381D01*
X398517Y181000D01*
X398394Y181619D01*
X398043Y182143D01*
X397519Y182494D01*
X397042Y182589D01*
X390165Y189465D01*
X389768Y189730D01*
X389300Y189823D01*
X377522D01*
X377255Y190323D01*
X377294Y190381D01*
X377417Y191000D01*
X377294Y191619D01*
X376943Y192143D01*
X376419Y192494D01*
X375942Y192589D01*
X371824Y196707D01*
Y231738D01*
X372323Y232006D01*
X372611Y231814D01*
X373269Y231683D01*
X373926Y231814D01*
X374483Y232186D01*
X374855Y232743D01*
X374986Y233400D01*
X374855Y234057D01*
X374483Y234614D01*
X373926Y234986D01*
X373269Y235117D01*
X372611Y234986D01*
X372323Y234794D01*
X371824Y235062D01*
Y247064D01*
X371730Y247532D01*
X371465Y247929D01*
X358250Y261144D01*
X358176Y261519D01*
X357825Y262043D01*
X357301Y262394D01*
X356682Y262517D01*
D02*
G37*
G36*
X397117Y261800D02*
X396100D01*
Y260783D01*
X396219Y260806D01*
X396743Y261157D01*
X397094Y261681D01*
X397117Y261800D01*
D02*
G37*
G36*
X395100D02*
X394083D01*
X394106Y261681D01*
X394457Y261157D01*
X394981Y260806D01*
X395100Y260783D01*
Y261800D01*
D02*
G37*
G36*
X338300Y261717D02*
X337681Y261594D01*
X337157Y261243D01*
X336806Y260719D01*
X336683Y260100D01*
X336806Y259481D01*
X337157Y258957D01*
X337681Y258606D01*
X338300Y258483D01*
X338919Y258606D01*
X339443Y258957D01*
X339794Y259481D01*
X339917Y260100D01*
X339794Y260719D01*
X339443Y261243D01*
X338919Y261594D01*
X338300Y261717D01*
D02*
G37*
G36*
X288500Y255818D02*
Y254700D01*
X289618D01*
X289586Y254857D01*
X289214Y255414D01*
X288657Y255786D01*
X288500Y255818D01*
D02*
G37*
G36*
X287500D02*
X287343Y255786D01*
X286786Y255414D01*
X286414Y254857D01*
X286382Y254700D01*
X287500D01*
Y255818D01*
D02*
G37*
G36*
X289618Y253700D02*
X288500D01*
Y252582D01*
X288657Y252613D01*
X289214Y252986D01*
X289586Y253543D01*
X289618Y253700D01*
D02*
G37*
G36*
X287500D02*
X286382D01*
X286414Y253543D01*
X286786Y252986D01*
X287343Y252613D01*
X287500Y252582D01*
Y253700D01*
D02*
G37*
G36*
X288000Y248517D02*
X287343Y248387D01*
X286786Y248014D01*
X286414Y247457D01*
X286283Y246800D01*
X286414Y246143D01*
X286786Y245586D01*
X287343Y245214D01*
X288000Y245083D01*
X288657Y245214D01*
X289214Y245586D01*
X289586Y246143D01*
X289717Y246800D01*
X289586Y247457D01*
X289214Y248014D01*
X288657Y248387D01*
X288000Y248517D01*
D02*
G37*
G36*
X288400Y240818D02*
Y239700D01*
X289518D01*
X289487Y239857D01*
X289114Y240414D01*
X288557Y240787D01*
X288400Y240818D01*
D02*
G37*
G36*
X287400D02*
X287243Y240787D01*
X286686Y240414D01*
X286314Y239857D01*
X286282Y239700D01*
X287400D01*
Y240818D01*
D02*
G37*
G36*
X357869Y240017D02*
X357750Y239994D01*
X357225Y239643D01*
X356875Y239119D01*
X356851Y239000D01*
X357869D01*
Y240017D01*
D02*
G37*
G36*
X289518Y238700D02*
X288400D01*
Y237582D01*
X288557Y237614D01*
X289114Y237986D01*
X289487Y238543D01*
X289518Y238700D01*
D02*
G37*
G36*
X287400D02*
X286282D01*
X286314Y238543D01*
X286686Y237986D01*
X287243Y237614D01*
X287400Y237582D01*
Y238700D01*
D02*
G37*
G36*
X357869Y238000D02*
X356851D01*
X356875Y237881D01*
X357225Y237357D01*
X357750Y237006D01*
X357869Y236983D01*
Y238000D01*
D02*
G37*
G36*
X287800Y235917D02*
X287143Y235787D01*
X286586Y235414D01*
X286213Y234857D01*
X286083Y234200D01*
X286213Y233543D01*
X286586Y232986D01*
X287143Y232613D01*
X287800Y232483D01*
X288457Y232613D01*
X289014Y232986D01*
X289387Y233543D01*
X289517Y234200D01*
X289387Y234857D01*
X289014Y235414D01*
X288457Y235787D01*
X287800Y235917D01*
D02*
G37*
G36*
X347500Y224517D02*
Y223500D01*
X348517D01*
X348494Y223619D01*
X348143Y224143D01*
X347619Y224494D01*
X347500Y224517D01*
D02*
G37*
G36*
X346500D02*
X346381Y224494D01*
X345857Y224143D01*
X345506Y223619D01*
X345483Y223500D01*
X346500D01*
Y224517D01*
D02*
G37*
G36*
X324300Y249617D02*
X323681Y249494D01*
X323157Y249143D01*
X322806Y248619D01*
X322711Y248142D01*
X307485Y232916D01*
X307220Y232519D01*
X307127Y232051D01*
Y225197D01*
X306857Y224792D01*
X306734Y224174D01*
X306857Y223555D01*
X307207Y223030D01*
X307732Y222680D01*
X308351Y222557D01*
X308969Y222680D01*
X309494Y223030D01*
X309844Y223555D01*
X309967Y224174D01*
X309844Y224792D01*
X309574Y225197D01*
Y231544D01*
X324442Y246411D01*
X324919Y246506D01*
X325443Y246857D01*
X325794Y247381D01*
X325917Y248000D01*
X325794Y248619D01*
X325443Y249143D01*
X324919Y249494D01*
X324300Y249617D01*
D02*
G37*
G36*
X348517Y222500D02*
X347500D01*
Y221483D01*
X347619Y221506D01*
X348143Y221857D01*
X348494Y222381D01*
X348517Y222500D01*
D02*
G37*
G36*
X346500D02*
X345483D01*
X345506Y222381D01*
X345857Y221857D01*
X346381Y221506D01*
X346500Y221483D01*
Y222500D01*
D02*
G37*
G36*
X381600Y219117D02*
Y218100D01*
X382617D01*
X382594Y218219D01*
X382243Y218743D01*
X381719Y219094D01*
X381600Y219117D01*
D02*
G37*
G36*
X380600D02*
X380481Y219094D01*
X379957Y218743D01*
X379606Y218219D01*
X379583Y218100D01*
X380600D01*
Y219117D01*
D02*
G37*
G36*
X382617Y217100D02*
X381600D01*
Y216083D01*
X381719Y216106D01*
X382243Y216457D01*
X382594Y216981D01*
X382617Y217100D01*
D02*
G37*
G36*
X380600D02*
X379583D01*
X379606Y216981D01*
X379957Y216457D01*
X380481Y216106D01*
X380600Y216083D01*
Y217100D01*
D02*
G37*
G36*
X418500Y216417D02*
Y215400D01*
X419517D01*
X419494Y215519D01*
X419143Y216043D01*
X418619Y216394D01*
X418500Y216417D01*
D02*
G37*
G36*
X417500D02*
X417381Y216394D01*
X416857Y216043D01*
X416506Y215519D01*
X416483Y215400D01*
X417500D01*
Y216417D01*
D02*
G37*
G36*
X292100Y215718D02*
Y214600D01*
X293218D01*
X293186Y214757D01*
X292814Y215314D01*
X292257Y215686D01*
X292100Y215718D01*
D02*
G37*
G36*
X291100D02*
X290943Y215686D01*
X290386Y215314D01*
X290014Y214757D01*
X289982Y214600D01*
X291100D01*
Y215718D01*
D02*
G37*
G36*
X347500Y214517D02*
Y213500D01*
X348517D01*
X348494Y213619D01*
X348143Y214143D01*
X347619Y214494D01*
X347500Y214517D01*
D02*
G37*
G36*
X346500D02*
X346381Y214494D01*
X345857Y214143D01*
X345506Y213619D01*
X345483Y213500D01*
X346500D01*
Y214517D01*
D02*
G37*
G36*
X419517Y214400D02*
X418500D01*
Y213383D01*
X418619Y213406D01*
X419143Y213757D01*
X419494Y214281D01*
X419517Y214400D01*
D02*
G37*
G36*
X417500D02*
X416483D01*
X416506Y214281D01*
X416857Y213757D01*
X417381Y213406D01*
X417500Y213383D01*
Y214400D01*
D02*
G37*
G36*
X293218Y213600D02*
X292100D01*
Y212482D01*
X292257Y212513D01*
X292814Y212886D01*
X293186Y213443D01*
X293218Y213600D01*
D02*
G37*
G36*
X291100D02*
X289982D01*
X290014Y213443D01*
X290386Y212886D01*
X290943Y212513D01*
X291100Y212482D01*
Y213600D01*
D02*
G37*
G36*
X348517Y212500D02*
X347500D01*
Y211483D01*
X347619Y211506D01*
X348143Y211857D01*
X348494Y212381D01*
X348517Y212500D01*
D02*
G37*
G36*
X346500D02*
X345483D01*
X345506Y212381D01*
X345857Y211857D01*
X346381Y211506D01*
X346500Y211483D01*
Y212500D01*
D02*
G37*
G36*
X364769Y211218D02*
X364611Y211187D01*
X364054Y210814D01*
X363682Y210257D01*
X363651Y210100D01*
X364769D01*
Y211218D01*
D02*
G37*
G36*
X390600Y209417D02*
Y208400D01*
X391617D01*
X391594Y208519D01*
X391243Y209043D01*
X390719Y209394D01*
X390600Y209417D01*
D02*
G37*
G36*
X389600D02*
X389481Y209394D01*
X388957Y209043D01*
X388606Y208519D01*
X388583Y208400D01*
X389600D01*
Y209417D01*
D02*
G37*
G36*
X364769Y209100D02*
X363651D01*
X363682Y208943D01*
X364054Y208386D01*
X364611Y208014D01*
X364769Y207982D01*
Y209100D01*
D02*
G37*
G36*
X391617Y207400D02*
X390600D01*
Y206383D01*
X390719Y206406D01*
X391243Y206757D01*
X391594Y207281D01*
X391617Y207400D01*
D02*
G37*
G36*
X389600D02*
X388583D01*
X388606Y207281D01*
X388957Y206757D01*
X389481Y206406D01*
X389600Y206383D01*
Y207400D01*
D02*
G37*
G36*
X347500Y204517D02*
Y203500D01*
X348517D01*
X348494Y203619D01*
X348143Y204143D01*
X347619Y204494D01*
X347500Y204517D01*
D02*
G37*
G36*
X346500D02*
X346381Y204494D01*
X345857Y204143D01*
X345506Y203619D01*
X345483Y203500D01*
X346500D01*
Y204517D01*
D02*
G37*
G36*
X348517Y202500D02*
X347500D01*
Y201483D01*
X347619Y201506D01*
X348143Y201857D01*
X348494Y202381D01*
X348517Y202500D01*
D02*
G37*
G36*
X346500D02*
X345483D01*
X345506Y202381D01*
X345857Y201857D01*
X346381Y201506D01*
X346500Y201483D01*
Y202500D01*
D02*
G37*
G36*
X390650Y201486D02*
Y200468D01*
X391668D01*
X391644Y200587D01*
X391294Y201112D01*
X390769Y201462D01*
X390650Y201486D01*
D02*
G37*
G36*
X389650D02*
X389532Y201462D01*
X389007Y201112D01*
X388657Y200587D01*
X388633Y200468D01*
X389650D01*
Y201486D01*
D02*
G37*
G36*
X391668Y199468D02*
X390650D01*
Y198451D01*
X390769Y198474D01*
X391294Y198825D01*
X391644Y199349D01*
X391668Y199468D01*
D02*
G37*
G36*
X389650D02*
X388633D01*
X388657Y199349D01*
X389007Y198825D01*
X389532Y198474D01*
X389650Y198451D01*
Y199468D01*
D02*
G37*
G36*
X407799Y201643D02*
X407142Y201512D01*
X406585Y201140D01*
X406213Y200583D01*
X406082Y199926D01*
X406213Y199269D01*
X406585Y198712D01*
X407142Y198339D01*
X407799Y198209D01*
X408456Y198339D01*
X409013Y198712D01*
X409386Y199269D01*
X409516Y199926D01*
X409386Y200583D01*
X409013Y201140D01*
X408456Y201512D01*
X407799Y201643D01*
D02*
G37*
G36*
X354300Y189570D02*
X353704Y189492D01*
X352682Y189069D01*
X351805Y188396D01*
X351131Y187518D01*
X350708Y186496D01*
X350630Y185900D01*
X354300D01*
Y189570D01*
D02*
G37*
G36*
X319000Y189600D02*
X315300D01*
Y185900D01*
X319000D01*
Y189600D01*
D02*
G37*
G36*
X314300D02*
X310600D01*
Y185900D01*
X314300D01*
Y189600D01*
D02*
G37*
G36*
X354300Y184900D02*
X350630D01*
X350708Y184304D01*
X351131Y183282D01*
X351805Y182405D01*
X352682Y181731D01*
X353704Y181308D01*
X354300Y181230D01*
Y184900D01*
D02*
G37*
G36*
X319000Y184900D02*
X315300D01*
Y181200D01*
X319000D01*
Y184900D01*
D02*
G37*
G36*
X314300D02*
X310600D01*
Y181200D01*
X314300D01*
Y184900D01*
D02*
G37*
G36*
X344800Y189636D02*
X343704Y189492D01*
X342682Y189069D01*
X341805Y188396D01*
X341131Y187518D01*
X340708Y186496D01*
X340564Y185400D01*
X340708Y184304D01*
X341131Y183282D01*
X341805Y182405D01*
X342682Y181731D01*
X343704Y181308D01*
X344800Y181164D01*
X345896Y181308D01*
X346918Y181731D01*
X347796Y182405D01*
X348469Y183282D01*
X348892Y184304D01*
X349036Y185400D01*
X348892Y186496D01*
X348469Y187518D01*
X347796Y188396D01*
X346918Y189069D01*
X345896Y189492D01*
X344800Y189636D01*
D02*
G37*
G36*
X375000Y177517D02*
X374881Y177494D01*
X374357Y177143D01*
X374006Y176619D01*
X373983Y176500D01*
X375000D01*
Y177517D01*
D02*
G37*
G36*
X335300Y179570D02*
Y175900D01*
X338970D01*
X338892Y176496D01*
X338469Y177518D01*
X337795Y178395D01*
X336918Y179069D01*
X335896Y179492D01*
X335300Y179570D01*
D02*
G37*
G36*
X334300D02*
X333704Y179492D01*
X332682Y179069D01*
X331804Y178395D01*
X331131Y177518D01*
X330708Y176496D01*
X330630Y175900D01*
X334300D01*
Y179570D01*
D02*
G37*
G36*
X377017Y175500D02*
X376000D01*
Y174483D01*
X376119Y174506D01*
X376643Y174857D01*
X376994Y175381D01*
X377017Y175500D01*
D02*
G37*
G36*
X375000D02*
X373983D01*
X374006Y175381D01*
X374357Y174857D01*
X374881Y174506D01*
X375000Y174483D01*
Y175500D01*
D02*
G37*
G36*
X338970Y174900D02*
X335300D01*
Y171230D01*
X335896Y171308D01*
X336918Y171731D01*
X337795Y172405D01*
X338469Y173282D01*
X338892Y174304D01*
X338970Y174900D01*
D02*
G37*
G36*
X334300D02*
X330630D01*
X330708Y174304D01*
X331131Y173282D01*
X331804Y172405D01*
X332682Y171731D01*
X333704Y171308D01*
X334300Y171230D01*
Y174900D01*
D02*
G37*
G36*
X319000Y179600D02*
X310600D01*
Y171200D01*
X319000D01*
Y179600D01*
D02*
G37*
G36*
X344800Y179636D02*
X343704Y179492D01*
X342682Y179069D01*
X341805Y178395D01*
X341131Y177518D01*
X340708Y176497D01*
X340564Y175400D01*
X340708Y174304D01*
X341131Y173282D01*
X341805Y172405D01*
X342682Y171731D01*
X343704Y171308D01*
X344800Y171164D01*
X345896Y171308D01*
X346918Y171731D01*
X347796Y172405D01*
X348469Y173282D01*
X348892Y174304D01*
X349036Y175400D01*
X348892Y176497D01*
X348469Y177518D01*
X347796Y178395D01*
X346918Y179069D01*
X345896Y179492D01*
X344800Y179636D01*
D02*
G37*
G36*
X370400Y173917D02*
X369781Y173794D01*
X369257Y173443D01*
X368906Y172919D01*
X368783Y172300D01*
X368906Y171681D01*
X369257Y171157D01*
X369781Y170806D01*
X370400Y170683D01*
X371019Y170806D01*
X371543Y171157D01*
X371894Y171681D01*
X372017Y172300D01*
X371894Y172919D01*
X371543Y173443D01*
X371019Y173794D01*
X370400Y173917D01*
D02*
G37*
%LPD*%
G36*
X237500Y449600D02*
Y424200D01*
X237000Y423800D01*
X232700D01*
X232200Y424200D01*
Y449600D01*
X232600Y450000D01*
X237100D01*
X237500Y449600D01*
D02*
G37*
D21*
X251131Y417615D02*
X257816Y424300D01*
X276900D02*
X284900Y432300D01*
X257816Y424300D02*
X276900D01*
X251131Y413972D02*
Y417615D01*
X347294Y260900D02*
X347300D01*
X360900Y247300D01*
Y194900D02*
Y247300D01*
X500800Y222141D02*
X503700Y225041D01*
X500800Y185941D02*
Y222141D01*
X479100Y205041D02*
X479200Y204941D01*
X539600Y235040D02*
X542600Y232041D01*
Y219841D02*
Y232041D01*
X539700Y216940D02*
X542600Y219841D01*
X516657Y205716D02*
X516841Y205900D01*
X500800Y305041D02*
X503700Y307941D01*
X500800Y268841D02*
Y305041D01*
X479100Y287941D02*
X479200Y287841D01*
X539600Y317940D02*
X542600Y314941D01*
Y302741D02*
Y314941D01*
X539700Y299840D02*
X542600Y302741D01*
X516657Y288616D02*
X516841Y288800D01*
X500800Y387941D02*
X503700Y390841D01*
X500800Y351741D02*
Y387941D01*
X479100Y370841D02*
X479200Y370741D01*
X539600Y400841D02*
X542600Y397840D01*
Y385641D02*
Y397840D01*
X539700Y382740D02*
X542600Y385641D01*
X516657Y371516D02*
X516841Y371700D01*
X245800Y405800D02*
X246000Y405600D01*
X269000Y336600D02*
X314100D01*
X343000Y307700D01*
Y279800D02*
Y307700D01*
X341000Y277800D02*
X343000Y279800D01*
X341000Y271521D02*
Y277800D01*
X340979Y271500D02*
X341000Y271521D01*
X340979Y271152D02*
Y271500D01*
X387600Y353000D02*
X387700Y352900D01*
Y318400D02*
Y352900D01*
X371069Y255400D02*
X371200D01*
X385500Y269700D02*
Y383700D01*
X371200Y255400D02*
X385500Y269700D01*
Y383700D02*
X387600Y385800D01*
X357600D02*
X377800Y365600D01*
X371069Y259400D02*
X377800Y266131D01*
Y365600D01*
X379400Y176400D02*
X396900D01*
X360900Y194900D02*
X379400Y176400D01*
X369000Y194800D02*
X375200Y188600D01*
X389300D02*
X396900Y181000D01*
X375200Y188600D02*
X389300D01*
X353600Y260900D02*
X369000Y245500D01*
Y194800D02*
Y245500D01*
X370600Y196200D02*
Y247064D01*
X356682Y260982D02*
X370600Y247064D01*
X367300Y193800D02*
Y244100D01*
X350500Y260900D02*
X367300Y244100D01*
Y193800D02*
X375300Y185800D01*
X375400D01*
X370600Y196200D02*
X375800Y191000D01*
X324800Y175400D02*
Y177000D01*
X329800Y182000D01*
Y221900D02*
X355900Y248000D01*
X329800Y182000D02*
Y221900D01*
X324800Y236200D02*
X327200Y238600D01*
X324800Y185400D02*
Y236200D01*
X354800Y175400D02*
X359700Y180300D01*
Y192000D01*
X350500Y201200D02*
Y228000D01*
Y201200D02*
X359700Y192000D01*
X371069Y263400D02*
X371100Y263432D01*
Y297000D01*
X357600Y310500D02*
Y354600D01*
Y310500D02*
X371100Y297000D01*
X308351Y232051D02*
X324300Y248000D01*
X308351Y224174D02*
Y232051D01*
X401985Y405664D02*
X402000Y405649D01*
X516657Y454417D02*
X516841Y454600D01*
X539600Y483741D02*
X542600Y480740D01*
Y468540D02*
Y480740D01*
X539700Y465640D02*
X542600Y468540D01*
X234300Y237200D02*
Y253200D01*
X479100Y453741D02*
X479200Y453641D01*
X500800Y434641D02*
Y470841D01*
X503700Y473740D01*
X284900Y432300D02*
X295900D01*
X234300Y253200D02*
X235300Y254200D01*
X200300Y223200D02*
Y244200D01*
D83*
X479100Y205041D02*
Y224540D01*
X539700Y221860D02*
Y224741D01*
X523740Y205900D02*
X539700Y221860D01*
X516841Y205900D02*
X523740D01*
X479100Y287941D02*
Y307440D01*
X539700Y304760D02*
Y307641D01*
X523740Y288800D02*
X539700Y304760D01*
X516841Y288800D02*
X523740D01*
X479100Y370841D02*
Y390340D01*
X539700Y387660D02*
Y390541D01*
X523740Y371700D02*
X539700Y387660D01*
X516841Y371700D02*
X523740D01*
X245800Y405800D02*
Y432200D01*
X516841Y454600D02*
X523740D01*
X539700Y470560D02*
Y473441D01*
X523740Y454600D02*
X539700Y470560D01*
X479100Y453741D02*
Y473241D01*
D88*
X563000Y167500D02*
D03*
Y490500D02*
D03*
X130000Y167500D02*
D03*
Y490500D02*
D03*
D89*
X334800Y185400D02*
D03*
X324800Y185400D02*
D03*
X344800Y185400D02*
D03*
X354800Y185400D02*
D03*
X354800Y175400D02*
D03*
X344800Y175400D02*
D03*
X324800Y175400D02*
D03*
X334800Y175400D02*
D03*
X174300Y245200D02*
D03*
X164300Y245200D02*
D03*
X174300Y218200D02*
D03*
X164300Y218200D02*
D03*
D90*
X314800Y185400D02*
D03*
X314800Y175400D02*
D03*
D91*
X118500Y465000D02*
D03*
X118524Y445318D02*
D03*
X590240Y189000D02*
D03*
X590217Y208682D02*
D03*
X590240Y271900D02*
D03*
X590217Y291582D02*
D03*
X590240Y354800D02*
D03*
X590217Y374482D02*
D03*
X590240Y437700D02*
D03*
X590217Y457382D02*
D03*
D92*
X402000Y344349D02*
D03*
Y334349D02*
D03*
Y324349D02*
D03*
X343100Y344349D02*
D03*
Y334349D02*
D03*
Y324349D02*
D03*
Y395649D02*
D03*
Y405649D02*
D03*
Y415649D02*
D03*
X402000Y395649D02*
D03*
Y405649D02*
D03*
Y415649D02*
D03*
D93*
X139800Y298074D02*
D03*
Y199649D02*
D03*
D94*
X144800Y270672D02*
D03*
Y259767D02*
D03*
Y248861D02*
D03*
Y237956D02*
D03*
Y227050D02*
D03*
X134800Y232523D02*
D03*
Y243428D02*
D03*
Y254294D02*
D03*
Y265200D02*
D03*
D95*
X503700Y225041D02*
D03*
X500800Y185941D02*
D03*
X539700Y235040D02*
D03*
X503700Y307941D02*
D03*
X500800Y268841D02*
D03*
X539700Y317940D02*
D03*
X503700Y390841D02*
D03*
X500800Y351741D02*
D03*
X539700Y400841D02*
D03*
X338300Y260100D02*
D03*
X347000Y203000D02*
D03*
Y213000D02*
D03*
Y223000D02*
D03*
X296200Y386600D02*
D03*
X239500Y229200D02*
D03*
X395600Y262300D02*
D03*
X381100Y217600D02*
D03*
X116300Y354600D02*
D03*
X313000Y413900D02*
D03*
X275634Y416734D02*
D03*
X270600Y420600D02*
D03*
X253700Y412500D02*
D03*
X217900Y218200D02*
D03*
X239500Y219200D02*
D03*
X269000Y336600D02*
D03*
X340979Y271000D02*
D03*
X382600Y296500D02*
D03*
X387700Y318400D02*
D03*
X387600Y353000D02*
D03*
X375500Y176000D02*
D03*
X390100Y207900D02*
D03*
X390150Y199968D02*
D03*
X370400Y172300D02*
D03*
X396900Y176400D02*
D03*
Y181000D02*
D03*
X353600Y260900D02*
D03*
X347294D02*
D03*
X356682D02*
D03*
X350500D02*
D03*
X375400Y185800D02*
D03*
X375800Y191000D02*
D03*
X355900Y248000D02*
D03*
X418000Y463700D02*
D03*
Y380700D02*
D03*
X417970Y297902D02*
D03*
X418000Y214900D02*
D03*
X327200Y238600D02*
D03*
X350500Y228000D02*
D03*
X357600Y354600D02*
D03*
Y385800D02*
D03*
X387600D02*
D03*
X324300Y248000D02*
D03*
X308351Y224174D02*
D03*
X337769Y271000D02*
D03*
X361169Y296400D02*
D03*
X375800Y394500D02*
D03*
X358368Y238500D02*
D03*
X246000Y388400D02*
D03*
X267900Y392000D02*
D03*
X302500Y417500D02*
D03*
X340469Y296200D02*
D03*
X375569Y296400D02*
D03*
X116300Y337600D02*
D03*
Y372700D02*
D03*
Y390300D02*
D03*
X161600Y348700D02*
D03*
X161700Y369800D02*
D03*
X161800Y390000D02*
D03*
X161700Y411100D02*
D03*
X367800Y394500D02*
D03*
X379900Y395100D02*
D03*
X336668Y277300D02*
D03*
X359469Y277100D02*
D03*
X371069Y263400D02*
D03*
Y259400D02*
D03*
Y255400D02*
D03*
X539700Y483741D02*
D03*
X503700Y473740D02*
D03*
X251131Y413972D02*
D03*
X295900Y432300D02*
D03*
X500800Y434641D02*
D03*
X233600Y448800D02*
D03*
X236100D02*
D03*
Y425000D02*
D03*
X233600D02*
D03*
X234300Y237200D02*
D03*
X235300Y254200D02*
D03*
X200300Y244200D02*
D03*
Y223200D02*
D03*
D96*
X479100Y224540D02*
D03*
X479200Y204941D02*
D03*
X539700Y216940D02*
D03*
Y224741D02*
D03*
X516657Y205716D02*
D03*
X479100Y307440D02*
D03*
X479200Y287841D02*
D03*
X539700Y299840D02*
D03*
Y307641D02*
D03*
X516657Y288616D02*
D03*
X479100Y390340D02*
D03*
X479200Y370741D02*
D03*
X539700Y382740D02*
D03*
Y390541D02*
D03*
X516657Y371516D02*
D03*
X245800Y432200D02*
D03*
X246000Y405600D02*
D03*
X270900Y408000D02*
D03*
X239500Y214200D02*
D03*
X212100Y249200D02*
D03*
Y241200D02*
D03*
X239500Y209000D02*
D03*
X407799Y199926D02*
D03*
X287800Y234200D02*
D03*
X264500Y429000D02*
D03*
Y437000D02*
D03*
Y445000D02*
D03*
X273000Y467500D02*
D03*
X263000D02*
D03*
X288000Y246800D02*
D03*
Y254200D02*
D03*
X287900Y239200D02*
D03*
X291600Y214100D02*
D03*
X365268Y209600D02*
D03*
X372600Y352400D02*
D03*
X373269Y233400D02*
D03*
X516657Y454417D02*
D03*
X259531Y418437D02*
D03*
X263469D02*
D03*
X259531Y414500D02*
D03*
X263469D02*
D03*
X259531Y410563D02*
D03*
X263469D02*
D03*
X539700Y465640D02*
D03*
Y473441D02*
D03*
X479100Y473241D02*
D03*
X479200Y453641D02*
D03*
D97*
X307200Y484700D02*
D03*
X307277Y456323D02*
D03*
X327600Y476000D02*
D03*
X331500Y460500D02*
D03*
Y466500D02*
D03*
X325500D02*
D03*
X266000Y488000D02*
D03*
X257000D02*
D03*
X248000D02*
D03*
X239000D02*
D03*
M02*
